G04 EAGLE Gerber RS-274X export*
G75*
%MOIN*%
%FSLAX34Y34*%
%LPD*%
%INTop Copper*%
%IPPOS*%
%AMOC8*
5,1,8,0,0,1.08239X$1,22.5*%
G01*
G04 Define Apertures*
%ADD10R,0.011024X0.061417*%
%ADD11R,0.061417X0.011024*%
%ADD12C,0.007677*%
%ADD13R,0.055913X0.040598*%
%ADD14R,0.047559X0.047559*%
%ADD15C,0.047559*%
%ADD16R,0.038197X0.036256*%
%ADD17R,0.036256X0.038197*%
%ADD18R,0.029528X0.027559*%
%ADD19R,0.043307X0.039370*%
%ADD20R,0.040598X0.055913*%
%ADD21C,0.002559*%
%ADD22R,0.102362X0.102362*%
%ADD23C,0.040000*%
%ADD24C,0.094488*%
%ADD25C,0.055039*%
%ADD26C,0.060236*%
%ADD27C,0.057087*%
%ADD28R,0.045850X0.071469*%
%ADD29R,0.089764X0.083465*%
%ADD30R,0.204724X0.147638*%
%ADD31R,0.031496X0.031496*%
%ADD32C,0.026000*%
%ADD33C,0.006000*%
%ADD34C,0.032000*%
%ADD35C,0.010000*%
%ADD36C,0.040000*%
G36*
X7459Y23125D02*
X7439Y23121D01*
X5653Y23121D01*
X5636Y23125D01*
X5619Y23135D01*
X5607Y23151D01*
X5603Y23171D01*
X5607Y23190D01*
X5618Y23207D01*
X7176Y24765D01*
X7190Y24775D01*
X7210Y24780D01*
X7229Y24776D01*
X7246Y24766D01*
X7257Y24749D01*
X7261Y24730D01*
X7261Y24679D01*
X7307Y24570D01*
X7390Y24486D01*
X7500Y24440D01*
X7618Y24440D01*
X7728Y24486D01*
X7812Y24570D01*
X7857Y24679D01*
X7857Y24797D01*
X7812Y24907D01*
X7728Y24991D01*
X7618Y25036D01*
X7567Y25036D01*
X7550Y25039D01*
X7533Y25050D01*
X7522Y25066D01*
X7517Y25085D01*
X7521Y25105D01*
X7532Y25121D01*
X7581Y25170D01*
X7597Y25181D01*
X7616Y25185D01*
X7921Y25185D01*
X8174Y25438D01*
X8190Y25448D01*
X8209Y25453D01*
X8229Y25449D01*
X8287Y25425D01*
X8406Y25425D01*
X8515Y25470D01*
X8599Y25554D01*
X8644Y25663D01*
X8644Y25782D01*
X8599Y25891D01*
X8515Y25975D01*
X8455Y26000D01*
X8440Y26009D01*
X8429Y26026D01*
X8424Y26045D01*
X8428Y26065D01*
X8439Y26081D01*
X8579Y26221D01*
X8594Y26232D01*
X8614Y26236D01*
X8633Y26232D01*
X8681Y26212D01*
X8799Y26212D01*
X8909Y26257D01*
X8993Y26341D01*
X9038Y26451D01*
X9038Y26569D01*
X8992Y26681D01*
X8988Y26699D01*
X8991Y26718D01*
X9002Y26735D01*
X9018Y26746D01*
X9038Y26750D01*
X9187Y26750D01*
X9204Y26747D01*
X9221Y26737D01*
X9233Y26720D01*
X9237Y26701D01*
X9233Y26681D01*
X9190Y26577D01*
X9190Y26540D01*
X9865Y26540D01*
X9865Y26577D01*
X9822Y26681D01*
X9818Y26699D01*
X9822Y26718D01*
X9832Y26735D01*
X9849Y26746D01*
X9868Y26750D01*
X9974Y26750D01*
X9992Y26747D01*
X10009Y26737D01*
X10020Y26720D01*
X10024Y26701D01*
X10020Y26681D01*
X9977Y26577D01*
X9977Y26540D01*
X10653Y26540D01*
X10653Y26577D01*
X10610Y26681D01*
X10606Y26699D01*
X10609Y26718D01*
X10620Y26735D01*
X10636Y26746D01*
X10656Y26750D01*
X10805Y26750D01*
X10822Y26747D01*
X10839Y26737D01*
X10851Y26720D01*
X10855Y26701D01*
X10851Y26681D01*
X10805Y26569D01*
X10805Y26451D01*
X10824Y26403D01*
X10828Y26384D01*
X10825Y26365D01*
X10814Y26348D01*
X10620Y26155D01*
X10604Y26144D01*
X10585Y26140D01*
X10544Y26140D01*
X10532Y26142D01*
X10532Y26142D01*
X10521Y26125D01*
X10290Y25895D01*
X10276Y25885D01*
X10256Y25880D01*
X10237Y25884D01*
X10220Y25895D01*
X10209Y25911D01*
X10208Y25914D01*
X10113Y26009D01*
X9988Y26060D01*
X9951Y26060D01*
X9951Y25692D01*
X9583Y25692D01*
X9583Y25655D01*
X9635Y25531D01*
X9730Y25436D01*
X9831Y25394D01*
X9846Y25384D01*
X9858Y25368D01*
X9862Y25349D01*
X9859Y25329D01*
X9848Y25312D01*
X9450Y24914D01*
X9434Y24904D01*
X9415Y24900D01*
X9395Y24903D01*
X9379Y24914D01*
X9303Y24991D01*
X9193Y25036D01*
X9075Y25036D01*
X8965Y24991D01*
X8881Y24907D01*
X8836Y24797D01*
X8836Y24679D01*
X8881Y24570D01*
X8965Y24486D01*
X9016Y24465D01*
X9030Y24456D01*
X9042Y24440D01*
X9047Y24420D01*
X9043Y24401D01*
X9033Y24384D01*
X9016Y24373D01*
X8997Y24369D01*
X8567Y24369D01*
X8322Y24124D01*
X8322Y24088D01*
X8319Y24071D01*
X8309Y24054D01*
X8293Y24042D01*
X8274Y24038D01*
X8254Y24042D01*
X8237Y24052D01*
X8226Y24069D01*
X8205Y24119D01*
X8121Y24203D01*
X8012Y24249D01*
X7894Y24249D01*
X7784Y24203D01*
X7700Y24119D01*
X7655Y24010D01*
X7655Y23892D01*
X7700Y23782D01*
X7784Y23698D01*
X7893Y23653D01*
X7909Y23643D01*
X7920Y23627D01*
X7924Y23608D01*
X7921Y23588D01*
X7910Y23571D01*
X7474Y23136D01*
X7459Y23125D01*
G37*
%LPC*%
G36*
X10248Y26172D02*
X10285Y26172D01*
X10285Y26480D01*
X9977Y26480D01*
X9977Y26443D01*
X10029Y26318D01*
X10124Y26223D01*
X10248Y26172D01*
G37*
G36*
X10345Y26172D02*
X10382Y26172D01*
X10466Y26207D01*
X10483Y26211D01*
X10497Y26208D01*
X10497Y26209D01*
X10508Y26226D01*
X10601Y26318D01*
X10653Y26443D01*
X10653Y26480D01*
X10345Y26480D01*
X10345Y26172D01*
G37*
G36*
X9558Y26172D02*
X9595Y26172D01*
X9719Y26223D01*
X9814Y26318D01*
X9865Y26443D01*
X9865Y26480D01*
X9558Y26480D01*
X9558Y26172D01*
G37*
G36*
X9460Y26172D02*
X9498Y26172D01*
X9498Y26480D01*
X9190Y26480D01*
X9190Y26443D01*
X9241Y26318D01*
X9336Y26223D01*
X9460Y26172D01*
G37*
G36*
X9583Y25752D02*
X9891Y25752D01*
X9891Y26060D01*
X9854Y26060D01*
X9730Y26009D01*
X9635Y25914D01*
X9583Y25790D01*
X9583Y25752D01*
G37*
G36*
X9075Y25425D02*
X9193Y25425D01*
X9303Y25470D01*
X9386Y25554D01*
X9432Y25663D01*
X9432Y25782D01*
X9386Y25891D01*
X9303Y25975D01*
X9193Y26020D01*
X9075Y26020D01*
X8965Y25975D01*
X8881Y25891D01*
X8836Y25782D01*
X8836Y25663D01*
X8881Y25554D01*
X8965Y25470D01*
X9075Y25425D01*
G37*
G36*
X8287Y24440D02*
X8406Y24440D01*
X8515Y24486D01*
X8599Y24570D01*
X8644Y24679D01*
X8644Y24797D01*
X8599Y24907D01*
X8515Y24991D01*
X8406Y25036D01*
X8287Y25036D01*
X8178Y24991D01*
X8094Y24907D01*
X8049Y24797D01*
X8049Y24679D01*
X8094Y24570D01*
X8178Y24486D01*
X8287Y24440D01*
G37*
%LPD*%
G36*
X15269Y3962D02*
X15250Y3958D01*
X465Y3958D01*
X447Y3962D01*
X430Y3972D01*
X419Y3989D01*
X415Y4008D01*
X415Y12183D01*
X418Y12200D01*
X429Y12217D01*
X445Y12229D01*
X465Y12233D01*
X484Y12229D01*
X526Y12212D01*
X602Y12212D01*
X665Y12238D01*
X683Y12242D01*
X702Y12238D01*
X719Y12228D01*
X730Y12211D01*
X734Y12192D01*
X734Y8952D01*
X1747Y7939D01*
X2122Y7939D01*
X2140Y7936D01*
X2157Y7925D01*
X2168Y7909D01*
X2172Y7890D01*
X2169Y7870D01*
X2158Y7854D01*
X2072Y7768D01*
X1985Y7558D01*
X1985Y7474D01*
X3130Y7474D01*
X3130Y7558D01*
X3043Y7768D01*
X2957Y7854D01*
X2947Y7868D01*
X2942Y7887D01*
X2946Y7907D01*
X2956Y7924D01*
X2973Y7935D01*
X2992Y7939D01*
X5231Y7939D01*
X5718Y8425D01*
X5733Y8436D01*
X5753Y8440D01*
X5772Y8436D01*
X5841Y8408D01*
X5975Y8408D01*
X6098Y8459D01*
X6192Y8553D01*
X6243Y8676D01*
X6243Y8810D01*
X6192Y8933D01*
X6185Y8940D01*
X6175Y8955D01*
X6170Y8974D01*
X6174Y8994D01*
X6185Y9010D01*
X6987Y9813D01*
X7002Y9823D01*
X7021Y9827D01*
X7041Y9824D01*
X7057Y9813D01*
X7069Y9797D01*
X7073Y9777D01*
X7073Y9676D01*
X7124Y9553D01*
X7218Y9459D01*
X7341Y9408D01*
X7475Y9408D01*
X7598Y9459D01*
X7692Y9553D01*
X7743Y9676D01*
X7743Y9810D01*
X7723Y9859D01*
X7719Y9877D01*
X7723Y9896D01*
X7734Y9913D01*
X7735Y9915D01*
X7751Y9925D01*
X7771Y9929D01*
X9929Y9929D01*
X9947Y9926D01*
X9964Y9915D01*
X9975Y9899D01*
X9979Y9879D01*
X9979Y9818D01*
X10015Y9783D01*
X10497Y9783D01*
X10532Y9818D01*
X10532Y10261D01*
X10497Y10296D01*
X10015Y10296D01*
X9979Y10261D01*
X9979Y10199D01*
X9976Y10181D01*
X9965Y10165D01*
X9949Y10153D01*
X9929Y10149D01*
X7771Y10149D01*
X7754Y10152D01*
X7737Y10163D01*
X7725Y10179D01*
X7721Y10199D01*
X7725Y10218D01*
X7736Y10235D01*
X8277Y10776D01*
X8293Y10787D01*
X8312Y10791D01*
X8808Y10791D01*
X8844Y10826D01*
X8844Y11282D01*
X8808Y11317D01*
X8200Y11317D01*
X8164Y11282D01*
X8164Y10939D01*
X8161Y10920D01*
X8150Y10903D01*
X8102Y10856D01*
X8088Y10846D01*
X8068Y10841D01*
X8049Y10844D01*
X8032Y10855D01*
X8021Y10872D01*
X8017Y10891D01*
X8017Y11282D01*
X7982Y11317D01*
X7373Y11317D01*
X7338Y11282D01*
X7338Y10939D01*
X7334Y10920D01*
X7323Y10903D01*
X6880Y10461D01*
X6865Y10450D01*
X6845Y10446D01*
X6776Y10446D01*
X5686Y9357D01*
X5670Y9346D01*
X5651Y9342D01*
X5567Y9342D01*
X5550Y9345D01*
X5533Y9355D01*
X5522Y9371D01*
X5517Y9391D01*
X5521Y9410D01*
X5532Y9427D01*
X5548Y9438D01*
X5598Y9459D01*
X5692Y9553D01*
X5743Y9676D01*
X5743Y9810D01*
X5714Y9879D01*
X5711Y9897D01*
X5714Y9916D01*
X5725Y9933D01*
X6132Y10339D01*
X6132Y10742D01*
X6135Y10760D01*
X6146Y10777D01*
X6162Y10788D01*
X6182Y10792D01*
X6346Y10792D01*
X6381Y10827D01*
X6381Y10972D01*
X6385Y10990D01*
X6395Y11007D01*
X6412Y11018D01*
X6431Y11022D01*
X6589Y11022D01*
X6607Y11019D01*
X6624Y11008D01*
X6635Y10992D01*
X6639Y10972D01*
X6639Y10906D01*
X6674Y10871D01*
X7106Y10871D01*
X7141Y10906D01*
X7141Y11318D01*
X7104Y11356D01*
X7094Y11370D01*
X7089Y11389D01*
X7092Y11409D01*
X7103Y11426D01*
X7116Y11434D01*
X7181Y11500D01*
X7181Y11692D01*
X6599Y11692D01*
X6599Y11500D01*
X6665Y11434D01*
X6675Y11427D01*
X6686Y11411D01*
X6691Y11392D01*
X6687Y11372D01*
X6676Y11356D01*
X6639Y11318D01*
X6639Y11252D01*
X6635Y11234D01*
X6625Y11218D01*
X6608Y11206D01*
X6589Y11202D01*
X6431Y11202D01*
X6413Y11206D01*
X6396Y11216D01*
X6385Y11233D01*
X6381Y11252D01*
X6381Y11283D01*
X6346Y11318D01*
X5737Y11318D01*
X5702Y11283D01*
X5702Y10827D01*
X5737Y10792D01*
X5902Y10792D01*
X5920Y10789D01*
X5936Y10778D01*
X5948Y10762D01*
X5952Y10742D01*
X5952Y10435D01*
X5948Y10416D01*
X5937Y10399D01*
X5598Y10060D01*
X5583Y10050D01*
X5563Y10046D01*
X5544Y10049D01*
X5475Y10078D01*
X5341Y10078D01*
X5218Y10027D01*
X5124Y9933D01*
X5073Y9810D01*
X5073Y9676D01*
X5124Y9553D01*
X5218Y9459D01*
X5346Y9406D01*
X5361Y9396D01*
X5372Y9380D01*
X5377Y9360D01*
X5373Y9341D01*
X5362Y9324D01*
X5098Y9060D01*
X5083Y9050D01*
X5063Y9046D01*
X5044Y9049D01*
X4975Y9078D01*
X4841Y9078D01*
X4718Y9027D01*
X4624Y8933D01*
X4594Y8861D01*
X4585Y8847D01*
X4569Y8835D01*
X4549Y8830D01*
X4530Y8834D01*
X4513Y8844D01*
X4502Y8861D01*
X4498Y8880D01*
X4498Y9384D01*
X4501Y9402D01*
X4512Y9419D01*
X4529Y9430D01*
X4598Y9459D01*
X4692Y9553D01*
X4743Y9676D01*
X4743Y9810D01*
X4692Y9933D01*
X4655Y9969D01*
X4645Y9984D01*
X4641Y10004D01*
X4644Y10023D01*
X4655Y10040D01*
X5209Y10593D01*
X5209Y10742D01*
X5212Y10760D01*
X5223Y10777D01*
X5239Y10788D01*
X5259Y10792D01*
X5423Y10792D01*
X5458Y10827D01*
X5458Y11283D01*
X5423Y11318D01*
X4814Y11318D01*
X4779Y11283D01*
X4779Y10827D01*
X4814Y10792D01*
X4979Y10792D01*
X4997Y10789D01*
X5014Y10778D01*
X5025Y10762D01*
X5029Y10742D01*
X5029Y10689D01*
X5025Y10670D01*
X5014Y10653D01*
X4454Y10093D01*
X4438Y10082D01*
X4418Y10078D01*
X4341Y10078D01*
X4218Y10027D01*
X4124Y9933D01*
X4073Y9810D01*
X4073Y9676D01*
X4124Y9553D01*
X4218Y9459D01*
X4287Y9430D01*
X4303Y9420D01*
X4314Y9403D01*
X4318Y9384D01*
X4318Y8880D01*
X4315Y8863D01*
X4305Y8846D01*
X4288Y8835D01*
X4269Y8830D01*
X4249Y8834D01*
X4233Y8845D01*
X4222Y8861D01*
X4192Y8933D01*
X4098Y9027D01*
X3975Y9078D01*
X3841Y9078D01*
X3718Y9027D01*
X3624Y8933D01*
X3595Y8864D01*
X3585Y8848D01*
X3568Y8837D01*
X3549Y8833D01*
X3126Y8833D01*
X3107Y8837D01*
X3091Y8848D01*
X2861Y9078D01*
X2850Y9094D01*
X2846Y9113D01*
X2846Y10101D01*
X2850Y10119D01*
X2861Y10136D01*
X3612Y10887D01*
X3627Y10898D01*
X3647Y10902D01*
X3956Y10902D01*
X3991Y10937D01*
X3991Y11349D01*
X3956Y11384D01*
X3524Y11384D01*
X3489Y11349D01*
X3489Y11040D01*
X3486Y11021D01*
X3475Y11005D01*
X2666Y10196D01*
X2666Y9196D01*
X2663Y9179D01*
X2652Y9162D01*
X2636Y9151D01*
X2617Y9146D01*
X2597Y9150D01*
X2581Y9161D01*
X2270Y9471D01*
X2259Y9487D01*
X2255Y9507D01*
X2255Y10870D01*
X2259Y10888D01*
X2269Y10904D01*
X2286Y10916D01*
X2305Y10920D01*
X2342Y10920D01*
X2377Y10955D01*
X2377Y11021D01*
X2380Y11039D01*
X2391Y11056D01*
X2407Y11067D01*
X2427Y11071D01*
X2484Y11071D01*
X2502Y11068D01*
X2519Y11057D01*
X2530Y11040D01*
X2534Y11021D01*
X2534Y10906D01*
X2570Y10871D01*
X3178Y10871D01*
X3214Y10906D01*
X3214Y11362D01*
X3178Y11397D01*
X2570Y11397D01*
X2534Y11362D01*
X2534Y11301D01*
X2531Y11283D01*
X2520Y11266D01*
X2504Y11255D01*
X2484Y11251D01*
X2427Y11251D01*
X2409Y11254D01*
X2392Y11265D01*
X2381Y11281D01*
X2377Y11301D01*
X2377Y11367D01*
X2340Y11404D01*
X2330Y11419D01*
X2325Y11438D01*
X2329Y11458D01*
X2339Y11474D01*
X2352Y11483D01*
X2417Y11548D01*
X2417Y11741D01*
X1835Y11741D01*
X1835Y11548D01*
X1901Y11482D01*
X1911Y11476D01*
X1923Y11460D01*
X1927Y11440D01*
X1923Y11421D01*
X1912Y11404D01*
X1875Y11367D01*
X1875Y10955D01*
X1910Y10920D01*
X2025Y10920D01*
X2043Y10916D01*
X2060Y10906D01*
X2071Y10889D01*
X2075Y10870D01*
X2075Y9412D01*
X3123Y8364D01*
X3133Y8350D01*
X3137Y8331D01*
X3134Y8311D01*
X3123Y8294D01*
X3107Y8283D01*
X3087Y8279D01*
X1908Y8279D01*
X1890Y8283D01*
X1873Y8294D01*
X1089Y9078D01*
X1078Y9094D01*
X1074Y9113D01*
X1074Y11671D01*
X1078Y11689D01*
X1088Y11706D01*
X1105Y11717D01*
X1124Y11721D01*
X1415Y11721D01*
X1927Y12232D01*
X1927Y12510D01*
X1930Y12528D01*
X1941Y12545D01*
X1957Y12556D01*
X1977Y12560D01*
X2048Y12560D01*
X2105Y12618D01*
X2105Y12796D01*
X2109Y12815D01*
X2120Y12832D01*
X2145Y12857D01*
X2145Y12923D01*
X1807Y12923D01*
X1807Y12983D01*
X2145Y12983D01*
X2145Y13048D01*
X2120Y13074D01*
X2109Y13090D01*
X2105Y13109D01*
X2105Y13288D01*
X2048Y13345D01*
X1626Y13345D01*
X1574Y13294D01*
X1558Y13283D01*
X1538Y13279D01*
X1519Y13279D01*
X1502Y13282D01*
X1485Y13293D01*
X1473Y13309D01*
X1469Y13328D01*
X1473Y13348D01*
X1484Y13364D01*
X2551Y14431D01*
X2551Y14433D01*
X2554Y14451D01*
X2565Y14467D01*
X2581Y14479D01*
X2601Y14483D01*
X2627Y14483D01*
X2627Y15297D01*
X2561Y15297D01*
X2536Y15271D01*
X2520Y15261D01*
X2500Y15257D01*
X2184Y15257D01*
X2149Y15222D01*
X2149Y14671D01*
X2145Y14652D01*
X2134Y14635D01*
X734Y13236D01*
X734Y12611D01*
X731Y12594D01*
X720Y12577D01*
X704Y12566D01*
X685Y12561D01*
X665Y12565D01*
X602Y12592D01*
X526Y12592D01*
X484Y12574D01*
X467Y12570D01*
X447Y12574D01*
X430Y12584D01*
X419Y12601D01*
X415Y12620D01*
X415Y22133D01*
X418Y22151D01*
X429Y22168D01*
X445Y22179D01*
X465Y22183D01*
X3232Y22183D01*
X3385Y22247D01*
X3501Y22363D01*
X3565Y22516D01*
X3565Y26700D01*
X3568Y26718D01*
X3579Y26735D01*
X3595Y26746D01*
X3615Y26750D01*
X7655Y26750D01*
X7673Y26747D01*
X7690Y26737D01*
X7701Y26720D01*
X7705Y26701D01*
X7701Y26681D01*
X7655Y26569D01*
X7655Y26451D01*
X7700Y26341D01*
X7784Y26257D01*
X7894Y26212D01*
X8012Y26212D01*
X8121Y26257D01*
X8205Y26341D01*
X8251Y26451D01*
X8251Y26569D01*
X8204Y26681D01*
X8200Y26699D01*
X8204Y26718D01*
X8214Y26735D01*
X8231Y26746D01*
X8250Y26750D01*
X8443Y26750D01*
X8460Y26747D01*
X8477Y26737D01*
X8489Y26720D01*
X8493Y26701D01*
X8489Y26681D01*
X8442Y26569D01*
X8442Y26451D01*
X8462Y26403D01*
X8466Y26384D01*
X8462Y26365D01*
X8451Y26348D01*
X8258Y26155D01*
X8242Y26144D01*
X8223Y26140D01*
X8173Y26140D01*
X7942Y25909D01*
X7928Y25899D01*
X7908Y25894D01*
X7889Y25898D01*
X7872Y25908D01*
X7861Y25925D01*
X7857Y25944D01*
X7857Y25985D01*
X7822Y26020D01*
X7296Y26020D01*
X7261Y25985D01*
X7261Y25460D01*
X7298Y25423D01*
X7308Y25422D01*
X7325Y25411D01*
X7336Y25395D01*
X7340Y25375D01*
X7337Y25356D01*
X7326Y25339D01*
X2152Y20166D01*
X2152Y19992D01*
X2376Y19768D01*
X2386Y19752D01*
X2390Y19733D01*
X2390Y19609D01*
X2387Y19590D01*
X2376Y19574D01*
X2319Y19517D01*
X2290Y19447D01*
X2290Y19372D01*
X2306Y19334D01*
X2310Y19317D01*
X2306Y19298D01*
X2296Y19281D01*
X2279Y19269D01*
X2260Y19265D01*
X2240Y19269D01*
X2203Y19284D01*
X2128Y19284D01*
X2058Y19256D01*
X2004Y19202D01*
X1975Y19132D01*
X1975Y19081D01*
X1972Y19063D01*
X1961Y19047D01*
X1945Y19035D01*
X1925Y19031D01*
X1875Y19031D01*
X1805Y19003D01*
X1751Y18949D01*
X1722Y18879D01*
X1722Y18804D01*
X1751Y18734D01*
X1805Y18680D01*
X1875Y18651D01*
X1954Y18651D01*
X1973Y18648D01*
X1990Y18637D01*
X2134Y18493D01*
X2145Y18477D01*
X2149Y18457D01*
X2149Y17849D01*
X2184Y17814D01*
X3484Y17814D01*
X3503Y17810D01*
X3520Y17799D01*
X3545Y17774D01*
X3612Y17774D01*
X3612Y18211D01*
X3672Y18211D01*
X3672Y17774D01*
X3738Y17774D01*
X3764Y17799D01*
X3779Y17810D01*
X3799Y17814D01*
X3875Y17814D01*
X3893Y17811D01*
X3910Y17800D01*
X3921Y17784D01*
X3925Y17764D01*
X3925Y17521D01*
X3922Y17502D01*
X3911Y17486D01*
X3895Y17475D01*
X3829Y17448D01*
X3776Y17394D01*
X3747Y17324D01*
X3747Y17249D01*
X3776Y17179D01*
X3829Y17125D01*
X3899Y17096D01*
X3975Y17096D01*
X4045Y17125D01*
X4098Y17179D01*
X4127Y17249D01*
X4127Y17334D01*
X4130Y17351D01*
X4141Y17368D01*
X4157Y17380D01*
X4176Y17384D01*
X4196Y17380D01*
X4212Y17369D01*
X4223Y17359D01*
X4293Y17330D01*
X4369Y17330D01*
X4438Y17359D01*
X4492Y17412D01*
X4521Y17482D01*
X4521Y17533D01*
X4524Y17552D01*
X4535Y17569D01*
X4540Y17573D01*
X4554Y17583D01*
X4573Y17588D01*
X4593Y17584D01*
X4610Y17574D01*
X4621Y17557D01*
X4625Y17538D01*
X4625Y17188D01*
X4622Y17170D01*
X4611Y17153D01*
X4595Y17142D01*
X4575Y17138D01*
X4482Y17138D01*
X2744Y15400D01*
X2744Y15347D01*
X2741Y15329D01*
X2730Y15312D01*
X2714Y15301D01*
X2694Y15297D01*
X2687Y15297D01*
X2687Y14483D01*
X2754Y14483D01*
X2779Y14508D01*
X2795Y14519D01*
X2815Y14523D01*
X2911Y14523D01*
X2929Y14519D01*
X2946Y14509D01*
X2957Y14492D01*
X2961Y14473D01*
X2961Y14350D01*
X2964Y14347D01*
X2974Y14332D01*
X2978Y14312D01*
X2978Y14020D01*
X3439Y13560D01*
X3449Y13544D01*
X3453Y13525D01*
X3453Y13329D01*
X3450Y13311D01*
X3439Y13294D01*
X3423Y13283D01*
X3403Y13279D01*
X2871Y13279D01*
X2852Y13283D01*
X2836Y13294D01*
X2784Y13345D01*
X2362Y13345D01*
X2304Y13288D01*
X2304Y13130D01*
X2318Y13116D01*
X2328Y13101D01*
X2332Y13082D01*
X2329Y13062D01*
X2318Y13045D01*
X2304Y13032D01*
X2304Y12874D01*
X2318Y12860D01*
X2328Y12845D01*
X2332Y12826D01*
X2329Y12806D01*
X2318Y12789D01*
X2304Y12776D01*
X2304Y12618D01*
X2362Y12560D01*
X2784Y12560D01*
X2816Y12592D01*
X2832Y12603D01*
X2851Y12607D01*
X2891Y12607D01*
X2910Y12603D01*
X2926Y12592D01*
X2963Y12555D01*
X3033Y12527D01*
X3109Y12527D01*
X3178Y12555D01*
X3232Y12609D01*
X3261Y12679D01*
X3261Y12754D01*
X3232Y12824D01*
X3178Y12878D01*
X3109Y12907D01*
X3033Y12907D01*
X2963Y12878D01*
X2927Y12841D01*
X2912Y12831D01*
X2893Y12827D01*
X2873Y12830D01*
X2857Y12841D01*
X2845Y12857D01*
X2841Y12877D01*
X2841Y13049D01*
X2845Y13067D01*
X2856Y13084D01*
X2872Y13095D01*
X2891Y13099D01*
X3403Y13099D01*
X3421Y13096D01*
X3438Y13085D01*
X3449Y13068D01*
X3453Y13049D01*
X3453Y12335D01*
X3661Y12127D01*
X3672Y12112D01*
X3676Y12092D01*
X3672Y12073D01*
X3661Y12056D01*
X3650Y12045D01*
X3650Y12044D01*
X3647Y12026D01*
X3636Y12009D01*
X3620Y11998D01*
X3600Y11994D01*
X3524Y11994D01*
X3493Y11963D01*
X3477Y11952D01*
X3458Y11948D01*
X3264Y11948D01*
X3246Y11951D01*
X3229Y11962D01*
X3218Y11979D01*
X3214Y11998D01*
X3214Y12086D01*
X3178Y12121D01*
X2570Y12121D01*
X2534Y12086D01*
X2534Y11630D01*
X2570Y11595D01*
X3178Y11595D01*
X3214Y11630D01*
X3214Y11718D01*
X3217Y11736D01*
X3228Y11753D01*
X3244Y11764D01*
X3264Y11768D01*
X3439Y11768D01*
X3457Y11765D01*
X3474Y11754D01*
X3485Y11738D01*
X3489Y11718D01*
X3489Y11547D01*
X3524Y11512D01*
X3956Y11512D01*
X3991Y11547D01*
X3991Y11936D01*
X3994Y11953D01*
X4005Y11970D01*
X4021Y11981D01*
X4040Y11986D01*
X4060Y11982D01*
X4076Y11971D01*
X4104Y11943D01*
X4115Y11927D01*
X4119Y11908D01*
X4119Y11537D01*
X4154Y11502D01*
X4586Y11502D01*
X4621Y11537D01*
X4621Y11639D01*
X4624Y11657D01*
X4635Y11674D01*
X4652Y11685D01*
X4671Y11689D01*
X4729Y11689D01*
X4747Y11686D01*
X4764Y11675D01*
X4775Y11659D01*
X4779Y11639D01*
X4779Y11551D01*
X4814Y11516D01*
X5423Y11516D01*
X5458Y11551D01*
X5458Y11816D01*
X5461Y11833D01*
X5472Y11850D01*
X5488Y11861D01*
X5508Y11866D01*
X5527Y11862D01*
X5544Y11851D01*
X5687Y11707D01*
X5698Y11691D01*
X5702Y11672D01*
X5702Y11551D01*
X5737Y11516D01*
X6346Y11516D01*
X6381Y11551D01*
X6381Y12007D01*
X6346Y12042D01*
X6312Y12042D01*
X6294Y12046D01*
X6277Y12056D01*
X6266Y12073D01*
X6262Y12092D01*
X6262Y12426D01*
X6265Y12445D01*
X6276Y12461D01*
X6376Y12561D01*
X6392Y12571D01*
X6411Y12575D01*
X8870Y12575D01*
X8887Y12572D01*
X8904Y12562D01*
X8915Y12546D01*
X8920Y12526D01*
X8916Y12507D01*
X8905Y12490D01*
X8470Y12055D01*
X8455Y12045D01*
X8435Y12041D01*
X8200Y12041D01*
X8171Y12012D01*
X8155Y12002D01*
X8136Y11998D01*
X8045Y11998D01*
X8027Y12001D01*
X8010Y12012D01*
X7982Y12041D01*
X7373Y12041D01*
X7338Y12006D01*
X7338Y11550D01*
X7373Y11515D01*
X7982Y11515D01*
X8010Y11543D01*
X8026Y11554D01*
X8045Y11558D01*
X8136Y11558D01*
X8155Y11554D01*
X8171Y11543D01*
X8200Y11515D01*
X8808Y11515D01*
X8844Y11550D01*
X8844Y11618D01*
X8847Y11636D01*
X8858Y11653D01*
X8874Y11664D01*
X8894Y11668D01*
X9303Y11668D01*
X9321Y11664D01*
X9338Y11653D01*
X9341Y11650D01*
X9411Y11621D01*
X9487Y11621D01*
X9556Y11650D01*
X9610Y11703D01*
X9639Y11773D01*
X9639Y11849D01*
X9610Y11919D01*
X9556Y11972D01*
X9487Y12001D01*
X9411Y12001D01*
X9341Y11972D01*
X9288Y11919D01*
X9288Y11919D01*
X9277Y11903D01*
X9261Y11892D01*
X9242Y11888D01*
X9046Y11888D01*
X9028Y11891D01*
X9012Y11901D01*
X9000Y11917D01*
X8996Y11937D01*
X8999Y11956D01*
X9010Y11973D01*
X11407Y14370D01*
X11440Y14450D01*
X11440Y19729D01*
X11407Y19810D01*
X10813Y20404D01*
X10732Y20438D01*
X9486Y20438D01*
X9468Y20441D01*
X9451Y20452D01*
X9442Y20461D01*
X9432Y20475D01*
X9428Y20495D01*
X9431Y20514D01*
X9442Y20531D01*
X9454Y20539D01*
X9520Y20605D01*
X9520Y20797D01*
X9199Y20797D01*
X9199Y21109D01*
X8996Y21109D01*
X8928Y21041D01*
X8913Y21030D01*
X8894Y21026D01*
X8874Y21030D01*
X8857Y21041D01*
X8790Y21109D01*
X8587Y21109D01*
X8587Y20797D01*
X8266Y20797D01*
X8266Y20605D01*
X8332Y20539D01*
X8342Y20533D01*
X8354Y20516D01*
X8358Y20497D01*
X8354Y20477D01*
X8343Y20461D01*
X8335Y20452D01*
X8319Y20441D01*
X8299Y20438D01*
X8092Y20438D01*
X8074Y20441D01*
X8057Y20452D01*
X8048Y20461D01*
X8038Y20475D01*
X8034Y20495D01*
X8037Y20514D01*
X8048Y20531D01*
X8060Y20539D01*
X8126Y20605D01*
X8126Y20797D01*
X7544Y20797D01*
X7544Y20605D01*
X7609Y20539D01*
X7620Y20533D01*
X7631Y20516D01*
X7635Y20497D01*
X7632Y20477D01*
X7621Y20461D01*
X7584Y20424D01*
X7584Y20011D01*
X7600Y19995D01*
X7611Y19979D01*
X7615Y19960D01*
X7615Y19818D01*
X7611Y19800D01*
X7601Y19783D01*
X7584Y19772D01*
X7565Y19768D01*
X6953Y19768D01*
X6934Y19772D01*
X6918Y19783D01*
X6909Y19791D01*
X6899Y19806D01*
X6894Y19825D01*
X6898Y19845D01*
X6908Y19862D01*
X6921Y19870D01*
X6986Y19935D01*
X6986Y20128D01*
X6665Y20128D01*
X6665Y20439D01*
X6463Y20439D01*
X6409Y20385D01*
X6393Y20375D01*
X6374Y20371D01*
X6354Y20374D01*
X6338Y20385D01*
X6284Y20439D01*
X6081Y20439D01*
X6081Y20128D01*
X6021Y20128D01*
X6021Y20439D01*
X5819Y20439D01*
X5773Y20393D01*
X5758Y20383D01*
X5738Y20379D01*
X5719Y20382D01*
X5702Y20393D01*
X5656Y20439D01*
X5453Y20439D01*
X5453Y20128D01*
X5393Y20128D01*
X5393Y20439D01*
X5191Y20439D01*
X5129Y20377D01*
X5114Y20367D01*
X5094Y20363D01*
X5075Y20366D01*
X5058Y20377D01*
X4996Y20439D01*
X4794Y20439D01*
X4794Y20128D01*
X4734Y20128D01*
X4734Y20439D01*
X4531Y20439D01*
X4467Y20375D01*
X4451Y20364D01*
X4432Y20360D01*
X4412Y20364D01*
X4396Y20375D01*
X4331Y20439D01*
X4129Y20439D01*
X4129Y20128D01*
X4069Y20128D01*
X4069Y20439D01*
X3866Y20439D01*
X3806Y20379D01*
X3791Y20369D01*
X3772Y20365D01*
X3752Y20368D01*
X3736Y20379D01*
X3676Y20439D01*
X3473Y20439D01*
X3473Y20128D01*
X3152Y20128D01*
X3152Y19930D01*
X3149Y19913D01*
X3139Y19896D01*
X3123Y19885D01*
X3103Y19880D01*
X3084Y19884D01*
X3067Y19895D01*
X2961Y20001D01*
X2950Y20017D01*
X2946Y20037D01*
X2946Y20117D01*
X2917Y20186D01*
X2891Y20213D01*
X2880Y20228D01*
X2876Y20247D01*
X2880Y20267D01*
X2891Y20283D01*
X5534Y22927D01*
X5550Y22938D01*
X5570Y22941D01*
X7534Y22941D01*
X8402Y23809D01*
X8417Y23819D01*
X8436Y23824D01*
X8456Y23820D01*
X8472Y23809D01*
X8483Y23793D01*
X8488Y23782D01*
X8571Y23698D01*
X8681Y23653D01*
X8799Y23653D01*
X8909Y23698D01*
X8993Y23782D01*
X9038Y23892D01*
X9038Y24010D01*
X8993Y24119D01*
X8989Y24137D01*
X8992Y24157D01*
X9003Y24173D01*
X9019Y24185D01*
X9039Y24189D01*
X9186Y24189D01*
X9203Y24185D01*
X9220Y24175D01*
X9231Y24158D01*
X9236Y24139D01*
X9232Y24119D01*
X9190Y24018D01*
X9190Y23981D01*
X9498Y23981D01*
X9498Y24289D01*
X9460Y24289D01*
X9376Y24254D01*
X9360Y24250D01*
X9340Y24253D01*
X9323Y24264D01*
X9311Y24280D01*
X9307Y24299D01*
X9311Y24319D01*
X9322Y24335D01*
X9552Y24565D01*
X9552Y24601D01*
X9555Y24618D01*
X9565Y24635D01*
X9581Y24647D01*
X9600Y24651D01*
X9620Y24647D01*
X9637Y24637D01*
X9648Y24620D01*
X9669Y24570D01*
X9753Y24486D01*
X9862Y24440D01*
X9980Y24440D01*
X10090Y24486D01*
X10174Y24570D01*
X10219Y24679D01*
X10219Y24797D01*
X10174Y24907D01*
X10090Y24991D01*
X9980Y25036D01*
X9946Y25036D01*
X9929Y25039D01*
X9912Y25050D01*
X9901Y25066D01*
X9896Y25085D01*
X9900Y25105D01*
X9911Y25121D01*
X10340Y25550D01*
X10354Y25560D01*
X10374Y25565D01*
X10393Y25561D01*
X10410Y25550D01*
X10421Y25534D01*
X10422Y25531D01*
X10517Y25436D01*
X10641Y25385D01*
X10679Y25385D01*
X10679Y25752D01*
X11046Y25752D01*
X11046Y25790D01*
X10995Y25914D01*
X10900Y26009D01*
X10848Y26030D01*
X10833Y26040D01*
X10821Y26056D01*
X10817Y26076D01*
X10821Y26095D01*
X10832Y26112D01*
X10941Y26221D01*
X10956Y26232D01*
X10976Y26236D01*
X10995Y26232D01*
X11043Y26212D01*
X11162Y26212D01*
X11271Y26257D01*
X11355Y26341D01*
X11400Y26451D01*
X11400Y26569D01*
X11354Y26681D01*
X11350Y26699D01*
X11353Y26718D01*
X11364Y26735D01*
X11380Y26746D01*
X11400Y26750D01*
X12336Y26750D01*
X12354Y26747D01*
X12371Y26737D01*
X12382Y26720D01*
X12386Y26701D01*
X12383Y26681D01*
X12339Y26577D01*
X12339Y26540D01*
X13015Y26540D01*
X13015Y26577D01*
X12972Y26681D01*
X12968Y26699D01*
X12971Y26718D01*
X12982Y26735D01*
X12998Y26746D01*
X13018Y26750D01*
X13124Y26750D01*
X13141Y26747D01*
X13158Y26737D01*
X13170Y26720D01*
X13174Y26701D01*
X13170Y26681D01*
X13127Y26577D01*
X13127Y26540D01*
X13802Y26540D01*
X13802Y26577D01*
X13759Y26681D01*
X13755Y26699D01*
X13759Y26718D01*
X13769Y26735D01*
X13786Y26746D01*
X13805Y26750D01*
X13911Y26750D01*
X13929Y26747D01*
X13946Y26737D01*
X13957Y26720D01*
X13961Y26701D01*
X13957Y26681D01*
X13914Y26577D01*
X13914Y26540D01*
X14590Y26540D01*
X14590Y26577D01*
X14547Y26681D01*
X14543Y26699D01*
X14546Y26718D01*
X14557Y26735D01*
X14573Y26746D01*
X14593Y26750D01*
X14742Y26750D01*
X14759Y26747D01*
X14776Y26737D01*
X14788Y26720D01*
X14792Y26701D01*
X14788Y26681D01*
X14742Y26569D01*
X14742Y26451D01*
X14787Y26341D01*
X14871Y26257D01*
X14980Y26212D01*
X15099Y26212D01*
X15181Y26246D01*
X15200Y26250D01*
X17456Y26250D01*
X17475Y26246D01*
X17492Y26235D01*
X18426Y25301D01*
X18437Y25285D01*
X18441Y25265D01*
X18441Y22402D01*
X18438Y22385D01*
X18427Y22368D01*
X18411Y22356D01*
X18392Y22352D01*
X18372Y22356D01*
X18355Y22367D01*
X16551Y24171D01*
X16455Y24211D01*
X15200Y24211D01*
X15181Y24215D01*
X15099Y24249D01*
X14980Y24249D01*
X14871Y24203D01*
X14787Y24119D01*
X14742Y24010D01*
X14742Y23892D01*
X14787Y23782D01*
X14871Y23698D01*
X14980Y23653D01*
X15099Y23653D01*
X15181Y23687D01*
X15200Y23691D01*
X16275Y23691D01*
X16294Y23687D01*
X16310Y23676D01*
X20178Y19808D01*
X20189Y19793D01*
X20193Y19773D01*
X20193Y19500D01*
X20207Y19485D01*
X20218Y19469D01*
X20222Y19450D01*
X20222Y19330D01*
X20218Y19311D01*
X20207Y19294D01*
X20193Y19280D01*
X20193Y18515D01*
X20207Y18501D01*
X20218Y18485D01*
X20222Y18465D01*
X20222Y18346D01*
X20218Y18327D01*
X20207Y18310D01*
X20193Y18296D01*
X20193Y17637D01*
X20190Y17620D01*
X20179Y17603D01*
X20163Y17591D01*
X20144Y17587D01*
X20124Y17591D01*
X20108Y17602D01*
X19992Y17718D01*
X18745Y17718D01*
X18727Y17721D01*
X18710Y17732D01*
X18699Y17748D01*
X18695Y17768D01*
X18695Y19846D01*
X18384Y20157D01*
X18303Y20157D01*
X18285Y20160D01*
X18268Y20171D01*
X18257Y20188D01*
X18253Y20207D01*
X18253Y20275D01*
X18218Y20310D01*
X17827Y20310D01*
X17808Y20314D01*
X17791Y20325D01*
X17337Y20779D01*
X15899Y20779D01*
X15441Y20321D01*
X15441Y20281D01*
X15438Y20263D01*
X15427Y20246D01*
X15411Y20235D01*
X15391Y20231D01*
X15335Y20231D01*
X15300Y20196D01*
X15300Y19784D01*
X15335Y19749D01*
X15658Y19749D01*
X15677Y19745D01*
X15693Y19734D01*
X15721Y19707D01*
X15731Y19692D01*
X15735Y19673D01*
X15732Y19653D01*
X15721Y19637D01*
X15705Y19625D01*
X15685Y19621D01*
X15335Y19621D01*
X15300Y19586D01*
X15300Y19174D01*
X15335Y19139D01*
X15391Y19139D01*
X15409Y19135D01*
X15426Y19125D01*
X15437Y19108D01*
X15441Y19089D01*
X15441Y19049D01*
X15702Y18788D01*
X15879Y18788D01*
X15897Y18784D01*
X15914Y18773D01*
X16213Y18474D01*
X16223Y18458D01*
X16227Y18439D01*
X16227Y18141D01*
X16224Y18123D01*
X16213Y18107D01*
X16205Y18101D01*
X16151Y18047D01*
X16146Y18040D01*
X16130Y18029D01*
X16110Y18025D01*
X15772Y18025D01*
X15766Y18023D01*
X15617Y18023D01*
X15599Y18027D01*
X15582Y18038D01*
X15559Y18061D01*
X15548Y18077D01*
X15544Y18097D01*
X15544Y18148D01*
X15515Y18218D01*
X15462Y18271D01*
X15392Y18300D01*
X15317Y18300D01*
X15247Y18271D01*
X15193Y18218D01*
X15164Y18148D01*
X15164Y18072D01*
X15193Y18003D01*
X15223Y17973D01*
X15233Y17959D01*
X15237Y17939D01*
X15234Y17920D01*
X15223Y17903D01*
X15207Y17892D01*
X15188Y17888D01*
X14149Y17888D01*
X13939Y17677D01*
X13923Y17666D01*
X13903Y17662D01*
X13780Y17662D01*
X13745Y17627D01*
X13745Y17236D01*
X13741Y17217D01*
X13730Y17201D01*
X11662Y15132D01*
X11662Y10242D01*
X11658Y10224D01*
X11648Y10207D01*
X11631Y10196D01*
X11612Y10192D01*
X11556Y10192D01*
X11528Y10164D01*
X11512Y10153D01*
X11493Y10149D01*
X11252Y10149D01*
X11234Y10153D01*
X11217Y10163D01*
X11206Y10180D01*
X11202Y10199D01*
X11202Y10261D01*
X11167Y10296D01*
X10684Y10296D01*
X10649Y10261D01*
X10649Y9818D01*
X10684Y9783D01*
X11167Y9783D01*
X11202Y9818D01*
X11202Y9879D01*
X11205Y9897D01*
X11216Y9914D01*
X11232Y9925D01*
X11252Y9929D01*
X11471Y9929D01*
X11489Y9926D01*
X11505Y9915D01*
X11517Y9899D01*
X11521Y9879D01*
X11521Y9744D01*
X11556Y9709D01*
X11987Y9709D01*
X12023Y9744D01*
X12023Y10157D01*
X11987Y10192D01*
X11932Y10192D01*
X11914Y10195D01*
X11897Y10206D01*
X11886Y10222D01*
X11882Y10242D01*
X11882Y15020D01*
X11885Y15039D01*
X11896Y15055D01*
X13809Y16969D01*
X13825Y16979D01*
X13845Y16983D01*
X14236Y16983D01*
X14271Y17018D01*
X14271Y17618D01*
X14274Y17636D01*
X14285Y17652D01*
X14302Y17664D01*
X14321Y17668D01*
X14419Y17668D01*
X14437Y17664D01*
X14454Y17654D01*
X14465Y17637D01*
X14469Y17618D01*
X14469Y17018D01*
X14504Y16983D01*
X14960Y16983D01*
X14995Y17018D01*
X14995Y17163D01*
X14998Y17181D01*
X15009Y17198D01*
X15026Y17209D01*
X15045Y17213D01*
X15117Y17213D01*
X15136Y17209D01*
X15152Y17198D01*
X15201Y17150D01*
X15521Y17150D01*
X15538Y17147D01*
X15555Y17136D01*
X15567Y17120D01*
X15571Y17101D01*
X15568Y17081D01*
X15557Y17064D01*
X15467Y16975D01*
X15467Y16472D01*
X15663Y16276D01*
X15673Y16260D01*
X15677Y16241D01*
X15677Y16226D01*
X15674Y16208D01*
X15663Y16191D01*
X15647Y16180D01*
X15627Y16176D01*
X15483Y16176D01*
X15448Y16141D01*
X15448Y15685D01*
X15483Y15650D01*
X16092Y15650D01*
X16127Y15685D01*
X16127Y16141D01*
X16092Y16176D01*
X15947Y16176D01*
X15929Y16180D01*
X15913Y16190D01*
X15901Y16207D01*
X15897Y16226D01*
X15897Y16352D01*
X15701Y16548D01*
X15691Y16564D01*
X15687Y16584D01*
X15687Y16863D01*
X15690Y16882D01*
X15701Y16898D01*
X15803Y17000D01*
X15819Y17011D01*
X15839Y17015D01*
X16110Y17015D01*
X16128Y17011D01*
X16145Y17001D01*
X16151Y16993D01*
X16205Y16938D01*
X16212Y16934D01*
X16223Y16917D01*
X16227Y16898D01*
X16227Y16575D01*
X16270Y16533D01*
X16410Y16533D01*
X16417Y16537D01*
X16436Y16542D01*
X16456Y16538D01*
X16464Y16533D01*
X16572Y16533D01*
X16590Y16529D01*
X16607Y16518D01*
X16618Y16502D01*
X16622Y16483D01*
X16622Y16226D01*
X16619Y16208D01*
X16608Y16191D01*
X16592Y16180D01*
X16572Y16176D01*
X16428Y16176D01*
X16393Y16141D01*
X16393Y15685D01*
X16428Y15650D01*
X17032Y15650D01*
X17051Y15647D01*
X17068Y15636D01*
X17245Y15458D01*
X17256Y15442D01*
X17260Y15423D01*
X17260Y14892D01*
X17256Y14873D01*
X17245Y14857D01*
X17080Y14692D01*
X17064Y14681D01*
X17045Y14677D01*
X14562Y14677D01*
X14467Y14638D01*
X14046Y14217D01*
X14032Y14207D01*
X14012Y14202D01*
X13993Y14206D01*
X13976Y14216D01*
X13965Y14233D01*
X13961Y14252D01*
X13961Y14876D01*
X13964Y14894D01*
X13975Y14911D01*
X13991Y14922D01*
X14004Y14925D01*
X14040Y14961D01*
X14040Y15417D01*
X14005Y15452D01*
X13396Y15452D01*
X13361Y15417D01*
X13361Y14961D01*
X13398Y14925D01*
X13409Y14923D01*
X13426Y14912D01*
X13437Y14896D01*
X13441Y14876D01*
X13441Y13632D01*
X13437Y13614D01*
X13426Y13597D01*
X12693Y12864D01*
X12653Y12768D01*
X12653Y9892D01*
X12650Y9873D01*
X12639Y9857D01*
X12387Y9605D01*
X12371Y9595D01*
X12352Y9591D01*
X11857Y9591D01*
X11838Y9595D01*
X11823Y9601D01*
X11720Y9601D01*
X11684Y9586D01*
X11665Y9582D01*
X11556Y9582D01*
X11521Y9547D01*
X11521Y9424D01*
X11517Y9405D01*
X11512Y9392D01*
X11512Y9247D01*
X11508Y9229D01*
X11498Y9212D01*
X11481Y9201D01*
X11462Y9197D01*
X10872Y9197D01*
X10856Y9194D01*
X10684Y9194D01*
X10649Y9159D01*
X10649Y8715D01*
X10684Y8680D01*
X10856Y8680D01*
X10872Y8677D01*
X11823Y8677D01*
X11919Y8717D01*
X11992Y8790D01*
X12032Y8885D01*
X12032Y9021D01*
X12035Y9039D01*
X12046Y9055D01*
X12062Y9067D01*
X12082Y9071D01*
X12532Y9071D01*
X12628Y9110D01*
X13134Y9617D01*
X13173Y9712D01*
X13173Y11303D01*
X13177Y11321D01*
X13187Y11338D01*
X13204Y11349D01*
X13223Y11353D01*
X13567Y11353D01*
X13602Y11388D01*
X13602Y11997D01*
X13567Y12032D01*
X13223Y12032D01*
X13205Y12036D01*
X13189Y12047D01*
X13177Y12063D01*
X13173Y12082D01*
X13173Y12588D01*
X13177Y12607D01*
X13188Y12623D01*
X14707Y14142D01*
X14723Y14153D01*
X14742Y14157D01*
X17225Y14157D01*
X17320Y14197D01*
X17740Y14617D01*
X17780Y14712D01*
X17780Y15603D01*
X17740Y15698D01*
X17305Y16134D01*
X17209Y16173D01*
X17060Y16173D01*
X17045Y16176D01*
X16892Y16176D01*
X16874Y16180D01*
X16857Y16190D01*
X16846Y16207D01*
X16842Y16226D01*
X16842Y16483D01*
X16846Y16501D01*
X16856Y16517D01*
X16873Y16529D01*
X16892Y16533D01*
X17000Y16533D01*
X17007Y16537D01*
X17027Y16542D01*
X17046Y16538D01*
X17055Y16533D01*
X17195Y16533D01*
X17237Y16575D01*
X17237Y16898D01*
X17241Y16916D01*
X17251Y16933D01*
X17259Y16938D01*
X17314Y16993D01*
X17318Y17000D01*
X17335Y17011D01*
X17354Y17015D01*
X17677Y17015D01*
X17719Y17057D01*
X17719Y17197D01*
X17715Y17204D01*
X17710Y17224D01*
X17714Y17243D01*
X17719Y17252D01*
X17719Y17360D01*
X17723Y17378D01*
X17734Y17394D01*
X17750Y17406D01*
X17769Y17410D01*
X17931Y17410D01*
X17950Y17406D01*
X17966Y17395D01*
X18003Y17359D01*
X18072Y17330D01*
X18148Y17330D01*
X18218Y17359D01*
X18271Y17412D01*
X18294Y17467D01*
X18304Y17482D01*
X18321Y17494D01*
X18340Y17498D01*
X18346Y17498D01*
X18364Y17494D01*
X18381Y17484D01*
X18393Y17467D01*
X18396Y17448D01*
X18396Y16541D01*
X18393Y16523D01*
X18382Y16506D01*
X18073Y16197D01*
X18073Y14581D01*
X18070Y14562D01*
X18059Y14545D01*
X17229Y13715D01*
X17229Y12063D01*
X17225Y12044D01*
X17214Y12028D01*
X17198Y12017D01*
X17143Y11994D01*
X17046Y11897D01*
X16993Y11770D01*
X16993Y11632D01*
X17046Y11505D01*
X17143Y11408D01*
X17270Y11356D01*
X17407Y11356D01*
X17534Y11408D01*
X17631Y11505D01*
X17684Y11632D01*
X17684Y11770D01*
X17631Y11897D01*
X17534Y11994D01*
X17479Y12017D01*
X17464Y12027D01*
X17453Y12043D01*
X17449Y12063D01*
X17449Y13603D01*
X17452Y13622D01*
X17463Y13639D01*
X18293Y14469D01*
X18293Y15482D01*
X18296Y15499D01*
X18307Y15516D01*
X18323Y15528D01*
X18342Y15532D01*
X18362Y15528D01*
X18379Y15517D01*
X18449Y15447D01*
X18663Y15447D01*
X18663Y16206D01*
X18514Y16206D01*
X18497Y16209D01*
X18480Y16220D01*
X18468Y16236D01*
X18464Y16256D01*
X18468Y16275D01*
X18479Y16292D01*
X18616Y16430D01*
X18616Y17448D01*
X18620Y17466D01*
X18631Y17482D01*
X18647Y17494D01*
X18666Y17498D01*
X19880Y17498D01*
X19899Y17494D01*
X19915Y17483D01*
X20200Y17198D01*
X20211Y17182D01*
X20215Y17162D01*
X20215Y16955D01*
X20212Y16937D01*
X20201Y16920D01*
X20184Y16908D01*
X20165Y16905D01*
X20119Y16905D01*
X20084Y16869D01*
X20084Y16438D01*
X20119Y16403D01*
X20531Y16403D01*
X20566Y16438D01*
X20566Y16869D01*
X20531Y16905D01*
X20485Y16905D01*
X20467Y16908D01*
X20450Y16919D01*
X20439Y16935D01*
X20435Y16955D01*
X20435Y17069D01*
X20438Y17086D01*
X20448Y17103D01*
X20465Y17114D01*
X20484Y17119D01*
X20504Y17115D01*
X20520Y17104D01*
X20660Y16964D01*
X20671Y16948D01*
X20675Y16929D01*
X20675Y16177D01*
X20671Y16158D01*
X20660Y16141D01*
X20650Y16131D01*
X20650Y15513D01*
X20653Y15499D01*
X20653Y15382D01*
X20650Y15363D01*
X20639Y15346D01*
X19957Y14665D01*
X19941Y14655D01*
X19922Y14651D01*
X19359Y14651D01*
X19324Y14615D01*
X19324Y13996D01*
X19321Y13977D01*
X19310Y13961D01*
X18514Y13166D01*
X18481Y13085D01*
X18481Y11923D01*
X18477Y11904D01*
X18466Y11888D01*
X17640Y11061D01*
X17624Y11051D01*
X17605Y11047D01*
X17041Y11047D01*
X17022Y11050D01*
X17006Y11061D01*
X16179Y11888D01*
X16099Y11921D01*
X15628Y11921D01*
X15609Y11925D01*
X15592Y11936D01*
X15534Y11994D01*
X15407Y12047D01*
X15270Y12047D01*
X15136Y11991D01*
X15132Y11989D01*
X15113Y11985D01*
X14359Y11985D01*
X14340Y11988D01*
X14324Y11999D01*
X14291Y12032D01*
X13835Y12032D01*
X13800Y11997D01*
X13800Y11388D01*
X13835Y11353D01*
X14291Y11353D01*
X14326Y11388D01*
X14326Y11415D01*
X14329Y11433D01*
X14340Y11450D01*
X14356Y11461D01*
X14376Y11465D01*
X15066Y11465D01*
X15084Y11461D01*
X15101Y11450D01*
X15143Y11408D01*
X15270Y11356D01*
X15407Y11356D01*
X15534Y11408D01*
X15592Y11466D01*
X15608Y11477D01*
X15628Y11481D01*
X15943Y11481D01*
X15962Y11477D01*
X15978Y11466D01*
X16805Y10640D01*
X16885Y10607D01*
X17760Y10607D01*
X17841Y10640D01*
X18887Y11686D01*
X18921Y11767D01*
X18921Y12635D01*
X18924Y12653D01*
X18935Y12670D01*
X18951Y12681D01*
X18971Y12685D01*
X19713Y12685D01*
X19731Y12682D01*
X19748Y12671D01*
X19759Y12655D01*
X19763Y12635D01*
X19763Y12613D01*
X19798Y12578D01*
X20163Y12578D01*
X20198Y12613D01*
X20198Y12978D01*
X20163Y13013D01*
X19798Y13013D01*
X19763Y12978D01*
X19763Y12955D01*
X19759Y12937D01*
X19749Y12920D01*
X19732Y12909D01*
X19713Y12905D01*
X18997Y12905D01*
X18980Y12908D01*
X18963Y12919D01*
X18951Y12935D01*
X18947Y12954D01*
X18951Y12974D01*
X18962Y12991D01*
X19652Y13681D01*
X19668Y13692D01*
X19688Y13696D01*
X20307Y13696D01*
X20342Y13731D01*
X20342Y14294D01*
X20346Y14312D01*
X20356Y14329D01*
X21134Y15106D01*
X21173Y15202D01*
X21173Y15499D01*
X21176Y15514D01*
X21176Y15742D01*
X21180Y15761D01*
X21195Y15797D01*
X21195Y17109D01*
X21155Y17205D01*
X20786Y17574D01*
X20775Y17590D01*
X20771Y17609D01*
X20771Y18296D01*
X20757Y18310D01*
X20746Y18326D01*
X20742Y18346D01*
X20742Y18465D01*
X20746Y18484D01*
X20757Y18501D01*
X20771Y18515D01*
X20771Y19280D01*
X20757Y19294D01*
X20746Y19310D01*
X20742Y19330D01*
X20742Y19450D01*
X20746Y19468D01*
X20757Y19485D01*
X20771Y19500D01*
X20771Y20264D01*
X20736Y20299D01*
X20642Y20299D01*
X20624Y20303D01*
X20607Y20313D01*
X20596Y20330D01*
X20592Y20349D01*
X20592Y20613D01*
X20596Y20631D01*
X20607Y20648D01*
X20754Y20795D01*
X20769Y20805D01*
X20788Y20809D01*
X20808Y20806D01*
X20814Y20803D01*
X20918Y20803D01*
X21013Y20843D01*
X21087Y20916D01*
X21094Y20933D01*
X21103Y20947D01*
X21119Y20959D01*
X21139Y20964D01*
X21158Y20960D01*
X21175Y20949D01*
X21186Y20933D01*
X21202Y20893D01*
X21287Y20809D01*
X21397Y20763D01*
X21427Y20763D01*
X21427Y21363D01*
X21397Y21363D01*
X21287Y21317D01*
X21202Y21233D01*
X21186Y21193D01*
X21177Y21179D01*
X21160Y21167D01*
X21141Y21162D01*
X21121Y21166D01*
X21105Y21177D01*
X21094Y21193D01*
X21087Y21210D01*
X21013Y21283D01*
X20918Y21323D01*
X20814Y21323D01*
X20719Y21283D01*
X20646Y21210D01*
X20606Y21115D01*
X20606Y21011D01*
X20609Y21005D01*
X20613Y20987D01*
X20609Y20967D01*
X20598Y20950D01*
X20372Y20725D01*
X20372Y20471D01*
X20369Y20453D01*
X20359Y20436D01*
X20342Y20425D01*
X20323Y20421D01*
X20303Y20424D01*
X20287Y20435D01*
X18975Y21747D01*
X18965Y21762D01*
X18961Y21782D01*
X18961Y22401D01*
X18964Y22418D01*
X18974Y22435D01*
X18990Y22447D01*
X19010Y22451D01*
X19029Y22448D01*
X19046Y22437D01*
X19057Y22421D01*
X19097Y22324D01*
X19214Y22207D01*
X19366Y22144D01*
X22133Y22144D01*
X22151Y22141D01*
X22168Y22130D01*
X22179Y22114D01*
X22183Y22094D01*
X22183Y4008D01*
X22180Y3990D01*
X22169Y3974D01*
X22153Y3962D01*
X22133Y3958D01*
X17427Y3958D01*
X17410Y3961D01*
X17393Y3972D01*
X17382Y3988D01*
X17377Y4008D01*
X17381Y4027D01*
X17392Y4044D01*
X17462Y4114D01*
X17462Y4863D01*
X15215Y4863D01*
X15215Y4114D01*
X15285Y4044D01*
X15295Y4029D01*
X15300Y4010D01*
X15296Y3990D01*
X15286Y3974D01*
X15269Y3962D01*
G37*
%LPC*%
G36*
X13397Y26172D02*
X13435Y26172D01*
X13435Y26480D01*
X13127Y26480D01*
X13127Y26443D01*
X13178Y26318D01*
X13273Y26223D01*
X13397Y26172D01*
G37*
G36*
X12707Y26172D02*
X12744Y26172D01*
X12869Y26223D01*
X12964Y26318D01*
X13015Y26443D01*
X13015Y26480D01*
X12707Y26480D01*
X12707Y26172D01*
G37*
G36*
X12610Y26172D02*
X12647Y26172D01*
X12647Y26480D01*
X12339Y26480D01*
X12339Y26443D01*
X12391Y26318D01*
X12486Y26223D01*
X12610Y26172D01*
G37*
G36*
X14185Y26172D02*
X14222Y26172D01*
X14222Y26480D01*
X13914Y26480D01*
X13914Y26443D01*
X13966Y26318D01*
X14061Y26223D01*
X14185Y26172D01*
G37*
G36*
X14282Y26172D02*
X14319Y26172D01*
X14443Y26223D01*
X14538Y26318D01*
X14590Y26443D01*
X14590Y26480D01*
X14282Y26480D01*
X14282Y26172D01*
G37*
G36*
X13495Y26172D02*
X13532Y26172D01*
X13656Y26223D01*
X13751Y26318D01*
X13802Y26443D01*
X13802Y26480D01*
X13495Y26480D01*
X13495Y26172D01*
G37*
G36*
X15576Y24368D02*
X15920Y24368D01*
X16237Y24499D01*
X16479Y24742D01*
X16480Y24744D01*
X16490Y24759D01*
X16506Y24770D01*
X16525Y24775D01*
X16545Y24771D01*
X16561Y24760D01*
X16569Y24750D01*
X16795Y24524D01*
X17086Y24403D01*
X17402Y24403D01*
X17694Y24524D01*
X17917Y24747D01*
X18038Y25039D01*
X18038Y25355D01*
X17917Y25646D01*
X17694Y25870D01*
X17402Y25991D01*
X17086Y25991D01*
X16795Y25870D01*
X16580Y25656D01*
X16566Y25645D01*
X16546Y25641D01*
X16527Y25644D01*
X16510Y25655D01*
X16499Y25672D01*
X16479Y25719D01*
X16237Y25962D01*
X15920Y26093D01*
X15576Y26093D01*
X15259Y25962D01*
X15029Y25731D01*
X15014Y25721D01*
X14995Y25716D01*
X14975Y25720D01*
X14959Y25730D01*
X14947Y25747D01*
X14943Y25766D01*
X14943Y25782D01*
X14898Y25891D01*
X14814Y25975D01*
X14705Y26020D01*
X14586Y26020D01*
X14477Y25975D01*
X14393Y25891D01*
X14348Y25782D01*
X14348Y25663D01*
X14393Y25554D01*
X14477Y25470D01*
X14586Y25425D01*
X14705Y25425D01*
X14823Y25473D01*
X14840Y25477D01*
X14859Y25474D01*
X14876Y25463D01*
X14888Y25447D01*
X14892Y25428D01*
X14888Y25408D01*
X14885Y25402D01*
X14885Y25059D01*
X14888Y25053D01*
X14892Y25035D01*
X14889Y25016D01*
X14878Y24999D01*
X14862Y24988D01*
X14842Y24983D01*
X14823Y24987D01*
X14705Y25036D01*
X14586Y25036D01*
X14477Y24991D01*
X14393Y24907D01*
X14348Y24797D01*
X14348Y24679D01*
X14393Y24570D01*
X14477Y24486D01*
X14586Y24440D01*
X14705Y24440D01*
X14814Y24486D01*
X14898Y24570D01*
X14943Y24679D01*
X14943Y24694D01*
X14947Y24712D01*
X14957Y24728D01*
X14973Y24740D01*
X14993Y24744D01*
X15012Y24741D01*
X15029Y24730D01*
X15259Y24499D01*
X15576Y24368D01*
G37*
G36*
X11974Y24368D02*
X12317Y24368D01*
X12634Y24499D01*
X12732Y24597D01*
X12747Y24607D01*
X12766Y24612D01*
X12786Y24608D01*
X12803Y24597D01*
X12814Y24581D01*
X12818Y24570D01*
X12902Y24486D01*
X13012Y24440D01*
X13130Y24440D01*
X13240Y24486D01*
X13323Y24570D01*
X13369Y24679D01*
X13369Y24797D01*
X13323Y24907D01*
X13240Y24991D01*
X13130Y25036D01*
X13058Y25036D01*
X13040Y25039D01*
X13023Y25050D01*
X13012Y25066D01*
X13008Y25086D01*
X13008Y25375D01*
X13012Y25393D01*
X13022Y25409D01*
X13039Y25421D01*
X13058Y25425D01*
X13130Y25425D01*
X13240Y25470D01*
X13323Y25554D01*
X13369Y25663D01*
X13369Y25782D01*
X13323Y25891D01*
X13240Y25975D01*
X13130Y26020D01*
X13012Y26020D01*
X12902Y25975D01*
X12818Y25891D01*
X12814Y25880D01*
X12804Y25865D01*
X12788Y25853D01*
X12768Y25849D01*
X12749Y25853D01*
X12732Y25864D01*
X12634Y25962D01*
X12317Y26093D01*
X11974Y26093D01*
X11696Y25978D01*
X11677Y25974D01*
X11658Y25978D01*
X11555Y26020D01*
X11437Y26020D01*
X11327Y25975D01*
X11244Y25891D01*
X11198Y25782D01*
X11198Y25663D01*
X11244Y25554D01*
X11292Y25505D01*
X11303Y25490D01*
X11307Y25470D01*
X11303Y25451D01*
X11283Y25402D01*
X11283Y25059D01*
X11303Y25010D01*
X11307Y24992D01*
X11303Y24972D01*
X11292Y24956D01*
X11244Y24907D01*
X11198Y24797D01*
X11198Y24679D01*
X11244Y24570D01*
X11327Y24486D01*
X11437Y24440D01*
X11555Y24440D01*
X11658Y24483D01*
X11677Y24487D01*
X11696Y24483D01*
X11974Y24368D01*
G37*
G36*
X13799Y25425D02*
X13918Y25425D01*
X14027Y25470D01*
X14111Y25554D01*
X14156Y25663D01*
X14156Y25782D01*
X14111Y25891D01*
X14027Y25975D01*
X13918Y26020D01*
X13799Y26020D01*
X13690Y25975D01*
X13606Y25891D01*
X13560Y25782D01*
X13560Y25663D01*
X13606Y25554D01*
X13690Y25470D01*
X13799Y25425D01*
G37*
G36*
X5236Y24403D02*
X5552Y24403D01*
X5843Y24524D01*
X6067Y24747D01*
X6187Y25039D01*
X6187Y25355D01*
X6067Y25646D01*
X5843Y25870D01*
X5552Y25991D01*
X5236Y25991D01*
X4944Y25870D01*
X4721Y25646D01*
X4600Y25355D01*
X4600Y25039D01*
X4721Y24747D01*
X4944Y24524D01*
X5236Y24403D01*
G37*
G36*
X10739Y25385D02*
X10776Y25385D01*
X10900Y25436D01*
X10995Y25531D01*
X11046Y25655D01*
X11046Y25692D01*
X10739Y25692D01*
X10739Y25385D01*
G37*
G36*
X10371Y24768D02*
X10679Y24768D01*
X10679Y25076D01*
X10641Y25076D01*
X10517Y25025D01*
X10422Y24930D01*
X10371Y24805D01*
X10371Y24768D01*
G37*
G36*
X10739Y24768D02*
X11046Y24768D01*
X11046Y24805D01*
X10995Y24930D01*
X10900Y25025D01*
X10776Y25076D01*
X10739Y25076D01*
X10739Y24768D01*
G37*
G36*
X13799Y24440D02*
X13918Y24440D01*
X14027Y24486D01*
X14111Y24570D01*
X14156Y24679D01*
X14156Y24797D01*
X14111Y24907D01*
X14027Y24991D01*
X13918Y25036D01*
X13799Y25036D01*
X13690Y24991D01*
X13606Y24907D01*
X13560Y24797D01*
X13560Y24679D01*
X13606Y24570D01*
X13690Y24486D01*
X13799Y24440D01*
G37*
G36*
X10739Y24400D02*
X10776Y24400D01*
X10900Y24452D01*
X10995Y24547D01*
X11046Y24671D01*
X11046Y24708D01*
X10739Y24708D01*
X10739Y24400D01*
G37*
G36*
X10641Y24400D02*
X10679Y24400D01*
X10679Y24708D01*
X10371Y24708D01*
X10371Y24671D01*
X10422Y24547D01*
X10517Y24452D01*
X10641Y24400D01*
G37*
G36*
X13914Y23981D02*
X14222Y23981D01*
X14222Y24289D01*
X14185Y24289D01*
X14061Y24237D01*
X13966Y24142D01*
X13914Y24018D01*
X13914Y23981D01*
G37*
G36*
X13127Y23981D02*
X13435Y23981D01*
X13435Y24289D01*
X13397Y24289D01*
X13273Y24237D01*
X13178Y24142D01*
X13127Y24018D01*
X13127Y23981D01*
G37*
G36*
X12339Y23981D02*
X12647Y23981D01*
X12647Y24289D01*
X12610Y24289D01*
X12486Y24237D01*
X12391Y24142D01*
X12339Y24018D01*
X12339Y23981D01*
G37*
G36*
X12707Y23981D02*
X13015Y23981D01*
X13015Y24018D01*
X12964Y24142D01*
X12869Y24237D01*
X12744Y24289D01*
X12707Y24289D01*
X12707Y23981D01*
G37*
G36*
X9558Y23981D02*
X9865Y23981D01*
X9865Y24018D01*
X9814Y24142D01*
X9719Y24237D01*
X9595Y24289D01*
X9558Y24289D01*
X9558Y23981D01*
G37*
G36*
X13495Y23981D02*
X13802Y23981D01*
X13802Y24018D01*
X13751Y24142D01*
X13656Y24237D01*
X13532Y24289D01*
X13495Y24289D01*
X13495Y23981D01*
G37*
G36*
X14282Y23981D02*
X14590Y23981D01*
X14590Y24018D01*
X14538Y24142D01*
X14443Y24237D01*
X14319Y24289D01*
X14282Y24289D01*
X14282Y23981D01*
G37*
G36*
X10256Y23653D02*
X10374Y23653D01*
X10484Y23698D01*
X10567Y23782D01*
X10613Y23892D01*
X10613Y24010D01*
X10567Y24119D01*
X10484Y24203D01*
X10374Y24249D01*
X10256Y24249D01*
X10146Y24203D01*
X10063Y24119D01*
X10017Y24010D01*
X10017Y23892D01*
X10063Y23782D01*
X10146Y23698D01*
X10256Y23653D01*
G37*
G36*
X11043Y23653D02*
X11162Y23653D01*
X11271Y23698D01*
X11355Y23782D01*
X11400Y23892D01*
X11400Y24010D01*
X11355Y24119D01*
X11271Y24203D01*
X11162Y24249D01*
X11043Y24249D01*
X10934Y24203D01*
X10850Y24119D01*
X10805Y24010D01*
X10805Y23892D01*
X10850Y23782D01*
X10934Y23698D01*
X11043Y23653D01*
G37*
G36*
X14185Y23613D02*
X14222Y23613D01*
X14222Y23921D01*
X13914Y23921D01*
X13914Y23884D01*
X13966Y23759D01*
X14061Y23664D01*
X14185Y23613D01*
G37*
G36*
X14282Y23613D02*
X14319Y23613D01*
X14443Y23664D01*
X14538Y23759D01*
X14590Y23884D01*
X14590Y23921D01*
X14282Y23921D01*
X14282Y23613D01*
G37*
G36*
X12610Y23613D02*
X12647Y23613D01*
X12647Y23921D01*
X12339Y23921D01*
X12339Y23884D01*
X12391Y23759D01*
X12486Y23664D01*
X12610Y23613D01*
G37*
G36*
X9558Y23613D02*
X9595Y23613D01*
X9719Y23664D01*
X9814Y23759D01*
X9865Y23884D01*
X9865Y23921D01*
X9558Y23921D01*
X9558Y23613D01*
G37*
G36*
X9460Y23613D02*
X9498Y23613D01*
X9498Y23921D01*
X9190Y23921D01*
X9190Y23884D01*
X9241Y23759D01*
X9336Y23664D01*
X9460Y23613D01*
G37*
G36*
X12707Y23613D02*
X12744Y23613D01*
X12869Y23664D01*
X12964Y23759D01*
X13015Y23884D01*
X13015Y23921D01*
X12707Y23921D01*
X12707Y23613D01*
G37*
G36*
X13397Y23613D02*
X13435Y23613D01*
X13435Y23921D01*
X13127Y23921D01*
X13127Y23884D01*
X13178Y23759D01*
X13273Y23664D01*
X13397Y23613D01*
G37*
G36*
X13495Y23613D02*
X13532Y23613D01*
X13656Y23664D01*
X13751Y23759D01*
X13802Y23884D01*
X13802Y23921D01*
X13495Y23921D01*
X13495Y23613D01*
G37*
G36*
X21487Y21093D02*
X21757Y21093D01*
X21757Y21123D01*
X21711Y21233D01*
X21627Y21317D01*
X21516Y21363D01*
X21487Y21363D01*
X21487Y21093D01*
G37*
G36*
X9259Y20857D02*
X9520Y20857D01*
X9520Y21050D01*
X9461Y21109D01*
X9259Y21109D01*
X9259Y20857D01*
G37*
G36*
X8266Y20857D02*
X8527Y20857D01*
X8527Y21109D01*
X8325Y21109D01*
X8266Y21050D01*
X8266Y20857D01*
G37*
G36*
X7544Y20857D02*
X7805Y20857D01*
X7805Y21109D01*
X7602Y21109D01*
X7544Y21050D01*
X7544Y20857D01*
G37*
G36*
X7865Y20857D02*
X8126Y20857D01*
X8126Y21050D01*
X8067Y21109D01*
X7865Y21109D01*
X7865Y20857D01*
G37*
G36*
X21487Y20763D02*
X21516Y20763D01*
X21627Y20809D01*
X21711Y20893D01*
X21757Y21003D01*
X21757Y21033D01*
X21487Y21033D01*
X21487Y20763D01*
G37*
G36*
X3152Y20188D02*
X3413Y20188D01*
X3413Y20439D01*
X3211Y20439D01*
X3152Y20381D01*
X3152Y20188D01*
G37*
G36*
X6725Y20188D02*
X6986Y20188D01*
X6986Y20381D01*
X6927Y20439D01*
X6725Y20439D01*
X6725Y20188D01*
G37*
G36*
X21674Y19912D02*
X21973Y19912D01*
X21973Y20281D01*
X21915Y20339D01*
X21674Y20339D01*
X21674Y19912D01*
G37*
G36*
X21315Y19912D02*
X21614Y19912D01*
X21614Y20339D01*
X21373Y20339D01*
X21315Y20281D01*
X21315Y19912D01*
G37*
G36*
X21315Y18928D02*
X21973Y18928D01*
X21973Y19296D01*
X21915Y19354D01*
X21905Y19370D01*
X21900Y19389D01*
X21904Y19409D01*
X21915Y19425D01*
X21973Y19483D01*
X21973Y19852D01*
X21315Y19852D01*
X21315Y19483D01*
X21373Y19425D01*
X21383Y19410D01*
X21387Y19391D01*
X21384Y19371D01*
X21373Y19354D01*
X21315Y19296D01*
X21315Y18928D01*
G37*
G36*
X21315Y17943D02*
X21973Y17943D01*
X21973Y18312D01*
X21915Y18370D01*
X21905Y18385D01*
X21900Y18405D01*
X21904Y18424D01*
X21915Y18441D01*
X21973Y18499D01*
X21973Y18868D01*
X21315Y18868D01*
X21315Y18499D01*
X21373Y18441D01*
X21383Y18426D01*
X21387Y18406D01*
X21384Y18387D01*
X21373Y18370D01*
X21315Y18312D01*
X21315Y17943D01*
G37*
G36*
X21674Y17456D02*
X21915Y17456D01*
X21973Y17515D01*
X21973Y17883D01*
X21674Y17883D01*
X21674Y17456D01*
G37*
G36*
X21373Y17456D02*
X21614Y17456D01*
X21614Y17883D01*
X21315Y17883D01*
X21315Y17515D01*
X21373Y17456D01*
G37*
G36*
X1294Y15483D02*
X2108Y15483D01*
X2108Y15549D01*
X2083Y15575D01*
X2072Y15591D01*
X2068Y15610D01*
X2068Y17698D01*
X2033Y17733D01*
X1369Y17733D01*
X1334Y17698D01*
X1334Y15610D01*
X1330Y15591D01*
X1319Y15575D01*
X1294Y15549D01*
X1294Y15483D01*
G37*
G36*
X14374Y14926D02*
X14983Y14926D01*
X15018Y14961D01*
X15018Y15417D01*
X14983Y15452D01*
X14591Y15452D01*
X14573Y15456D01*
X14556Y15467D01*
X14458Y15565D01*
X14448Y15579D01*
X14443Y15599D01*
X14447Y15618D01*
X14457Y15635D01*
X14474Y15646D01*
X14493Y15650D01*
X14983Y15650D01*
X15018Y15685D01*
X15018Y16141D01*
X14983Y16176D01*
X14845Y16176D01*
X14827Y16180D01*
X14810Y16190D01*
X14799Y16207D01*
X14795Y16226D01*
X14795Y16395D01*
X14799Y16414D01*
X14810Y16431D01*
X14846Y16467D01*
X14875Y16537D01*
X14875Y16613D01*
X14846Y16682D01*
X14793Y16736D01*
X14723Y16765D01*
X14647Y16765D01*
X14577Y16736D01*
X14524Y16682D01*
X14495Y16613D01*
X14495Y16537D01*
X14524Y16467D01*
X14560Y16431D01*
X14571Y16415D01*
X14575Y16395D01*
X14575Y16226D01*
X14572Y16208D01*
X14561Y16191D01*
X14545Y16180D01*
X14525Y16176D01*
X14374Y16176D01*
X14339Y16141D01*
X14339Y15805D01*
X14336Y15788D01*
X14325Y15771D01*
X14309Y15759D01*
X14289Y15755D01*
X14270Y15759D01*
X14253Y15770D01*
X14055Y15968D01*
X14044Y15984D01*
X14040Y16003D01*
X14040Y16141D01*
X14005Y16176D01*
X13396Y16176D01*
X13361Y16141D01*
X13361Y15685D01*
X13396Y15650D01*
X14008Y15650D01*
X14013Y15653D01*
X14033Y15658D01*
X14052Y15654D01*
X14069Y15643D01*
X14324Y15388D01*
X14335Y15372D01*
X14339Y15352D01*
X14339Y14961D01*
X14374Y14926D01*
G37*
G36*
X19189Y15487D02*
X19645Y15487D01*
X19680Y15522D01*
X19680Y15667D01*
X19683Y15685D01*
X19694Y15702D01*
X19711Y15713D01*
X19730Y15717D01*
X19876Y15717D01*
X19894Y15713D01*
X19911Y15703D01*
X19922Y15686D01*
X19926Y15667D01*
X19926Y15522D01*
X19961Y15487D01*
X20417Y15487D01*
X20452Y15522D01*
X20452Y16131D01*
X20417Y16166D01*
X19961Y16166D01*
X19959Y16164D01*
X19945Y16154D01*
X19925Y16150D01*
X19906Y16153D01*
X19889Y16164D01*
X19878Y16180D01*
X19874Y16200D01*
X19874Y16356D01*
X19877Y16375D01*
X19888Y16391D01*
X19925Y16428D01*
X19954Y16498D01*
X19954Y16573D01*
X19925Y16643D01*
X19871Y16697D01*
X19802Y16725D01*
X19726Y16725D01*
X19656Y16697D01*
X19603Y16643D01*
X19574Y16573D01*
X19574Y16498D01*
X19603Y16428D01*
X19639Y16391D01*
X19650Y16376D01*
X19654Y16356D01*
X19654Y16216D01*
X19650Y16198D01*
X19640Y16182D01*
X19623Y16170D01*
X19604Y16166D01*
X19189Y16166D01*
X19154Y16131D01*
X19154Y15522D01*
X19189Y15487D01*
G37*
G36*
X18723Y15857D02*
X18996Y15857D01*
X18996Y16148D01*
X18938Y16206D01*
X18723Y16206D01*
X18723Y15857D01*
G37*
G36*
X18723Y15447D02*
X18938Y15447D01*
X18996Y15506D01*
X18996Y15797D01*
X18723Y15797D01*
X18723Y15447D01*
G37*
G36*
X15290Y8072D02*
X17387Y8072D01*
X17422Y8107D01*
X17422Y8560D01*
X17426Y8578D01*
X17436Y8595D01*
X17453Y8606D01*
X17472Y8610D01*
X19829Y8610D01*
X19925Y8649D01*
X21758Y10483D01*
X21798Y10578D01*
X21798Y13646D01*
X21801Y13664D01*
X21812Y13681D01*
X21828Y13692D01*
X21848Y13696D01*
X22011Y13696D01*
X22047Y13731D01*
X22047Y14615D01*
X22011Y14651D01*
X21814Y14651D01*
X21796Y14654D01*
X21779Y14665D01*
X21768Y14681D01*
X21764Y14701D01*
X21764Y15175D01*
X21767Y15194D01*
X21778Y15210D01*
X21815Y15247D01*
X21844Y15317D01*
X21844Y15392D01*
X21815Y15462D01*
X21761Y15515D01*
X21691Y15544D01*
X21616Y15544D01*
X21546Y15515D01*
X21492Y15462D01*
X21464Y15392D01*
X21464Y15317D01*
X21492Y15247D01*
X21529Y15210D01*
X21540Y15194D01*
X21544Y15175D01*
X21544Y14701D01*
X21540Y14683D01*
X21529Y14666D01*
X21513Y14655D01*
X21494Y14651D01*
X21064Y14651D01*
X21029Y14615D01*
X21029Y13731D01*
X21064Y13696D01*
X21228Y13696D01*
X21246Y13693D01*
X21263Y13682D01*
X21274Y13665D01*
X21278Y13646D01*
X21278Y10758D01*
X21274Y10740D01*
X21263Y10723D01*
X19685Y9144D01*
X19669Y9134D01*
X19649Y9130D01*
X17472Y9130D01*
X17454Y9133D01*
X17437Y9144D01*
X17426Y9160D01*
X17422Y9180D01*
X17422Y9633D01*
X17387Y9668D01*
X15290Y9668D01*
X15255Y9633D01*
X15255Y8107D01*
X15290Y8072D01*
G37*
G36*
X15483Y14926D02*
X16092Y14926D01*
X16127Y14961D01*
X16127Y15029D01*
X16130Y15047D01*
X16141Y15064D01*
X16157Y15075D01*
X16177Y15079D01*
X16343Y15079D01*
X16361Y15076D01*
X16378Y15065D01*
X16389Y15049D01*
X16393Y15029D01*
X16393Y14961D01*
X16428Y14926D01*
X17037Y14926D01*
X17072Y14961D01*
X17072Y15417D01*
X17037Y15452D01*
X16428Y15452D01*
X16393Y15417D01*
X16393Y15349D01*
X16389Y15331D01*
X16379Y15314D01*
X16362Y15303D01*
X16343Y15299D01*
X16177Y15299D01*
X16159Y15303D01*
X16142Y15313D01*
X16131Y15330D01*
X16127Y15349D01*
X16127Y15417D01*
X16092Y15452D01*
X15483Y15452D01*
X15448Y15417D01*
X15448Y14961D01*
X15483Y14926D01*
G37*
G36*
X1352Y15298D02*
X1671Y15298D01*
X1671Y15423D01*
X1294Y15423D01*
X1294Y15356D01*
X1352Y15298D01*
G37*
G36*
X1731Y15298D02*
X2049Y15298D01*
X2108Y15356D01*
X2108Y15423D01*
X1731Y15423D01*
X1731Y15298D01*
G37*
G36*
X20410Y11590D02*
X20865Y11590D01*
X20901Y11625D01*
X20901Y12234D01*
X20865Y12269D01*
X20731Y12269D01*
X20713Y12272D01*
X20696Y12283D01*
X20685Y12299D01*
X20681Y12319D01*
X20681Y12528D01*
X20684Y12546D01*
X20695Y12563D01*
X20711Y12574D01*
X20731Y12578D01*
X20753Y12578D01*
X20788Y12613D01*
X20788Y12978D01*
X20753Y13013D01*
X20389Y13013D01*
X20353Y12978D01*
X20353Y12613D01*
X20389Y12578D01*
X20411Y12578D01*
X20429Y12574D01*
X20446Y12564D01*
X20457Y12547D01*
X20461Y12528D01*
X20461Y12319D01*
X20458Y12301D01*
X20447Y12284D01*
X20430Y12273D01*
X20411Y12269D01*
X20410Y12269D01*
X20375Y12234D01*
X20375Y11625D01*
X20410Y11590D01*
G37*
G36*
X19944Y11959D02*
X20217Y11959D01*
X20217Y12250D01*
X20158Y12309D01*
X19944Y12309D01*
X19944Y11959D01*
G37*
G36*
X19611Y11959D02*
X19884Y11959D01*
X19884Y12309D01*
X19669Y12309D01*
X19611Y12250D01*
X19611Y11959D01*
G37*
G36*
X2156Y11801D02*
X2417Y11801D01*
X2417Y11994D01*
X2358Y12052D01*
X2156Y12052D01*
X2156Y11801D01*
G37*
G36*
X1835Y11801D02*
X2096Y11801D01*
X2096Y12052D01*
X1894Y12052D01*
X1835Y11994D01*
X1835Y11801D01*
G37*
G36*
X6920Y11752D02*
X7181Y11752D01*
X7181Y11945D01*
X7122Y12004D01*
X6920Y12004D01*
X6920Y11752D01*
G37*
G36*
X6599Y11752D02*
X6860Y11752D01*
X6860Y12004D01*
X6657Y12004D01*
X6599Y11945D01*
X6599Y11752D01*
G37*
G36*
X19944Y11550D02*
X20158Y11550D01*
X20217Y11608D01*
X20217Y11899D01*
X19944Y11899D01*
X19944Y11550D01*
G37*
G36*
X19669Y11550D02*
X19884Y11550D01*
X19884Y11899D01*
X19611Y11899D01*
X19611Y11608D01*
X19669Y11550D01*
G37*
G36*
X3341Y9408D02*
X3475Y9408D01*
X3598Y9459D01*
X3692Y9553D01*
X3743Y9676D01*
X3743Y9810D01*
X3714Y9879D01*
X3711Y9897D01*
X3714Y9916D01*
X3725Y9933D01*
X4460Y10668D01*
X4460Y10842D01*
X4463Y10860D01*
X4474Y10877D01*
X4491Y10888D01*
X4510Y10892D01*
X4586Y10892D01*
X4621Y10928D01*
X4621Y11340D01*
X4586Y11375D01*
X4154Y11375D01*
X4119Y11340D01*
X4119Y10928D01*
X4154Y10892D01*
X4230Y10892D01*
X4248Y10889D01*
X4265Y10878D01*
X4276Y10862D01*
X4280Y10842D01*
X4280Y10763D01*
X4276Y10744D01*
X4265Y10728D01*
X3598Y10060D01*
X3583Y10050D01*
X3563Y10046D01*
X3544Y10049D01*
X3475Y10078D01*
X3341Y10078D01*
X3218Y10027D01*
X3124Y9933D01*
X3073Y9810D01*
X3073Y9676D01*
X3124Y9553D01*
X3218Y9459D01*
X3341Y9408D01*
G37*
G36*
X7841Y8408D02*
X7975Y8408D01*
X8098Y8459D01*
X8107Y8468D01*
X8123Y8479D01*
X8143Y8483D01*
X10113Y8483D01*
X10209Y8522D01*
X10352Y8666D01*
X10368Y8676D01*
X10387Y8680D01*
X10497Y8680D01*
X10532Y8715D01*
X10532Y9159D01*
X10497Y9194D01*
X10325Y9194D01*
X10309Y9197D01*
X10202Y9197D01*
X10187Y9194D01*
X10015Y9194D01*
X9979Y9159D01*
X9979Y9053D01*
X9976Y9035D01*
X9965Y9018D01*
X9949Y9007D01*
X9929Y9003D01*
X8143Y9003D01*
X8124Y9007D01*
X8107Y9018D01*
X8098Y9027D01*
X7975Y9078D01*
X7841Y9078D01*
X7718Y9027D01*
X7624Y8933D01*
X7573Y8810D01*
X7573Y8676D01*
X7624Y8553D01*
X7718Y8459D01*
X7841Y8408D01*
G37*
G36*
X8186Y7474D02*
X8728Y7474D01*
X8728Y8016D01*
X8644Y8016D01*
X8434Y7929D01*
X8273Y7768D01*
X8186Y7558D01*
X8186Y7474D01*
G37*
G36*
X8788Y7474D02*
X9331Y7474D01*
X9331Y7558D01*
X9244Y7768D01*
X9082Y7929D01*
X8872Y8016D01*
X8788Y8016D01*
X8788Y7474D01*
G37*
G36*
X2938Y4082D02*
X3082Y4082D01*
X3215Y4137D01*
X3316Y4239D01*
X3351Y4323D01*
X3361Y4338D01*
X3378Y4350D01*
X3397Y4354D01*
X7790Y4354D01*
X7859Y4423D01*
X7873Y4433D01*
X7893Y4438D01*
X7912Y4434D01*
X7929Y4424D01*
X7940Y4407D01*
X7944Y4388D01*
X7944Y4372D01*
X7999Y4239D01*
X8101Y4137D01*
X8234Y4082D01*
X8377Y4082D01*
X8510Y4137D01*
X8612Y4239D01*
X8646Y4323D01*
X8657Y4338D01*
X8673Y4350D01*
X8693Y4354D01*
X10583Y4354D01*
X10838Y4608D01*
X10838Y4758D01*
X10841Y4776D01*
X10852Y4793D01*
X10869Y4804D01*
X10888Y4808D01*
X11052Y4808D01*
X11088Y4843D01*
X11088Y5299D01*
X11052Y5334D01*
X10444Y5334D01*
X10408Y5299D01*
X10408Y4843D01*
X10444Y4808D01*
X10608Y4808D01*
X10626Y4805D01*
X10643Y4794D01*
X10654Y4778D01*
X10658Y4758D01*
X10658Y4704D01*
X10654Y4685D01*
X10643Y4668D01*
X10523Y4548D01*
X10508Y4538D01*
X10488Y4534D01*
X8693Y4534D01*
X8674Y4537D01*
X8657Y4548D01*
X8646Y4565D01*
X8612Y4648D01*
X8600Y4659D01*
X8590Y4674D01*
X8586Y4693D01*
X8589Y4713D01*
X8600Y4730D01*
X8616Y4741D01*
X8636Y4745D01*
X9683Y4745D01*
X9732Y4793D01*
X9747Y4804D01*
X9767Y4808D01*
X10186Y4808D01*
X10221Y4843D01*
X10221Y5299D01*
X10186Y5334D01*
X9577Y5334D01*
X9542Y5299D01*
X9542Y4975D01*
X9539Y4957D01*
X9528Y4940D01*
X9512Y4929D01*
X9492Y4925D01*
X8619Y4925D01*
X8602Y4928D01*
X8585Y4938D01*
X8573Y4955D01*
X8569Y4974D01*
X8573Y4994D01*
X8584Y5010D01*
X8612Y5038D01*
X8667Y5171D01*
X8667Y5315D01*
X8616Y5437D01*
X8612Y5455D01*
X8616Y5475D01*
X8627Y5491D01*
X8740Y5604D01*
X8877Y5842D01*
X8948Y6106D01*
X8948Y6380D01*
X8877Y6644D01*
X8789Y6796D01*
X8782Y6820D01*
X8786Y6839D01*
X8796Y6856D01*
X8813Y6867D01*
X8832Y6871D01*
X8872Y6871D01*
X9082Y6958D01*
X9244Y7119D01*
X9331Y7330D01*
X9331Y7414D01*
X8186Y7414D01*
X8186Y7330D01*
X8187Y7328D01*
X8190Y7317D01*
X8189Y7297D01*
X8181Y7279D01*
X8166Y7266D01*
X8147Y7259D01*
X8127Y7260D01*
X8045Y7283D01*
X7771Y7283D01*
X7507Y7212D01*
X7269Y7075D01*
X7076Y6881D01*
X6939Y6644D01*
X6868Y6380D01*
X6868Y6106D01*
X6939Y5842D01*
X7076Y5604D01*
X7269Y5411D01*
X7507Y5274D01*
X7771Y5203D01*
X7898Y5203D01*
X7916Y5200D01*
X7933Y5189D01*
X7944Y5172D01*
X7999Y5038D01*
X8074Y4963D01*
X8084Y4948D01*
X8089Y4929D01*
X8085Y4909D01*
X8074Y4893D01*
X7730Y4548D01*
X7714Y4538D01*
X7694Y4534D01*
X3397Y4534D01*
X3379Y4537D01*
X3362Y4548D01*
X3351Y4565D01*
X3316Y4648D01*
X3215Y4750D01*
X3101Y4797D01*
X3086Y4807D01*
X3074Y4823D01*
X3070Y4842D01*
X3073Y4862D01*
X3084Y4878D01*
X3101Y4889D01*
X3215Y4937D01*
X3316Y5038D01*
X3372Y5172D01*
X3382Y5188D01*
X3399Y5199D01*
X3418Y5203D01*
X3545Y5203D01*
X3809Y5274D01*
X4046Y5411D01*
X4240Y5604D01*
X4377Y5842D01*
X4448Y6106D01*
X4448Y6380D01*
X4377Y6644D01*
X4240Y6881D01*
X4046Y7075D01*
X3809Y7212D01*
X3545Y7283D01*
X3271Y7283D01*
X3188Y7260D01*
X3177Y7259D01*
X3158Y7262D01*
X3141Y7273D01*
X3129Y7289D01*
X3125Y7308D01*
X3129Y7328D01*
X3130Y7330D01*
X3130Y7414D01*
X1985Y7414D01*
X1985Y7330D01*
X2072Y7119D01*
X2233Y6958D01*
X2444Y6871D01*
X2483Y6871D01*
X2507Y6865D01*
X2522Y6853D01*
X2531Y6835D01*
X2533Y6815D01*
X2527Y6796D01*
X2439Y6644D01*
X2368Y6380D01*
X2368Y6106D01*
X2439Y5842D01*
X2576Y5604D01*
X2689Y5491D01*
X2699Y5476D01*
X2703Y5456D01*
X2700Y5437D01*
X2649Y5315D01*
X2649Y5171D01*
X2704Y5038D01*
X2806Y4937D01*
X2920Y4889D01*
X2934Y4880D01*
X2946Y4864D01*
X2950Y4844D01*
X2947Y4825D01*
X2936Y4808D01*
X2920Y4797D01*
X2806Y4750D01*
X2704Y4648D01*
X2649Y4516D01*
X2649Y4372D01*
X2704Y4239D01*
X2806Y4137D01*
X2938Y4082D01*
G37*
G36*
X9577Y5532D02*
X10186Y5532D01*
X10221Y5567D01*
X10221Y5635D01*
X10225Y5653D01*
X10236Y5670D01*
X10252Y5681D01*
X10271Y5685D01*
X10358Y5685D01*
X10376Y5682D01*
X10393Y5671D01*
X10405Y5655D01*
X10408Y5635D01*
X10408Y5567D01*
X10444Y5532D01*
X11052Y5532D01*
X11088Y5567D01*
X11088Y6023D01*
X11052Y6058D01*
X10444Y6058D01*
X10408Y6023D01*
X10408Y5955D01*
X10405Y5937D01*
X10394Y5920D01*
X10378Y5909D01*
X10358Y5905D01*
X10271Y5905D01*
X10253Y5908D01*
X10237Y5919D01*
X10225Y5936D01*
X10221Y5955D01*
X10221Y6023D01*
X10186Y6058D01*
X10042Y6058D01*
X10024Y6061D01*
X10007Y6072D01*
X9996Y6089D01*
X9992Y6108D01*
X9992Y6553D01*
X9996Y6572D01*
X10002Y6581D01*
X10033Y6655D01*
X10033Y6731D01*
X10004Y6801D01*
X9950Y6854D01*
X9880Y6883D01*
X9805Y6883D01*
X9735Y6854D01*
X9681Y6801D01*
X9653Y6731D01*
X9653Y6655D01*
X9681Y6585D01*
X9735Y6532D01*
X9741Y6529D01*
X9757Y6519D01*
X9768Y6503D01*
X9772Y6483D01*
X9772Y6108D01*
X9769Y6090D01*
X9758Y6073D01*
X9741Y6062D01*
X9722Y6058D01*
X9577Y6058D01*
X9542Y6023D01*
X9542Y5567D01*
X9577Y5532D01*
G37*
G36*
X16369Y4923D02*
X17462Y4923D01*
X17462Y5673D01*
X17404Y5732D01*
X16369Y5732D01*
X16369Y4923D01*
G37*
G36*
X15215Y4923D02*
X16309Y4923D01*
X16309Y5732D01*
X15274Y5732D01*
X15215Y5673D01*
X15215Y4923D01*
G37*
%LPD*%
G36*
X5721Y12030D02*
X5701Y12026D01*
X5682Y12030D01*
X5665Y12041D01*
X3766Y13939D01*
X3756Y13955D01*
X3752Y13975D01*
X3752Y14433D01*
X3755Y14451D01*
X3766Y14467D01*
X3782Y14479D01*
X3802Y14483D01*
X3809Y14483D01*
X3809Y15297D01*
X3802Y15297D01*
X3784Y15300D01*
X3767Y15311D01*
X3756Y15327D01*
X3752Y15347D01*
X3752Y15386D01*
X3755Y15405D01*
X3766Y15422D01*
X4037Y15692D01*
X4051Y15702D01*
X4071Y15707D01*
X4090Y15704D01*
X4107Y15693D01*
X4118Y15677D01*
X4122Y15657D01*
X4122Y15307D01*
X4119Y15289D01*
X4108Y15272D01*
X4092Y15261D01*
X4072Y15257D01*
X3996Y15257D01*
X3977Y15261D01*
X3960Y15271D01*
X3935Y15297D01*
X3869Y15297D01*
X3869Y14483D01*
X3875Y14483D01*
X3893Y14479D01*
X3910Y14469D01*
X3921Y14452D01*
X3925Y14433D01*
X3925Y14423D01*
X4206Y14142D01*
X5860Y14142D01*
X5878Y14139D01*
X5895Y14128D01*
X5906Y14111D01*
X5910Y14092D01*
X5910Y13948D01*
X5946Y13912D01*
X6401Y13912D01*
X6436Y13948D01*
X6436Y14556D01*
X6401Y14592D01*
X5946Y14592D01*
X5910Y14556D01*
X5910Y14412D01*
X5907Y14394D01*
X5896Y14377D01*
X5880Y14366D01*
X5860Y14362D01*
X4318Y14362D01*
X4299Y14366D01*
X4283Y14377D01*
X4222Y14437D01*
X4212Y14452D01*
X4208Y14471D01*
X4211Y14491D01*
X4222Y14507D01*
X4238Y14519D01*
X4258Y14523D01*
X4509Y14523D01*
X4544Y14558D01*
X4544Y15222D01*
X4509Y15257D01*
X4392Y15257D01*
X4374Y15260D01*
X4357Y15271D01*
X4346Y15287D01*
X4342Y15307D01*
X4342Y15583D01*
X4346Y15602D01*
X4357Y15619D01*
X4460Y15722D01*
X4476Y15732D01*
X4495Y15736D01*
X4535Y15736D01*
X4553Y15733D01*
X4570Y15722D01*
X4581Y15706D01*
X4585Y15686D01*
X4585Y15680D01*
X5399Y15680D01*
X5399Y15746D01*
X5374Y15772D01*
X5363Y15787D01*
X5359Y15807D01*
X5359Y15886D01*
X5363Y15905D01*
X5374Y15921D01*
X5399Y15947D01*
X5399Y16013D01*
X4585Y16013D01*
X4585Y16006D01*
X4582Y15988D01*
X4571Y15972D01*
X4555Y15960D01*
X4535Y15956D01*
X4422Y15956D01*
X4404Y15960D01*
X4387Y15970D01*
X4376Y15986D01*
X4372Y16006D01*
X4375Y16025D01*
X4386Y16042D01*
X4460Y16116D01*
X4476Y16126D01*
X4495Y16130D01*
X4535Y16130D01*
X4553Y16127D01*
X4570Y16116D01*
X4581Y16100D01*
X4585Y16080D01*
X4585Y16073D01*
X5399Y16073D01*
X5399Y16140D01*
X5374Y16165D01*
X5363Y16181D01*
X5359Y16201D01*
X5359Y16477D01*
X5363Y16495D01*
X5374Y16512D01*
X5399Y16537D01*
X5399Y16604D01*
X4585Y16604D01*
X4585Y16537D01*
X4610Y16512D01*
X4621Y16496D01*
X4625Y16477D01*
X4625Y16400D01*
X4622Y16382D01*
X4611Y16365D01*
X4595Y16354D01*
X4575Y16350D01*
X4384Y16350D01*
X3611Y15577D01*
X3595Y15567D01*
X3575Y15563D01*
X3339Y15563D01*
X3322Y15566D01*
X3305Y15576D01*
X3293Y15593D01*
X3289Y15612D01*
X3293Y15632D01*
X3304Y15648D01*
X4540Y16884D01*
X4554Y16894D01*
X4573Y16899D01*
X4593Y16895D01*
X4610Y16885D01*
X4621Y16868D01*
X4625Y16849D01*
X4625Y16791D01*
X4621Y16772D01*
X4610Y16756D01*
X4585Y16730D01*
X4585Y16664D01*
X5399Y16664D01*
X5399Y16671D01*
X5403Y16689D01*
X5413Y16705D01*
X5430Y16717D01*
X5449Y16721D01*
X5465Y16721D01*
X5484Y16717D01*
X5501Y16706D01*
X5702Y16505D01*
X5713Y16489D01*
X5717Y16469D01*
X5717Y15191D01*
X5860Y15047D01*
X5871Y15047D01*
X5889Y15044D01*
X5906Y15033D01*
X5917Y15017D01*
X5921Y14997D01*
X5921Y14944D01*
X5956Y14909D01*
X6369Y14909D01*
X6406Y14946D01*
X6420Y14956D01*
X6439Y14961D01*
X6459Y14957D01*
X6476Y14947D01*
X6484Y14934D01*
X6550Y14869D01*
X6742Y14869D01*
X6742Y15190D01*
X7054Y15190D01*
X7054Y15392D01*
X6988Y15458D01*
X6978Y15473D01*
X6973Y15493D01*
X6977Y15512D01*
X6988Y15529D01*
X7054Y15594D01*
X7054Y15797D01*
X6742Y15797D01*
X6742Y16118D01*
X6550Y16118D01*
X6484Y16052D01*
X6477Y16042D01*
X6461Y16030D01*
X6442Y16026D01*
X6422Y16030D01*
X6406Y16041D01*
X6369Y16078D01*
X6322Y16078D01*
X6304Y16081D01*
X6288Y16092D01*
X6276Y16108D01*
X6272Y16128D01*
X6272Y16521D01*
X5459Y17334D01*
X5409Y17334D01*
X5391Y17338D01*
X5374Y17348D01*
X5363Y17365D01*
X5359Y17384D01*
X5359Y17698D01*
X5324Y17733D01*
X4660Y17733D01*
X4624Y17698D01*
X4610Y17687D01*
X4591Y17683D01*
X4571Y17686D01*
X4554Y17697D01*
X4543Y17713D01*
X4539Y17733D01*
X4539Y17823D01*
X4543Y17842D01*
X4544Y17844D01*
X4544Y18516D01*
X4542Y18520D01*
X4537Y18539D01*
X4541Y18559D01*
X4551Y18576D01*
X4568Y18587D01*
X4587Y18591D01*
X4658Y18591D01*
X4677Y18587D01*
X4693Y18576D01*
X5621Y17649D01*
X5632Y17633D01*
X5636Y17613D01*
X5636Y17408D01*
X6840Y16203D01*
X6850Y16189D01*
X6855Y16169D01*
X6852Y16150D01*
X6841Y16133D01*
X6824Y16122D01*
X6805Y16118D01*
X6802Y16118D01*
X6802Y15857D01*
X7054Y15857D01*
X7054Y15869D01*
X7057Y15886D01*
X7067Y15903D01*
X7083Y15915D01*
X7103Y15919D01*
X7122Y15915D01*
X7139Y15904D01*
X7152Y15891D01*
X8695Y15891D01*
X8713Y15888D01*
X8730Y15877D01*
X8741Y15861D01*
X8745Y15841D01*
X8745Y15785D01*
X8780Y15750D01*
X9193Y15750D01*
X9230Y15787D01*
X9244Y15797D01*
X9263Y15802D01*
X9283Y15799D01*
X9300Y15788D01*
X9308Y15775D01*
X9374Y15710D01*
X9566Y15710D01*
X9566Y16292D01*
X9374Y16292D01*
X9308Y16226D01*
X9301Y16216D01*
X9285Y16205D01*
X9266Y16200D01*
X9246Y16204D01*
X9230Y16215D01*
X9221Y16224D01*
X9210Y16239D01*
X9206Y16259D01*
X9206Y16608D01*
X9210Y16627D01*
X9221Y16644D01*
X9230Y16652D01*
X9244Y16662D01*
X9263Y16667D01*
X9283Y16664D01*
X9300Y16653D01*
X9308Y16640D01*
X9374Y16575D01*
X9566Y16575D01*
X9566Y17157D01*
X9374Y17157D01*
X9308Y17091D01*
X9301Y17081D01*
X9285Y17070D01*
X9266Y17065D01*
X9246Y17069D01*
X9230Y17080D01*
X9221Y17089D01*
X9210Y17104D01*
X9206Y17124D01*
X9206Y17459D01*
X9210Y17477D01*
X9221Y17494D01*
X9230Y17503D01*
X9244Y17513D01*
X9263Y17517D01*
X9283Y17514D01*
X9300Y17503D01*
X9308Y17491D01*
X9374Y17426D01*
X9566Y17426D01*
X9566Y18008D01*
X9374Y18008D01*
X9308Y17942D01*
X9301Y17932D01*
X9285Y17920D01*
X9266Y17916D01*
X9246Y17919D01*
X9230Y17930D01*
X9221Y17939D01*
X9210Y17955D01*
X9206Y17974D01*
X9206Y18304D01*
X9210Y18322D01*
X9221Y18339D01*
X9230Y18348D01*
X9244Y18358D01*
X9263Y18362D01*
X9283Y18359D01*
X9300Y18348D01*
X9308Y18336D01*
X9374Y18270D01*
X9566Y18270D01*
X9566Y18852D01*
X9374Y18852D01*
X9308Y18787D01*
X9301Y18776D01*
X9285Y18765D01*
X9266Y18761D01*
X9246Y18764D01*
X9230Y18775D01*
X9221Y18784D01*
X9210Y18800D01*
X9206Y18819D01*
X9206Y19187D01*
X9210Y19206D01*
X9221Y19223D01*
X9306Y19308D01*
X9322Y19319D01*
X9341Y19323D01*
X9361Y19319D01*
X9411Y19298D01*
X9487Y19298D01*
X9556Y19327D01*
X9610Y19381D01*
X9639Y19450D01*
X9639Y19526D01*
X9610Y19596D01*
X9556Y19649D01*
X9487Y19678D01*
X9411Y19678D01*
X9341Y19649D01*
X9305Y19613D01*
X9290Y19603D01*
X9100Y19412D01*
X9084Y19402D01*
X9065Y19398D01*
X9045Y19401D01*
X9029Y19412D01*
X8894Y19548D01*
X8883Y19563D01*
X8879Y19583D01*
X8879Y19749D01*
X8844Y19784D01*
X8361Y19784D01*
X8326Y19749D01*
X8326Y19306D01*
X8361Y19271D01*
X8527Y19271D01*
X8546Y19267D01*
X8563Y19256D01*
X8752Y19067D01*
X8762Y19051D01*
X8766Y19032D01*
X8766Y18819D01*
X8763Y18800D01*
X8752Y18784D01*
X8745Y18777D01*
X8745Y18346D01*
X8752Y18339D01*
X8762Y18323D01*
X8766Y18304D01*
X8766Y17974D01*
X8763Y17956D01*
X8752Y17939D01*
X8745Y17932D01*
X8745Y17501D01*
X8752Y17494D01*
X8762Y17478D01*
X8766Y17459D01*
X8766Y17124D01*
X8763Y17105D01*
X8752Y17089D01*
X8745Y17082D01*
X8745Y16650D01*
X8752Y16644D01*
X8762Y16628D01*
X8766Y16608D01*
X8766Y16259D01*
X8763Y16240D01*
X8752Y16224D01*
X8745Y16217D01*
X8745Y16161D01*
X8742Y16143D01*
X8731Y16126D01*
X8715Y16115D01*
X8695Y16111D01*
X8468Y16111D01*
X8451Y16114D01*
X8434Y16125D01*
X8422Y16141D01*
X8418Y16160D01*
X8421Y16180D01*
X8432Y16197D01*
X8460Y16224D01*
X8460Y16427D01*
X8149Y16427D01*
X8149Y16748D01*
X7956Y16748D01*
X7890Y16682D01*
X7884Y16672D01*
X7868Y16660D01*
X7848Y16656D01*
X7829Y16660D01*
X7812Y16671D01*
X7775Y16708D01*
X7771Y16708D01*
X7754Y16711D01*
X7737Y16721D01*
X7726Y16737D01*
X7721Y16757D01*
X7725Y16776D01*
X7736Y16793D01*
X7797Y16854D01*
X7797Y16878D01*
X7800Y16896D01*
X7811Y16913D01*
X7828Y16924D01*
X7847Y16928D01*
X7859Y16928D01*
X7895Y16963D01*
X7895Y17289D01*
X7885Y17303D01*
X7881Y17322D01*
X7885Y17342D01*
X7895Y17356D01*
X7895Y17682D01*
X7859Y17717D01*
X7515Y17717D01*
X7479Y17682D01*
X7479Y17357D01*
X7489Y17343D01*
X7493Y17324D01*
X7489Y17304D01*
X7479Y17289D01*
X7479Y16963D01*
X7502Y16941D01*
X7512Y16926D01*
X7517Y16906D01*
X7513Y16887D01*
X7502Y16870D01*
X7459Y16827D01*
X7459Y16758D01*
X7456Y16740D01*
X7445Y16723D01*
X7429Y16712D01*
X7409Y16708D01*
X7363Y16708D01*
X7328Y16673D01*
X7328Y16617D01*
X7324Y16599D01*
X7314Y16582D01*
X7297Y16571D01*
X7278Y16567D01*
X7035Y16567D01*
X7016Y16570D01*
X6999Y16581D01*
X6637Y16943D01*
X6627Y16959D01*
X6623Y16979D01*
X6623Y17123D01*
X6626Y17141D01*
X6637Y17158D01*
X6653Y17169D01*
X6673Y17173D01*
X6817Y17173D01*
X6852Y17208D01*
X6852Y17664D01*
X6817Y17699D01*
X6208Y17699D01*
X6173Y17664D01*
X6173Y17646D01*
X6170Y17629D01*
X6160Y17612D01*
X6143Y17601D01*
X6124Y17596D01*
X6104Y17600D01*
X6088Y17611D01*
X6030Y17669D01*
X6019Y17685D01*
X6016Y17704D01*
X6016Y18031D01*
X6020Y18052D01*
X6032Y18068D01*
X6049Y18078D01*
X6069Y18080D01*
X6127Y18076D01*
X6141Y18073D01*
X6158Y18062D01*
X6169Y18046D01*
X6173Y18027D01*
X6173Y17932D01*
X6208Y17897D01*
X6817Y17897D01*
X6852Y17932D01*
X6852Y18348D01*
X6855Y18365D01*
X6865Y18382D01*
X6898Y18417D01*
X6915Y18429D01*
X6934Y18433D01*
X7278Y18433D01*
X7296Y18430D01*
X7313Y18419D01*
X7324Y18403D01*
X7328Y18383D01*
X7328Y18327D01*
X7363Y18292D01*
X7644Y18292D01*
X7663Y18289D01*
X7679Y18278D01*
X8094Y17863D01*
X8105Y17847D01*
X8109Y17828D01*
X8109Y17767D01*
X8105Y17749D01*
X8094Y17733D01*
X8078Y17721D01*
X8059Y17717D01*
X8046Y17717D01*
X8011Y17682D01*
X8011Y17357D01*
X8020Y17343D01*
X8024Y17324D01*
X8021Y17304D01*
X8011Y17289D01*
X8011Y16963D01*
X8046Y16928D01*
X8391Y16928D01*
X8426Y16963D01*
X8426Y17289D01*
X8417Y17303D01*
X8413Y17322D01*
X8416Y17342D01*
X8426Y17356D01*
X8426Y17682D01*
X8391Y17717D01*
X8379Y17717D01*
X8360Y17721D01*
X8344Y17732D01*
X8332Y17748D01*
X8329Y17767D01*
X8329Y17939D01*
X8101Y18167D01*
X8091Y18181D01*
X8086Y18201D01*
X8090Y18220D01*
X8100Y18237D01*
X8117Y18248D01*
X8136Y18252D01*
X8149Y18252D01*
X8149Y18834D01*
X7956Y18834D01*
X7890Y18768D01*
X7884Y18758D01*
X7868Y18747D01*
X7848Y18742D01*
X7829Y18746D01*
X7812Y18757D01*
X7775Y18794D01*
X7363Y18794D01*
X7328Y18759D01*
X7328Y18703D01*
X7324Y18685D01*
X7314Y18669D01*
X7297Y18657D01*
X7278Y18653D01*
X6926Y18653D01*
X6913Y18656D01*
X6863Y18653D01*
X6861Y18653D01*
X6816Y18653D01*
X6785Y18620D01*
X6784Y18619D01*
X6747Y18582D01*
X6741Y18572D01*
X6620Y18439D01*
X6602Y18427D01*
X6583Y18423D01*
X6208Y18423D01*
X6173Y18388D01*
X6173Y18347D01*
X6168Y18326D01*
X6157Y18310D01*
X6139Y18300D01*
X6120Y18297D01*
X6117Y18298D01*
X6102Y18301D01*
X6085Y18312D01*
X5193Y19204D01*
X3498Y19204D01*
X3227Y18933D01*
X3212Y18923D01*
X3193Y18919D01*
X3173Y18922D01*
X3156Y18933D01*
X3145Y18949D01*
X3141Y18969D01*
X3141Y19272D01*
X3144Y19290D01*
X3155Y19307D01*
X3171Y19318D01*
X3190Y19322D01*
X3210Y19319D01*
X3227Y19308D01*
X3227Y19307D01*
X3659Y19307D01*
X3666Y19314D01*
X3682Y19324D01*
X3701Y19328D01*
X3841Y19328D01*
X3860Y19325D01*
X3876Y19314D01*
X3883Y19307D01*
X4315Y19307D01*
X4321Y19314D01*
X4337Y19324D01*
X4357Y19328D01*
X4506Y19328D01*
X4525Y19325D01*
X4541Y19314D01*
X4548Y19307D01*
X4980Y19307D01*
X4986Y19314D01*
X5002Y19324D01*
X5022Y19328D01*
X5166Y19328D01*
X5184Y19325D01*
X5201Y19314D01*
X5208Y19307D01*
X5639Y19307D01*
X5646Y19314D01*
X5662Y19324D01*
X5681Y19328D01*
X5793Y19328D01*
X5812Y19325D01*
X5829Y19314D01*
X5835Y19307D01*
X6267Y19307D01*
X6274Y19314D01*
X6290Y19324D01*
X6309Y19328D01*
X6437Y19328D01*
X6456Y19325D01*
X6473Y19314D01*
X6479Y19307D01*
X6911Y19307D01*
X6918Y19314D01*
X6933Y19324D01*
X6953Y19328D01*
X7613Y19328D01*
X7632Y19325D01*
X7649Y19314D01*
X7692Y19271D01*
X8174Y19271D01*
X8210Y19306D01*
X8210Y19749D01*
X8174Y19784D01*
X8105Y19784D01*
X8087Y19788D01*
X8070Y19798D01*
X8059Y19815D01*
X8055Y19834D01*
X8055Y19948D01*
X8058Y19966D01*
X8069Y19982D01*
X8085Y19994D01*
X8105Y19998D01*
X8299Y19998D01*
X8318Y19994D01*
X8335Y19983D01*
X8341Y19976D01*
X8773Y19976D01*
X8780Y19983D01*
X8795Y19994D01*
X8815Y19998D01*
X8971Y19998D01*
X8989Y19994D01*
X9006Y19983D01*
X9013Y19976D01*
X9444Y19976D01*
X9451Y19983D01*
X9467Y19994D01*
X9486Y19998D01*
X10576Y19998D01*
X10595Y19994D01*
X10612Y19983D01*
X10986Y19609D01*
X10997Y19593D01*
X11000Y19573D01*
X11000Y14606D01*
X10997Y14587D01*
X10986Y14571D01*
X9445Y13030D01*
X9429Y13019D01*
X9410Y13015D01*
X6255Y13015D01*
X6175Y12982D01*
X5855Y12662D01*
X5822Y12582D01*
X5822Y12092D01*
X5818Y12074D01*
X5808Y12058D01*
X5791Y12046D01*
X5772Y12042D01*
X5737Y12042D01*
X5736Y12041D01*
X5721Y12030D01*
G37*
%LPC*%
G36*
X9626Y18591D02*
X9878Y18591D01*
X9878Y18794D01*
X9819Y18852D01*
X9626Y18852D01*
X9626Y18591D01*
G37*
G36*
X8209Y18573D02*
X8460Y18573D01*
X8460Y18776D01*
X8402Y18834D01*
X8209Y18834D01*
X8209Y18573D01*
G37*
G36*
X9626Y18270D02*
X9819Y18270D01*
X9878Y18329D01*
X9878Y18531D01*
X9626Y18531D01*
X9626Y18270D01*
G37*
G36*
X8209Y18252D02*
X8402Y18252D01*
X8460Y18311D01*
X8460Y18513D01*
X8209Y18513D01*
X8209Y18252D01*
G37*
G36*
X9626Y17747D02*
X9878Y17747D01*
X9878Y17949D01*
X9819Y18008D01*
X9626Y18008D01*
X9626Y17747D01*
G37*
G36*
X9626Y17426D02*
X9819Y17426D01*
X9878Y17484D01*
X9878Y17687D01*
X9626Y17687D01*
X9626Y17426D01*
G37*
G36*
X9626Y16896D02*
X9878Y16896D01*
X9878Y17099D01*
X9819Y17157D01*
X9626Y17157D01*
X9626Y16896D01*
G37*
G36*
X9626Y16575D02*
X9819Y16575D01*
X9878Y16634D01*
X9878Y16836D01*
X9626Y16836D01*
X9626Y16575D01*
G37*
G36*
X8209Y16487D02*
X8460Y16487D01*
X8460Y16689D01*
X8402Y16748D01*
X8209Y16748D01*
X8209Y16487D01*
G37*
G36*
X9626Y16031D02*
X9878Y16031D01*
X9878Y16234D01*
X9819Y16292D01*
X9626Y16292D01*
X9626Y16031D01*
G37*
G36*
X9626Y15710D02*
X9819Y15710D01*
X9878Y15769D01*
X9878Y15971D01*
X9626Y15971D01*
X9626Y15710D01*
G37*
G36*
X4660Y15338D02*
X5324Y15338D01*
X5359Y15373D01*
X5359Y15492D01*
X5363Y15511D01*
X5374Y15528D01*
X5399Y15553D01*
X5399Y15620D01*
X4585Y15620D01*
X4585Y15553D01*
X4610Y15528D01*
X4621Y15512D01*
X4625Y15492D01*
X4625Y15373D01*
X4660Y15338D01*
G37*
G36*
X6802Y14869D02*
X6995Y14869D01*
X7054Y14928D01*
X7054Y15130D01*
X6802Y15130D01*
X6802Y14869D01*
G37*
G36*
X6927Y14282D02*
X7200Y14282D01*
X7200Y14573D01*
X7142Y14632D01*
X6927Y14632D01*
X6927Y14282D01*
G37*
G36*
X6594Y14282D02*
X6867Y14282D01*
X6867Y14632D01*
X6653Y14632D01*
X6594Y14573D01*
X6594Y14282D01*
G37*
G36*
X6927Y13872D02*
X7142Y13872D01*
X7200Y13931D01*
X7200Y14222D01*
X6927Y14222D01*
X6927Y13872D01*
G37*
G36*
X6653Y13872D02*
X6867Y13872D01*
X6867Y14222D01*
X6594Y14222D01*
X6594Y13931D01*
X6653Y13872D01*
G37*
%LPD*%
D10*
X2264Y14890D03*
X2461Y14890D03*
X2657Y14890D03*
X2854Y14890D03*
X3051Y14890D03*
X3248Y14890D03*
X3445Y14890D03*
X3642Y14890D03*
X3839Y14890D03*
X4035Y14890D03*
X4232Y14890D03*
X4429Y14890D03*
D11*
X4992Y15453D03*
X4992Y15650D03*
X4992Y15846D03*
X4992Y16043D03*
X4992Y16240D03*
X4992Y16437D03*
X4992Y16634D03*
X4992Y16831D03*
X4992Y17028D03*
X4992Y17224D03*
X4992Y17421D03*
X4992Y17618D03*
D10*
X4429Y18181D03*
X4232Y18181D03*
X4035Y18181D03*
X3839Y18181D03*
X3642Y18181D03*
X3445Y18181D03*
X3248Y18181D03*
X3051Y18181D03*
X2854Y18181D03*
X2657Y18181D03*
X2461Y18181D03*
X2264Y18181D03*
D11*
X1701Y17618D03*
X1701Y17421D03*
X1701Y17224D03*
X1701Y17028D03*
X1701Y16831D03*
X1701Y16634D03*
X1701Y16437D03*
X1701Y16240D03*
X1701Y16043D03*
X1701Y15846D03*
X1701Y15650D03*
X1701Y15453D03*
D12*
X1667Y13170D02*
X2007Y13170D01*
X1667Y13170D02*
X1667Y13248D01*
X2007Y13248D01*
X2007Y13170D01*
X2007Y13243D02*
X1667Y13243D01*
X1667Y12914D02*
X2007Y12914D01*
X1667Y12914D02*
X1667Y12992D01*
X2007Y12992D01*
X2007Y12914D01*
X2007Y12987D02*
X1667Y12987D01*
X1667Y12658D02*
X2007Y12658D01*
X1667Y12658D02*
X1667Y12736D01*
X2007Y12736D01*
X2007Y12658D01*
X2007Y12731D02*
X1667Y12731D01*
X2403Y12658D02*
X2743Y12658D01*
X2403Y12658D02*
X2403Y12736D01*
X2743Y12736D01*
X2743Y12658D01*
X2743Y12731D02*
X2403Y12731D01*
X2403Y12914D02*
X2743Y12914D01*
X2403Y12914D02*
X2403Y12992D01*
X2743Y12992D01*
X2743Y12914D01*
X2743Y12987D02*
X2403Y12987D01*
X2403Y13170D02*
X2743Y13170D01*
X2403Y13170D02*
X2403Y13248D01*
X2743Y13248D01*
X2743Y13170D01*
X2743Y13243D02*
X2403Y13243D01*
D13*
X9882Y5071D03*
X9882Y5795D03*
X10748Y5071D03*
X10748Y5795D03*
D14*
X7559Y25722D03*
D15*
X7953Y26510D03*
X7559Y24738D03*
X7953Y23951D03*
X8346Y25722D03*
X8740Y26510D03*
X8346Y24738D03*
X8740Y23951D03*
X9134Y25722D03*
X9528Y26510D03*
X9134Y24738D03*
X9528Y23951D03*
X9921Y25722D03*
X10315Y26510D03*
X9921Y24738D03*
X10315Y23951D03*
X10709Y25722D03*
X11102Y26510D03*
X10709Y24738D03*
X11102Y23951D03*
X11496Y25722D03*
X11496Y24738D03*
X12677Y26510D03*
X12677Y23951D03*
X13071Y25722D03*
X13465Y26510D03*
X13071Y24738D03*
X13465Y23951D03*
X13858Y25722D03*
X14252Y26510D03*
X13858Y24738D03*
X14252Y23951D03*
X14646Y25722D03*
X15039Y26510D03*
X14646Y24738D03*
X15039Y23951D03*
D16*
X3740Y11143D03*
X3740Y11753D03*
X4370Y11134D03*
X4370Y11744D03*
X2126Y11161D03*
X2126Y11771D03*
D17*
X8986Y16001D03*
X9596Y16001D03*
D16*
X4764Y19548D03*
X4764Y20158D03*
X7835Y20218D03*
X7835Y20827D03*
X4099Y19548D03*
X4099Y20158D03*
D17*
X8986Y17717D03*
X9596Y17717D03*
D16*
X5423Y19548D03*
X5423Y20158D03*
X9229Y20218D03*
X9229Y20827D03*
X6695Y19548D03*
X6695Y20158D03*
X6051Y19548D03*
X6051Y20158D03*
X8557Y20218D03*
X8557Y20827D03*
X3443Y19548D03*
X3443Y20158D03*
D18*
X8219Y17126D03*
X7687Y17126D03*
X7687Y17520D03*
X8219Y17520D03*
D17*
X7569Y16457D03*
X8179Y16457D03*
X7569Y18543D03*
X8179Y18543D03*
X6162Y15827D03*
X6772Y15827D03*
X6162Y15160D03*
X6772Y15160D03*
D19*
X8602Y19528D03*
X7933Y19528D03*
D17*
X8986Y16866D03*
X9596Y16866D03*
X8986Y18561D03*
X9596Y18561D03*
D16*
X6890Y11112D03*
X6890Y11722D03*
D13*
X2874Y11858D03*
X2874Y11134D03*
X5119Y11779D03*
X5119Y11055D03*
X8504Y11778D03*
X8504Y11054D03*
X7677Y11778D03*
X7677Y11054D03*
X6042Y11055D03*
X6042Y11779D03*
D20*
X6897Y14252D03*
X6173Y14252D03*
D13*
X6513Y17436D03*
X6513Y18160D03*
D21*
X15818Y17951D02*
X15818Y17875D01*
X15818Y17951D02*
X16122Y17951D01*
X16122Y17875D01*
X15818Y17875D01*
X15818Y17900D02*
X16122Y17900D01*
X16122Y17925D02*
X15818Y17925D01*
X15818Y17950D02*
X16122Y17950D01*
X15818Y17755D02*
X15818Y17679D01*
X15818Y17755D02*
X16122Y17755D01*
X16122Y17679D01*
X15818Y17679D01*
X15818Y17704D02*
X16122Y17704D01*
X16122Y17729D02*
X15818Y17729D01*
X15818Y17754D02*
X16122Y17754D01*
X15818Y17558D02*
X15818Y17482D01*
X15818Y17558D02*
X16122Y17558D01*
X16122Y17482D01*
X15818Y17482D01*
X15818Y17507D02*
X16122Y17507D01*
X16122Y17532D02*
X15818Y17532D01*
X15818Y17557D02*
X16122Y17557D01*
X15818Y17361D02*
X15818Y17285D01*
X15818Y17361D02*
X16122Y17361D01*
X16122Y17285D01*
X15818Y17285D01*
X15818Y17310D02*
X16122Y17310D01*
X16122Y17335D02*
X15818Y17335D01*
X15818Y17360D02*
X16122Y17360D01*
X15818Y17164D02*
X15818Y17088D01*
X15818Y17164D02*
X16122Y17164D01*
X16122Y17088D01*
X15818Y17088D01*
X15818Y17113D02*
X16122Y17113D01*
X16122Y17138D02*
X15818Y17138D01*
X15818Y17163D02*
X16122Y17163D01*
X17342Y17164D02*
X17342Y17088D01*
X17342Y17164D02*
X17646Y17164D01*
X17646Y17088D01*
X17342Y17088D01*
X17342Y17113D02*
X17646Y17113D01*
X17646Y17138D02*
X17342Y17138D01*
X17342Y17163D02*
X17646Y17163D01*
X17342Y17285D02*
X17342Y17361D01*
X17646Y17361D01*
X17646Y17285D01*
X17342Y17285D01*
X17342Y17310D02*
X17646Y17310D01*
X17646Y17335D02*
X17342Y17335D01*
X17342Y17360D02*
X17646Y17360D01*
X17342Y17482D02*
X17342Y17558D01*
X17646Y17558D01*
X17646Y17482D01*
X17342Y17482D01*
X17342Y17507D02*
X17646Y17507D01*
X17646Y17532D02*
X17342Y17532D01*
X17342Y17557D02*
X17646Y17557D01*
X17342Y17679D02*
X17342Y17755D01*
X17646Y17755D01*
X17646Y17679D01*
X17342Y17679D01*
X17342Y17704D02*
X17646Y17704D01*
X17646Y17729D02*
X17342Y17729D01*
X17342Y17754D02*
X17646Y17754D01*
X17342Y17875D02*
X17342Y17951D01*
X17646Y17951D01*
X17646Y17875D01*
X17342Y17875D01*
X17342Y17900D02*
X17646Y17900D01*
X17646Y17925D02*
X17342Y17925D01*
X17342Y17950D02*
X17646Y17950D01*
X17088Y18129D02*
X17088Y18433D01*
X17164Y18433D01*
X17164Y18129D01*
X17088Y18129D01*
X17088Y18154D02*
X17164Y18154D01*
X17164Y18179D02*
X17088Y18179D01*
X17088Y18204D02*
X17164Y18204D01*
X17164Y18229D02*
X17088Y18229D01*
X17088Y18254D02*
X17164Y18254D01*
X17164Y18279D02*
X17088Y18279D01*
X17088Y18304D02*
X17164Y18304D01*
X17164Y18329D02*
X17088Y18329D01*
X17088Y18354D02*
X17164Y18354D01*
X17164Y18379D02*
X17088Y18379D01*
X17088Y18404D02*
X17164Y18404D01*
X17164Y18429D02*
X17088Y18429D01*
X16891Y18433D02*
X16891Y18129D01*
X16891Y18433D02*
X16967Y18433D01*
X16967Y18129D01*
X16891Y18129D01*
X16891Y18154D02*
X16967Y18154D01*
X16967Y18179D02*
X16891Y18179D01*
X16891Y18204D02*
X16967Y18204D01*
X16967Y18229D02*
X16891Y18229D01*
X16891Y18254D02*
X16967Y18254D01*
X16967Y18279D02*
X16891Y18279D01*
X16891Y18304D02*
X16967Y18304D01*
X16967Y18329D02*
X16891Y18329D01*
X16891Y18354D02*
X16967Y18354D01*
X16967Y18379D02*
X16891Y18379D01*
X16891Y18404D02*
X16967Y18404D01*
X16967Y18429D02*
X16891Y18429D01*
X16694Y18433D02*
X16694Y18129D01*
X16694Y18433D02*
X16770Y18433D01*
X16770Y18129D01*
X16694Y18129D01*
X16694Y18154D02*
X16770Y18154D01*
X16770Y18179D02*
X16694Y18179D01*
X16694Y18204D02*
X16770Y18204D01*
X16770Y18229D02*
X16694Y18229D01*
X16694Y18254D02*
X16770Y18254D01*
X16770Y18279D02*
X16694Y18279D01*
X16694Y18304D02*
X16770Y18304D01*
X16770Y18329D02*
X16694Y18329D01*
X16694Y18354D02*
X16770Y18354D01*
X16770Y18379D02*
X16694Y18379D01*
X16694Y18404D02*
X16770Y18404D01*
X16770Y18429D02*
X16694Y18429D01*
X16497Y18433D02*
X16497Y18129D01*
X16497Y18433D02*
X16573Y18433D01*
X16573Y18129D01*
X16497Y18129D01*
X16497Y18154D02*
X16573Y18154D01*
X16573Y18179D02*
X16497Y18179D01*
X16497Y18204D02*
X16573Y18204D01*
X16573Y18229D02*
X16497Y18229D01*
X16497Y18254D02*
X16573Y18254D01*
X16573Y18279D02*
X16497Y18279D01*
X16497Y18304D02*
X16573Y18304D01*
X16573Y18329D02*
X16497Y18329D01*
X16497Y18354D02*
X16573Y18354D01*
X16573Y18379D02*
X16497Y18379D01*
X16497Y18404D02*
X16573Y18404D01*
X16573Y18429D02*
X16497Y18429D01*
X16301Y18433D02*
X16301Y18129D01*
X16301Y18433D02*
X16377Y18433D01*
X16377Y18129D01*
X16301Y18129D01*
X16301Y18154D02*
X16377Y18154D01*
X16377Y18179D02*
X16301Y18179D01*
X16301Y18204D02*
X16377Y18204D01*
X16377Y18229D02*
X16301Y18229D01*
X16301Y18254D02*
X16377Y18254D01*
X16377Y18279D02*
X16301Y18279D01*
X16301Y18304D02*
X16377Y18304D01*
X16377Y18329D02*
X16301Y18329D01*
X16301Y18354D02*
X16377Y18354D01*
X16377Y18379D02*
X16301Y18379D01*
X16301Y18404D02*
X16377Y18404D01*
X16377Y18429D02*
X16301Y18429D01*
X16301Y16910D02*
X16301Y16606D01*
X16301Y16910D02*
X16377Y16910D01*
X16377Y16606D01*
X16301Y16606D01*
X16301Y16631D02*
X16377Y16631D01*
X16377Y16656D02*
X16301Y16656D01*
X16301Y16681D02*
X16377Y16681D01*
X16377Y16706D02*
X16301Y16706D01*
X16301Y16731D02*
X16377Y16731D01*
X16377Y16756D02*
X16301Y16756D01*
X16301Y16781D02*
X16377Y16781D01*
X16377Y16806D02*
X16301Y16806D01*
X16301Y16831D02*
X16377Y16831D01*
X16377Y16856D02*
X16301Y16856D01*
X16301Y16881D02*
X16377Y16881D01*
X16377Y16906D02*
X16301Y16906D01*
X16497Y16910D02*
X16497Y16606D01*
X16497Y16910D02*
X16573Y16910D01*
X16573Y16606D01*
X16497Y16606D01*
X16497Y16631D02*
X16573Y16631D01*
X16573Y16656D02*
X16497Y16656D01*
X16497Y16681D02*
X16573Y16681D01*
X16573Y16706D02*
X16497Y16706D01*
X16497Y16731D02*
X16573Y16731D01*
X16573Y16756D02*
X16497Y16756D01*
X16497Y16781D02*
X16573Y16781D01*
X16573Y16806D02*
X16497Y16806D01*
X16497Y16831D02*
X16573Y16831D01*
X16573Y16856D02*
X16497Y16856D01*
X16497Y16881D02*
X16573Y16881D01*
X16573Y16906D02*
X16497Y16906D01*
X16694Y16910D02*
X16694Y16606D01*
X16694Y16910D02*
X16770Y16910D01*
X16770Y16606D01*
X16694Y16606D01*
X16694Y16631D02*
X16770Y16631D01*
X16770Y16656D02*
X16694Y16656D01*
X16694Y16681D02*
X16770Y16681D01*
X16770Y16706D02*
X16694Y16706D01*
X16694Y16731D02*
X16770Y16731D01*
X16770Y16756D02*
X16694Y16756D01*
X16694Y16781D02*
X16770Y16781D01*
X16770Y16806D02*
X16694Y16806D01*
X16694Y16831D02*
X16770Y16831D01*
X16770Y16856D02*
X16694Y16856D01*
X16694Y16881D02*
X16770Y16881D01*
X16770Y16906D02*
X16694Y16906D01*
X16891Y16910D02*
X16891Y16606D01*
X16891Y16910D02*
X16967Y16910D01*
X16967Y16606D01*
X16891Y16606D01*
X16891Y16631D02*
X16967Y16631D01*
X16967Y16656D02*
X16891Y16656D01*
X16891Y16681D02*
X16967Y16681D01*
X16967Y16706D02*
X16891Y16706D01*
X16891Y16731D02*
X16967Y16731D01*
X16967Y16756D02*
X16891Y16756D01*
X16891Y16781D02*
X16967Y16781D01*
X16967Y16806D02*
X16891Y16806D01*
X16891Y16831D02*
X16967Y16831D01*
X16967Y16856D02*
X16891Y16856D01*
X16891Y16881D02*
X16967Y16881D01*
X16967Y16906D02*
X16891Y16906D01*
X17088Y16910D02*
X17088Y16606D01*
X17088Y16910D02*
X17164Y16910D01*
X17164Y16606D01*
X17088Y16606D01*
X17088Y16631D02*
X17164Y16631D01*
X17164Y16656D02*
X17088Y16656D01*
X17088Y16681D02*
X17164Y16681D01*
X17164Y16706D02*
X17088Y16706D01*
X17088Y16731D02*
X17164Y16731D01*
X17164Y16756D02*
X17088Y16756D01*
X17088Y16781D02*
X17164Y16781D01*
X17164Y16806D02*
X17088Y16806D01*
X17088Y16831D02*
X17164Y16831D01*
X17164Y16856D02*
X17088Y16856D01*
X17088Y16881D02*
X17164Y16881D01*
X17164Y16906D02*
X17088Y16906D01*
D22*
X16732Y17520D03*
D23*
X20866Y21063D03*
X21457Y21063D03*
D24*
X2557Y7444D03*
X8758Y7444D03*
D25*
X3408Y9743D03*
X3908Y8743D03*
X4408Y9743D03*
X4908Y8743D03*
X5408Y9743D03*
X5908Y8743D03*
X7408Y9743D03*
X7908Y8743D03*
D26*
X8305Y5243D03*
X8305Y4444D03*
X3010Y5243D03*
X3010Y4444D03*
D16*
X16969Y19341D03*
X16969Y19951D03*
D13*
X16260Y20047D03*
X16260Y19323D03*
D20*
X14008Y17323D03*
X14732Y17323D03*
D13*
X13701Y15189D03*
X13701Y15913D03*
X14678Y15189D03*
X14678Y15913D03*
X15787Y15189D03*
X15787Y15913D03*
X16732Y15913D03*
X16732Y15189D03*
X17913Y19323D03*
X17913Y20047D03*
D20*
X20189Y15827D03*
X20913Y15827D03*
X18693Y15827D03*
X19417Y15827D03*
D16*
X15551Y19380D03*
X15551Y19990D03*
D27*
X15339Y11701D03*
X17339Y11701D03*
D28*
X21644Y17913D03*
X20482Y17913D03*
X21644Y18898D03*
X20482Y18898D03*
X21644Y19882D03*
X20482Y19882D03*
D17*
X20325Y16654D03*
X20935Y16654D03*
D16*
X11772Y9951D03*
X11772Y9341D03*
D29*
X19833Y14173D03*
X21538Y14173D03*
D30*
X16339Y8870D03*
X16339Y4893D03*
D20*
X13339Y11693D03*
X14063Y11693D03*
D19*
X10256Y8937D03*
X10925Y8937D03*
X10256Y10039D03*
X10925Y10039D03*
D31*
X20571Y12795D03*
X19980Y12795D03*
D20*
X20638Y11929D03*
X19914Y11929D03*
D32*
X7165Y17953D03*
X7165Y17244D03*
X6063Y18976D03*
X7047Y18976D03*
X8543Y18031D03*
X10433Y19291D03*
X10472Y18189D03*
X10472Y17283D03*
X10512Y16417D03*
X8661Y15079D03*
X10197Y15079D03*
X8661Y13465D03*
X7205Y13465D03*
X5591Y13425D03*
X4213Y13858D03*
X5433Y14843D03*
X2717Y13898D03*
X1457Y11102D03*
X1457Y10000D03*
X1457Y9055D03*
X1142Y7520D03*
X1142Y6654D03*
X1142Y5827D03*
X1142Y4843D03*
X10315Y7461D03*
X13110Y7461D03*
X11732Y7461D03*
X13110Y6063D03*
X13110Y4508D03*
X11732Y6063D03*
X11732Y4508D03*
X19488Y8031D03*
X21496Y8031D03*
X19488Y6358D03*
X21496Y6358D03*
X19488Y4606D03*
X21496Y4606D03*
X11417Y22441D03*
X13583Y22441D03*
X15551Y22441D03*
X13583Y20669D03*
X13583Y18898D03*
X11811Y18898D03*
X11811Y20669D03*
X19803Y17205D03*
X19094Y16929D03*
X18740Y15079D03*
X18740Y14134D03*
X21811Y17047D03*
X21811Y16063D03*
X15118Y10512D03*
X19016Y10551D03*
X12992Y14409D03*
X11220Y12756D03*
X11220Y10945D03*
X19449Y19488D03*
X19449Y18268D03*
X17874Y21339D03*
X20079Y21850D03*
X21732Y21850D03*
X17835Y23780D03*
X866Y14449D03*
X827Y15827D03*
X827Y17244D03*
X17126Y10280D03*
X12523Y10945D03*
X12523Y12795D03*
D33*
X3908Y8743D02*
X3068Y8743D01*
X2756Y9055D01*
X2756Y10159D01*
X3740Y11143D01*
X4370Y10705D02*
X3408Y9743D01*
X4370Y10705D02*
X4370Y11134D01*
X3543Y12372D02*
X3543Y13189D01*
X3543Y13583D01*
X3068Y14058D01*
X3068Y14370D01*
X3051Y14387D02*
X3051Y14890D01*
X3051Y14387D02*
X3068Y14370D01*
X3543Y13189D02*
X2593Y13189D01*
X2573Y13209D01*
X3543Y12372D02*
X3824Y12092D01*
X3740Y12008D02*
X3740Y11811D01*
X3740Y11753D01*
X3740Y12008D02*
X3824Y12092D01*
X3693Y11858D02*
X2874Y11858D01*
X3693Y11858D02*
X3740Y11811D01*
X3703Y12438D02*
X3703Y12992D01*
X3703Y13649D01*
X3228Y14124D01*
X3228Y14370D01*
X3248Y14390D02*
X3248Y14890D01*
X3248Y14390D02*
X3228Y14370D01*
X3703Y12992D02*
X4134Y12992D01*
D32*
X4134Y12992D03*
D33*
X3051Y12697D02*
X2573Y12697D01*
X3051Y12697D02*
X3071Y12717D01*
D32*
X3071Y12717D03*
D33*
X3703Y12438D02*
X3937Y12205D01*
X4370Y11805D02*
X4370Y11744D01*
X4370Y11805D02*
X3970Y12205D01*
X3937Y12205D01*
X4395Y11779D02*
X5119Y11779D01*
X4395Y11779D02*
X4370Y11805D01*
X2264Y14638D02*
X824Y13198D01*
X2264Y14638D02*
X2264Y14890D01*
X824Y13198D02*
X824Y12402D01*
X1817Y13189D02*
X1837Y13209D01*
X1817Y13189D02*
X1575Y13189D01*
X1378Y12992D01*
X1378Y12402D01*
D32*
X1378Y12402D03*
X564Y12402D03*
D33*
X824Y12402D01*
X5194Y8029D02*
X5908Y8743D01*
X5194Y8029D02*
X1784Y8029D01*
X824Y8989D01*
X824Y12402D01*
X5906Y8858D02*
X5906Y8745D01*
X5908Y8743D01*
X5906Y8858D02*
X7283Y10236D01*
X8427Y11054D02*
X8504Y11054D01*
X8427Y11054D02*
X7610Y10236D01*
X7283Y10236D01*
X984Y11811D02*
X984Y12992D01*
X2461Y14469D01*
X2461Y14890D01*
X1378Y11811D02*
X984Y11811D01*
X1378Y11811D02*
X1837Y12270D01*
X1837Y12697D01*
X4908Y8743D02*
X4354Y8189D01*
X1850Y8189D01*
X984Y9055D01*
X984Y11811D01*
X4908Y8743D02*
X5417Y9252D01*
X5709Y9252D01*
X6813Y10356D01*
X7601Y11054D02*
X7677Y11054D01*
X7601Y11054D02*
X6903Y10356D01*
X6813Y10356D01*
D34*
X8986Y19144D02*
X8602Y19528D01*
X8986Y19144D02*
X8986Y18561D01*
X8986Y17717D01*
X8986Y16866D01*
X8986Y16001D01*
D35*
X3839Y18181D02*
X3839Y18602D01*
X3937Y18701D01*
X4724Y18701D01*
X5746Y17680D01*
X7198Y16001D02*
X8986Y16001D01*
X5746Y17453D02*
X5746Y17680D01*
X5746Y17453D02*
X7198Y16001D01*
X8986Y19144D02*
X9331Y19488D01*
X9449Y19488D01*
D32*
X9449Y19488D03*
D34*
X8557Y20218D02*
X7835Y20218D01*
X8557Y20218D02*
X9229Y20218D01*
X4099Y19548D02*
X3443Y19548D01*
X4099Y19548D02*
X4764Y19548D01*
X5423Y19548D01*
X6051Y19548D01*
X6695Y19548D01*
X7912Y19548D01*
X7933Y19528D01*
X7835Y19626D01*
X7835Y20218D01*
X9229Y20218D02*
X10688Y20218D01*
X11220Y19685D01*
X11220Y14494D01*
X6042Y12538D02*
X6042Y11779D01*
X6042Y12538D02*
X6299Y12795D01*
X9521Y12795D01*
X11220Y14494D01*
X9521Y12795D02*
X8504Y11778D01*
X7677Y11778D01*
D35*
X2854Y14890D02*
X2854Y15354D01*
X2953Y15453D02*
X4528Y17028D01*
X4992Y17028D01*
X4232Y15650D02*
X4232Y14890D01*
X4232Y15650D02*
X4429Y15846D01*
X4992Y15846D01*
X4232Y15650D02*
X4232Y16043D01*
X4429Y16240D01*
X4992Y16240D01*
X3642Y15453D02*
X3642Y14890D01*
X3642Y15453D02*
X4232Y16043D01*
X2953Y15453D02*
X2854Y15354D01*
X2953Y15453D02*
X3642Y15453D01*
X6010Y11811D02*
X6042Y11779D01*
X6010Y11811D02*
X5739Y11811D01*
X3642Y13909D01*
X3642Y14890D01*
X8504Y11778D02*
X9416Y11778D01*
X9449Y11811D01*
D32*
X9449Y11811D03*
X9843Y6693D03*
D35*
X9882Y6654D01*
X9882Y5795D01*
X10748Y5795D01*
D33*
X10546Y4444D02*
X8305Y4444D01*
X10546Y4444D02*
X10748Y4646D01*
X10748Y5071D01*
X7752Y4444D02*
X3010Y4444D01*
X7752Y4444D02*
X8143Y4835D01*
X9646Y4835D02*
X9882Y5071D01*
X9646Y4835D02*
X8143Y4835D01*
D35*
X4035Y17421D02*
X4035Y18181D01*
X4035Y17421D02*
X3937Y17323D01*
D32*
X3937Y17286D03*
D35*
X3937Y17323D01*
X4429Y17618D02*
X4429Y18181D01*
X4429Y17618D02*
X4331Y17520D01*
D32*
X4331Y17520D03*
D33*
X2874Y11134D02*
X2874Y11024D01*
X2224Y11063D02*
X2214Y11073D01*
X2126Y11161D01*
X2808Y11200D02*
X2874Y11134D01*
X4408Y9743D02*
X4408Y8726D01*
X4059Y8378D01*
X3236Y8378D01*
X2165Y9449D01*
X2165Y11024D01*
X2214Y11073D01*
X2126Y11161D02*
X2847Y11161D01*
X2874Y11134D01*
X4408Y9920D02*
X4408Y9743D01*
X4408Y9920D02*
X5119Y10631D01*
X5119Y11055D01*
X6042Y11055D02*
X6042Y10377D01*
X5408Y9743D01*
X6042Y11055D02*
X6130Y11112D01*
X6890Y11112D01*
D35*
X3248Y18181D02*
X3248Y18210D01*
X6513Y18160D02*
X6864Y18543D01*
X7569Y18543D01*
X8219Y17894D01*
X8219Y17520D01*
X3248Y18181D02*
X3248Y18799D01*
X3543Y19094D01*
X6050Y18192D02*
X6513Y18160D01*
X5148Y19094D02*
X3543Y19094D01*
X5148Y19094D02*
X6050Y18192D01*
X6142Y17402D02*
X6510Y17402D01*
X6513Y17436D01*
X6513Y16912D01*
X6969Y16457D01*
X7569Y16457D01*
X7569Y16782D01*
X7687Y16900D01*
X7687Y17126D01*
X6142Y17402D02*
X5906Y17638D01*
X5906Y18110D01*
X5118Y18898D01*
X3740Y18898D01*
X3445Y18602D01*
X3445Y18181D01*
X4992Y16831D02*
X5531Y16831D01*
X5827Y16535D01*
X5827Y15236D01*
X5906Y15157D01*
X6160Y15157D01*
X6162Y15160D01*
X5413Y17224D02*
X4992Y17224D01*
X5413Y17224D02*
X6162Y16475D01*
X6162Y15827D01*
X4035Y14890D02*
X4035Y14469D01*
X4252Y14252D01*
X6173Y14252D01*
D32*
X1912Y18841D03*
D33*
X2264Y18490D02*
X2264Y18181D01*
X2264Y18490D02*
X1912Y18841D01*
X2461Y18799D02*
X2461Y18181D01*
X2461Y18799D02*
X2165Y19094D01*
D32*
X2165Y19094D03*
D33*
X2657Y19193D02*
X2657Y18181D01*
X2657Y19193D02*
X2480Y19370D01*
X2480Y19409D01*
D32*
X2480Y19409D03*
D33*
X8281Y26050D02*
X8740Y26510D01*
X8281Y26050D02*
X8211Y26050D01*
X2242Y20029D02*
X2480Y19791D01*
X2480Y19409D01*
X7834Y25395D02*
X7887Y25447D01*
X7834Y25395D02*
X7508Y25395D01*
X2242Y20128D01*
X2242Y20029D01*
X7887Y25726D02*
X8211Y26050D01*
X7887Y25726D02*
X7887Y25447D01*
X2854Y19587D02*
X2854Y18181D01*
X2854Y19587D02*
X2756Y19685D01*
D32*
X2756Y19685D03*
D33*
X2362Y20079D01*
X7558Y25275D01*
X7884Y25275D01*
X8332Y25722D02*
X8346Y25722D01*
X8332Y25722D02*
X7884Y25275D01*
X3051Y19783D02*
X3051Y18181D01*
X3051Y19783D02*
X2756Y20079D01*
D32*
X2756Y20079D03*
D33*
X10643Y26050D02*
X11102Y26510D01*
X10643Y26050D02*
X10573Y26050D01*
X8604Y24279D02*
X8412Y24087D01*
X9462Y24602D02*
X9462Y24799D01*
X8412Y24087D02*
X8412Y23947D01*
X7497Y23031D01*
X5512Y23031D01*
X9462Y24799D02*
X10249Y25587D01*
X10249Y25726D02*
X10573Y26050D01*
X10249Y25726D02*
X10249Y25587D01*
X9462Y24602D02*
X9138Y24279D01*
X8604Y24279D01*
X5512Y23031D02*
X2756Y20276D01*
X2756Y20079D01*
D36*
X15039Y26510D02*
X17585Y26510D01*
X18701Y25394D01*
X18701Y21654D01*
X20472Y19882D01*
X20482Y19882D01*
X16404Y23951D02*
X15039Y23951D01*
X16404Y23951D02*
X18701Y21654D01*
X20482Y19882D02*
X20482Y18898D01*
X20482Y17913D01*
X20482Y17510D01*
X20935Y17057D01*
X20935Y16654D01*
X20935Y15848D01*
X20913Y15827D01*
X20913Y15253D01*
X19833Y14173D01*
D34*
X18701Y13041D01*
X18701Y12795D01*
X18701Y11811D01*
X17717Y10827D01*
X16929Y10827D01*
X16055Y11701D01*
X15339Y11701D01*
D36*
X15315Y11725D01*
D35*
X18701Y12795D02*
X19980Y12795D01*
X20482Y19882D02*
X20482Y20679D01*
X20866Y21063D01*
D36*
X14095Y11725D02*
X14063Y11693D01*
X14095Y11725D02*
X15315Y11725D01*
D35*
X16732Y15913D02*
X16732Y16758D01*
D36*
X11772Y8937D02*
X10925Y8937D01*
X11772Y8937D02*
X11772Y9341D01*
X13701Y13504D02*
X13701Y15189D01*
D35*
X16732Y15913D02*
X16764Y15945D01*
D36*
X16732Y15913D02*
X17158Y15913D01*
X17520Y15551D01*
X17520Y14764D01*
X17173Y14417D01*
X14614Y14417D02*
X13701Y13504D01*
X12913Y12717D01*
X11772Y9341D02*
X11782Y9331D01*
X12480Y9331D01*
X12913Y9764D01*
X12913Y11614D01*
X12913Y12717D01*
X14614Y14417D02*
X17173Y14417D01*
X12992Y11693D02*
X12913Y11614D01*
X12992Y11693D02*
X13339Y11693D01*
D35*
X15970Y17717D02*
X16535Y17717D01*
X16634Y17618D01*
X16732Y17520D01*
X17126Y17323D02*
X17494Y17323D01*
X17126Y17323D02*
X16929Y17323D01*
X16732Y17520D01*
X17126Y17323D02*
X17126Y16758D01*
X16929Y16758D02*
X16929Y17323D01*
X16535Y17323D02*
X16535Y16758D01*
X16535Y17323D02*
X16535Y17520D01*
X16634Y17618D01*
X16339Y17126D02*
X16339Y16758D01*
X16339Y17126D02*
X16535Y17323D01*
X14008Y17323D02*
X14008Y17591D01*
X16929Y17913D02*
X17494Y17913D01*
X16929Y17913D02*
X16634Y17618D01*
X11683Y10039D02*
X10925Y10039D01*
X11683Y10039D02*
X11772Y9951D01*
X11772Y15086D01*
X14008Y17323D01*
X15522Y17717D02*
X15970Y17717D01*
X15522Y17717D02*
X15461Y17778D01*
X14195Y17778D01*
X14008Y17591D01*
X15524Y17323D02*
X15970Y17323D01*
X15461Y17260D02*
X15246Y17260D01*
X15183Y17323D01*
X14732Y17323D01*
X15461Y17260D02*
X15524Y17323D01*
X16969Y18966D02*
X16969Y19341D01*
X16732Y18730D02*
X16732Y18281D01*
X16732Y18730D02*
X16969Y18966D01*
X16872Y20047D02*
X16260Y20047D01*
X16872Y20047D02*
X16969Y19951D01*
X16535Y18701D02*
X16535Y18281D01*
X16535Y18701D02*
X16260Y18976D01*
X16260Y19323D01*
X15593Y19990D01*
X15551Y19990D01*
X15551Y20276D01*
X15945Y20669D01*
X17291Y20669D01*
X17913Y20047D01*
X18339Y20047D01*
X18585Y19801D01*
X20325Y17229D02*
X20325Y16654D01*
X18585Y17608D02*
X18585Y19801D01*
X19946Y17608D02*
X20325Y17229D01*
X18217Y17779D02*
X18003Y17779D01*
X18585Y17608D02*
X19946Y17608D01*
X18506Y17608D02*
X18388Y17608D01*
X18217Y17779D01*
X18003Y17779D02*
X17941Y17717D01*
X17494Y17717D01*
X18506Y17608D02*
X18506Y16475D01*
X18183Y16152D01*
X18183Y14514D01*
X17339Y13670D01*
X17339Y11701D01*
X18506Y17608D02*
X18585Y17608D01*
X15970Y17913D02*
X15551Y17913D01*
X15354Y18110D01*
D32*
X15354Y18110D03*
X14685Y16575D03*
D35*
X14685Y15920D01*
X14678Y15913D01*
X13954Y15913D02*
X13701Y15913D01*
X13954Y15913D02*
X14678Y15189D01*
X15787Y15189D02*
X16732Y15189D01*
X15787Y15913D02*
X15787Y16307D01*
X15577Y16518D01*
X15774Y17126D02*
X15970Y17126D01*
X15774Y17126D02*
X15577Y16929D01*
X15577Y16518D01*
X16339Y18281D02*
X16339Y18504D01*
X15945Y18898D01*
X15748Y18898D01*
X15551Y19094D01*
X15551Y19380D01*
X17126Y18504D02*
X17126Y18281D01*
X17126Y18504D02*
X17323Y18701D01*
X17717Y18701D01*
X17913Y18898D01*
X17913Y19323D01*
X17717Y18701D02*
X18110Y18307D01*
X15970Y17520D02*
X15354Y17520D01*
D32*
X18110Y18037D03*
D35*
X18110Y18307D01*
D32*
X15353Y17519D03*
D35*
X15354Y17520D01*
X19417Y15827D02*
X19764Y15827D01*
X20189Y15827D01*
D32*
X17368Y19094D03*
D35*
X16929Y18655D02*
X16929Y18281D01*
X16929Y18655D02*
X17368Y19094D01*
D32*
X19764Y16535D03*
D35*
X19764Y15827D01*
D36*
X21538Y14173D02*
X21538Y10630D01*
X19778Y8870D01*
X16339Y8870D01*
D35*
X21538Y14173D02*
X21654Y14289D01*
X21654Y15354D01*
D32*
X21654Y15354D03*
X18110Y17520D03*
D35*
X17494Y17520D01*
D36*
X10062Y8743D02*
X7908Y8743D01*
X10062Y8743D02*
X10256Y8937D01*
D35*
X7704Y10039D02*
X7408Y9743D01*
X7704Y10039D02*
X10256Y10039D01*
X20571Y11996D02*
X20571Y12795D01*
X20571Y11996D02*
X20638Y11929D01*
M02*
