G04 EAGLE Gerber RS-274X export*
G75*
%MOIN*%
%FSLAX34Y34*%
%LPD*%
%INSoldermask Top*%
%IPPOS*%
%AMOC8*
5,1,8,0,0,1.08239X$1,22.5*%
G01*
G04 Define Apertures*
%ADD10C,0.086740*%
%ADD11R,0.019024X0.069417*%
%ADD12R,0.069417X0.019024*%
%ADD13C,0.015647*%
%ADD14R,0.063913X0.048598*%
%ADD15R,0.055559X0.055559*%
%ADD16C,0.055559*%
%ADD17C,0.100520*%
%ADD18R,0.046197X0.044256*%
%ADD19R,0.044256X0.046197*%
%ADD20R,0.037528X0.035559*%
%ADD21R,0.051307X0.047370*%
%ADD22R,0.048598X0.063913*%
%ADD23C,0.010577*%
%ADD24R,0.110362X0.110362*%
%ADD25C,0.048000*%
%ADD26C,0.102488*%
%ADD27C,0.063039*%
%ADD28C,0.068236*%
%ADD29C,0.135953*%
%ADD30C,0.065087*%
%ADD31R,0.053850X0.079469*%
%ADD32R,0.097764X0.091465*%
%ADD33R,0.212724X0.155638*%
%ADD34R,0.039496X0.039496*%
%ADD35C,0.034000*%
D10*
X17244Y25197D03*
X5394Y25197D03*
D11*
X2264Y14890D03*
X2461Y14890D03*
X2657Y14890D03*
X2854Y14890D03*
X3051Y14890D03*
X3248Y14890D03*
X3445Y14890D03*
X3642Y14890D03*
X3839Y14890D03*
X4035Y14890D03*
X4232Y14890D03*
X4429Y14890D03*
D12*
X4992Y15453D03*
X4992Y15650D03*
X4992Y15846D03*
X4992Y16043D03*
X4992Y16240D03*
X4992Y16437D03*
X4992Y16634D03*
X4992Y16831D03*
X4992Y17028D03*
X4992Y17224D03*
X4992Y17421D03*
X4992Y17618D03*
D11*
X4429Y18181D03*
X4232Y18181D03*
X4035Y18181D03*
X3839Y18181D03*
X3642Y18181D03*
X3445Y18181D03*
X3248Y18181D03*
X3051Y18181D03*
X2854Y18181D03*
X2657Y18181D03*
X2461Y18181D03*
X2264Y18181D03*
D12*
X1701Y17618D03*
X1701Y17421D03*
X1701Y17224D03*
X1701Y17028D03*
X1701Y16831D03*
X1701Y16634D03*
X1701Y16437D03*
X1701Y16240D03*
X1701Y16043D03*
X1701Y15846D03*
X1701Y15650D03*
X1701Y15453D03*
D13*
X1667Y13170D02*
X2007Y13170D01*
X1667Y13170D02*
X1667Y13248D01*
X2007Y13248D01*
X2007Y13170D01*
X2007Y12914D02*
X1667Y12914D01*
X1667Y12992D01*
X2007Y12992D01*
X2007Y12914D01*
X2007Y12658D02*
X1667Y12658D01*
X1667Y12736D01*
X2007Y12736D01*
X2007Y12658D01*
X2403Y12658D02*
X2743Y12658D01*
X2403Y12658D02*
X2403Y12736D01*
X2743Y12736D01*
X2743Y12658D01*
X2743Y12914D02*
X2403Y12914D01*
X2403Y12992D01*
X2743Y12992D01*
X2743Y12914D01*
X2743Y13170D02*
X2403Y13170D01*
X2403Y13248D01*
X2743Y13248D01*
X2743Y13170D01*
D14*
X9882Y5071D03*
X9882Y5795D03*
X10748Y5071D03*
X10748Y5795D03*
D15*
X7559Y25722D03*
D16*
X7953Y26510D03*
X7559Y24738D03*
X7953Y23951D03*
X8346Y25722D03*
X8740Y26510D03*
X8346Y24738D03*
X8740Y23951D03*
X9134Y25722D03*
X9528Y26510D03*
X9134Y24738D03*
X9528Y23951D03*
X9921Y25722D03*
X10315Y26510D03*
X9921Y24738D03*
X10315Y23951D03*
X10709Y25722D03*
X11102Y26510D03*
X10709Y24738D03*
X11102Y23951D03*
X11496Y25722D03*
X11496Y24738D03*
X12677Y26510D03*
X12677Y23951D03*
X13071Y25722D03*
X13465Y26510D03*
X13071Y24738D03*
X13465Y23951D03*
X13858Y25722D03*
X14252Y26510D03*
X13858Y24738D03*
X14252Y23951D03*
X14646Y25722D03*
X15039Y26510D03*
X14646Y24738D03*
X15039Y23951D03*
D17*
X12146Y25230D03*
X15748Y25230D03*
D18*
X3740Y11143D03*
X3740Y11753D03*
X4370Y11134D03*
X4370Y11744D03*
X2126Y11161D03*
X2126Y11771D03*
D19*
X8986Y16001D03*
X9596Y16001D03*
D18*
X4764Y19548D03*
X4764Y20158D03*
X7835Y20218D03*
X7835Y20827D03*
X4099Y19548D03*
X4099Y20158D03*
D19*
X8986Y17717D03*
X9596Y17717D03*
D18*
X5423Y19548D03*
X5423Y20158D03*
X9229Y20218D03*
X9229Y20827D03*
X6695Y19548D03*
X6695Y20158D03*
X6051Y19548D03*
X6051Y20158D03*
X8557Y20218D03*
X8557Y20827D03*
X3443Y19548D03*
X3443Y20158D03*
D20*
X8219Y17126D03*
X7687Y17126D03*
X7687Y17520D03*
X8219Y17520D03*
D19*
X7569Y16457D03*
X8179Y16457D03*
X7569Y18543D03*
X8179Y18543D03*
X6162Y15827D03*
X6772Y15827D03*
X6162Y15160D03*
X6772Y15160D03*
D21*
X8602Y19528D03*
X7933Y19528D03*
D19*
X8986Y16866D03*
X9596Y16866D03*
X8986Y18561D03*
X9596Y18561D03*
D18*
X6890Y11112D03*
X6890Y11722D03*
D14*
X2874Y11858D03*
X2874Y11134D03*
X5119Y11779D03*
X5119Y11055D03*
X8504Y11778D03*
X8504Y11054D03*
X7677Y11778D03*
X7677Y11054D03*
X6042Y11055D03*
X6042Y11779D03*
D22*
X6897Y14252D03*
X6173Y14252D03*
D14*
X6513Y17436D03*
X6513Y18160D03*
D23*
X15818Y17951D02*
X15818Y17875D01*
X15818Y17951D02*
X16122Y17951D01*
X16122Y17875D01*
X15818Y17875D01*
X15818Y17755D02*
X15818Y17679D01*
X15818Y17755D02*
X16122Y17755D01*
X16122Y17679D01*
X15818Y17679D01*
X15818Y17558D02*
X15818Y17482D01*
X15818Y17558D02*
X16122Y17558D01*
X16122Y17482D01*
X15818Y17482D01*
X15818Y17361D02*
X15818Y17285D01*
X15818Y17361D02*
X16122Y17361D01*
X16122Y17285D01*
X15818Y17285D01*
X15818Y17164D02*
X15818Y17088D01*
X15818Y17164D02*
X16122Y17164D01*
X16122Y17088D01*
X15818Y17088D01*
X17342Y17088D02*
X17342Y17164D01*
X17646Y17164D01*
X17646Y17088D01*
X17342Y17088D01*
X17342Y17285D02*
X17342Y17361D01*
X17646Y17361D01*
X17646Y17285D01*
X17342Y17285D01*
X17342Y17482D02*
X17342Y17558D01*
X17646Y17558D01*
X17646Y17482D01*
X17342Y17482D01*
X17342Y17679D02*
X17342Y17755D01*
X17646Y17755D01*
X17646Y17679D01*
X17342Y17679D01*
X17342Y17875D02*
X17342Y17951D01*
X17646Y17951D01*
X17646Y17875D01*
X17342Y17875D01*
X17088Y18129D02*
X17088Y18433D01*
X17164Y18433D01*
X17164Y18129D01*
X17088Y18129D01*
X17088Y18230D02*
X17164Y18230D01*
X17164Y18331D02*
X17088Y18331D01*
X17088Y18432D02*
X17164Y18432D01*
X16891Y18433D02*
X16891Y18129D01*
X16891Y18433D02*
X16967Y18433D01*
X16967Y18129D01*
X16891Y18129D01*
X16891Y18230D02*
X16967Y18230D01*
X16967Y18331D02*
X16891Y18331D01*
X16891Y18432D02*
X16967Y18432D01*
X16694Y18433D02*
X16694Y18129D01*
X16694Y18433D02*
X16770Y18433D01*
X16770Y18129D01*
X16694Y18129D01*
X16694Y18230D02*
X16770Y18230D01*
X16770Y18331D02*
X16694Y18331D01*
X16694Y18432D02*
X16770Y18432D01*
X16497Y18433D02*
X16497Y18129D01*
X16497Y18433D02*
X16573Y18433D01*
X16573Y18129D01*
X16497Y18129D01*
X16497Y18230D02*
X16573Y18230D01*
X16573Y18331D02*
X16497Y18331D01*
X16497Y18432D02*
X16573Y18432D01*
X16301Y18433D02*
X16301Y18129D01*
X16301Y18433D02*
X16377Y18433D01*
X16377Y18129D01*
X16301Y18129D01*
X16301Y18230D02*
X16377Y18230D01*
X16377Y18331D02*
X16301Y18331D01*
X16301Y18432D02*
X16377Y18432D01*
X16301Y16910D02*
X16301Y16606D01*
X16301Y16910D02*
X16377Y16910D01*
X16377Y16606D01*
X16301Y16606D01*
X16301Y16707D02*
X16377Y16707D01*
X16377Y16808D02*
X16301Y16808D01*
X16301Y16909D02*
X16377Y16909D01*
X16497Y16910D02*
X16497Y16606D01*
X16497Y16910D02*
X16573Y16910D01*
X16573Y16606D01*
X16497Y16606D01*
X16497Y16707D02*
X16573Y16707D01*
X16573Y16808D02*
X16497Y16808D01*
X16497Y16909D02*
X16573Y16909D01*
X16694Y16910D02*
X16694Y16606D01*
X16694Y16910D02*
X16770Y16910D01*
X16770Y16606D01*
X16694Y16606D01*
X16694Y16707D02*
X16770Y16707D01*
X16770Y16808D02*
X16694Y16808D01*
X16694Y16909D02*
X16770Y16909D01*
X16891Y16910D02*
X16891Y16606D01*
X16891Y16910D02*
X16967Y16910D01*
X16967Y16606D01*
X16891Y16606D01*
X16891Y16707D02*
X16967Y16707D01*
X16967Y16808D02*
X16891Y16808D01*
X16891Y16909D02*
X16967Y16909D01*
X17088Y16910D02*
X17088Y16606D01*
X17088Y16910D02*
X17164Y16910D01*
X17164Y16606D01*
X17088Y16606D01*
X17088Y16707D02*
X17164Y16707D01*
X17164Y16808D02*
X17088Y16808D01*
X17088Y16909D02*
X17164Y16909D01*
D24*
X16732Y17520D03*
D25*
X20866Y21063D03*
X21457Y21063D03*
D26*
X2557Y7444D03*
X8758Y7444D03*
D27*
X3408Y9743D03*
X3908Y8743D03*
X4408Y9743D03*
X4908Y8743D03*
X5408Y9743D03*
X5908Y8743D03*
X7408Y9743D03*
X7908Y8743D03*
D28*
X8305Y5243D03*
X8305Y4444D03*
X3010Y5243D03*
X3010Y4444D03*
D29*
X3408Y6243D03*
X7908Y6243D03*
D18*
X16969Y19341D03*
X16969Y19951D03*
D14*
X16260Y20047D03*
X16260Y19323D03*
D22*
X14008Y17323D03*
X14732Y17323D03*
D14*
X13701Y15189D03*
X13701Y15913D03*
X14678Y15189D03*
X14678Y15913D03*
X15787Y15189D03*
X15787Y15913D03*
X16732Y15913D03*
X16732Y15189D03*
X17913Y19323D03*
X17913Y20047D03*
D22*
X20189Y15827D03*
X20913Y15827D03*
X18693Y15827D03*
X19417Y15827D03*
D18*
X15551Y19380D03*
X15551Y19990D03*
D30*
X15339Y11701D03*
X17339Y11701D03*
D31*
X21644Y17913D03*
X20482Y17913D03*
X21644Y18898D03*
X20482Y18898D03*
X21644Y19882D03*
X20482Y19882D03*
D19*
X20325Y16654D03*
X20935Y16654D03*
D18*
X11772Y9951D03*
X11772Y9341D03*
D32*
X19833Y14173D03*
X21538Y14173D03*
D33*
X16339Y8870D03*
X16339Y4893D03*
D22*
X13339Y11693D03*
X14063Y11693D03*
D21*
X10256Y8937D03*
X10925Y8937D03*
X10256Y10039D03*
X10925Y10039D03*
D34*
X20571Y12795D03*
X19980Y12795D03*
D22*
X20638Y11929D03*
X19914Y11929D03*
D35*
X11417Y22441D03*
X13583Y22441D03*
X15551Y22441D03*
X17835Y23780D03*
M02*
