G04 EAGLE Gerber RS-274X export*
G75*
%MOIN*%
%FSLAX34Y34*%
%LPD*%
%INSoldermask Bottom*%
%IPPOS*%
%AMOC8*
5,1,8,0,0,1.08239X$1,22.5*%
G01*
G04 Define Apertures*
%ADD10C,0.086740*%
%ADD11R,0.055559X0.055559*%
%ADD12C,0.055559*%
%ADD13C,0.100520*%
%ADD14C,0.048000*%
%ADD15C,0.102488*%
%ADD16C,0.063039*%
%ADD17C,0.068236*%
%ADD18C,0.135953*%
%ADD19C,0.065087*%
%ADD20C,0.034000*%
D10*
X17244Y25197D03*
X5394Y25197D03*
D11*
X7559Y25722D03*
D12*
X7953Y26510D03*
X7559Y24738D03*
X7953Y23951D03*
X8346Y25722D03*
X8740Y26510D03*
X8346Y24738D03*
X8740Y23951D03*
X9134Y25722D03*
X9528Y26510D03*
X9134Y24738D03*
X9528Y23951D03*
X9921Y25722D03*
X10315Y26510D03*
X9921Y24738D03*
X10315Y23951D03*
X10709Y25722D03*
X11102Y26510D03*
X10709Y24738D03*
X11102Y23951D03*
X11496Y25722D03*
X11496Y24738D03*
X12677Y26510D03*
X12677Y23951D03*
X13071Y25722D03*
X13465Y26510D03*
X13071Y24738D03*
X13465Y23951D03*
X13858Y25722D03*
X14252Y26510D03*
X13858Y24738D03*
X14252Y23951D03*
X14646Y25722D03*
X15039Y26510D03*
X14646Y24738D03*
X15039Y23951D03*
D13*
X12146Y25230D03*
X15748Y25230D03*
D14*
X1181Y18750D03*
X1181Y19476D03*
X1169Y20202D03*
X1181Y20928D03*
X1181Y21654D03*
D15*
X2557Y7444D03*
X8758Y7444D03*
D16*
X3408Y9743D03*
X3908Y8743D03*
X4408Y9743D03*
X4908Y8743D03*
X5408Y9743D03*
X5908Y8743D03*
X7408Y9743D03*
X7908Y8743D03*
D17*
X8305Y5243D03*
X8305Y4444D03*
X3010Y5243D03*
X3010Y4444D03*
D18*
X3408Y6243D03*
X7908Y6243D03*
D19*
X15339Y11701D03*
X17339Y11701D03*
D20*
X11417Y22441D03*
X13583Y22441D03*
X15551Y22441D03*
X17835Y23780D03*
M02*
