G04 EAGLE Gerber RS-274X export*
G75*
%MOIN*%
%FSLAX34Y34*%
%LPD*%
%INSolderpaste Top*%
%IPPOS*%
%AMOC8*
5,1,8,0,0,1.08239X$1,22.5*%
G01*
G04 Define Apertures*
%ADD10R,0.011024X0.061417*%
%ADD11R,0.061417X0.011024*%
%ADD12C,0.007677*%
%ADD13R,0.055913X0.040598*%
%ADD14R,0.038197X0.036256*%
%ADD15R,0.036256X0.038197*%
%ADD16R,0.029528X0.027559*%
%ADD17R,0.043307X0.039370*%
%ADD18R,0.043307X0.055118*%
%ADD19R,0.055118X0.043307*%
%ADD20R,0.064567X0.064567*%
%ADD21C,0.002559*%
%ADD22R,0.040598X0.055913*%
%ADD23R,0.045850X0.071469*%
%ADD24R,0.089764X0.083465*%
%ADD25R,0.204724X0.147638*%
%ADD26R,0.031496X0.031496*%
D10*
X2264Y14890D03*
X2461Y14890D03*
X2657Y14890D03*
X2854Y14890D03*
X3051Y14890D03*
X3248Y14890D03*
X3445Y14890D03*
X3642Y14890D03*
X3839Y14890D03*
X4035Y14890D03*
X4232Y14890D03*
X4429Y14890D03*
D11*
X4992Y15453D03*
X4992Y15650D03*
X4992Y15846D03*
X4992Y16043D03*
X4992Y16240D03*
X4992Y16437D03*
X4992Y16634D03*
X4992Y16831D03*
X4992Y17028D03*
X4992Y17224D03*
X4992Y17421D03*
X4992Y17618D03*
D10*
X4429Y18181D03*
X4232Y18181D03*
X4035Y18181D03*
X3839Y18181D03*
X3642Y18181D03*
X3445Y18181D03*
X3248Y18181D03*
X3051Y18181D03*
X2854Y18181D03*
X2657Y18181D03*
X2461Y18181D03*
X2264Y18181D03*
D11*
X1701Y17618D03*
X1701Y17421D03*
X1701Y17224D03*
X1701Y17028D03*
X1701Y16831D03*
X1701Y16634D03*
X1701Y16437D03*
X1701Y16240D03*
X1701Y16043D03*
X1701Y15846D03*
X1701Y15650D03*
X1701Y15453D03*
D12*
X1667Y13170D02*
X2007Y13170D01*
X1667Y13170D02*
X1667Y13248D01*
X2007Y13248D01*
X2007Y13170D01*
X2007Y13243D02*
X1667Y13243D01*
X1667Y12914D02*
X2007Y12914D01*
X1667Y12914D02*
X1667Y12992D01*
X2007Y12992D01*
X2007Y12914D01*
X2007Y12987D02*
X1667Y12987D01*
X1667Y12658D02*
X2007Y12658D01*
X1667Y12658D02*
X1667Y12736D01*
X2007Y12736D01*
X2007Y12658D01*
X2007Y12731D02*
X1667Y12731D01*
X2403Y12658D02*
X2743Y12658D01*
X2403Y12658D02*
X2403Y12736D01*
X2743Y12736D01*
X2743Y12658D01*
X2743Y12731D02*
X2403Y12731D01*
X2403Y12914D02*
X2743Y12914D01*
X2403Y12914D02*
X2403Y12992D01*
X2743Y12992D01*
X2743Y12914D01*
X2743Y12987D02*
X2403Y12987D01*
X2403Y13170D02*
X2743Y13170D01*
X2403Y13170D02*
X2403Y13248D01*
X2743Y13248D01*
X2743Y13170D01*
X2743Y13243D02*
X2403Y13243D01*
D13*
X9882Y5071D03*
X9882Y5795D03*
X10748Y5071D03*
X10748Y5795D03*
D14*
X3740Y11143D03*
X3740Y11753D03*
X4370Y11134D03*
X4370Y11744D03*
X2126Y11161D03*
X2126Y11771D03*
D15*
X8986Y16001D03*
X9596Y16001D03*
D14*
X4764Y19548D03*
X4764Y20158D03*
X7835Y20218D03*
X7835Y20827D03*
X4099Y19548D03*
X4099Y20158D03*
D15*
X8986Y17717D03*
X9596Y17717D03*
D14*
X5423Y19548D03*
X5423Y20158D03*
X9229Y20218D03*
X9229Y20827D03*
X6695Y19548D03*
X6695Y20158D03*
X6051Y19548D03*
X6051Y20158D03*
X8557Y20218D03*
X8557Y20827D03*
X3443Y19548D03*
X3443Y20158D03*
D16*
X8219Y17126D03*
X7687Y17126D03*
X7687Y17520D03*
X8219Y17520D03*
D15*
X7569Y16457D03*
X8179Y16457D03*
X7569Y18543D03*
X8179Y18543D03*
X6162Y15827D03*
X6772Y15827D03*
X6162Y15160D03*
X6772Y15160D03*
D17*
X8602Y19528D03*
X7933Y19528D03*
D15*
X8986Y16866D03*
X9596Y16866D03*
X8986Y18561D03*
X9596Y18561D03*
D14*
X6890Y11112D03*
X6890Y11722D03*
D13*
X2874Y11858D03*
X2874Y11134D03*
X5119Y11779D03*
X5119Y11055D03*
X8504Y11778D03*
X8504Y11054D03*
X7677Y11778D03*
X7677Y11054D03*
X6042Y11055D03*
X6042Y11779D03*
D18*
X6929Y14252D03*
X6142Y14252D03*
D19*
X6513Y17405D03*
X6513Y18192D03*
D20*
X16732Y17520D03*
D21*
X15818Y17875D02*
X15818Y17951D01*
X16122Y17951D01*
X16122Y17875D01*
X15818Y17875D01*
X15818Y17900D02*
X16122Y17900D01*
X16122Y17925D02*
X15818Y17925D01*
X15818Y17950D02*
X16122Y17950D01*
X15818Y17755D02*
X15818Y17679D01*
X15818Y17755D02*
X16122Y17755D01*
X16122Y17679D01*
X15818Y17679D01*
X15818Y17704D02*
X16122Y17704D01*
X16122Y17729D02*
X15818Y17729D01*
X15818Y17754D02*
X16122Y17754D01*
X15818Y17558D02*
X15818Y17482D01*
X15818Y17558D02*
X16122Y17558D01*
X16122Y17482D01*
X15818Y17482D01*
X15818Y17507D02*
X16122Y17507D01*
X16122Y17532D02*
X15818Y17532D01*
X15818Y17557D02*
X16122Y17557D01*
X15818Y17361D02*
X15818Y17285D01*
X15818Y17361D02*
X16122Y17361D01*
X16122Y17285D01*
X15818Y17285D01*
X15818Y17310D02*
X16122Y17310D01*
X16122Y17335D02*
X15818Y17335D01*
X15818Y17360D02*
X16122Y17360D01*
X15818Y17164D02*
X15818Y17088D01*
X15818Y17164D02*
X16122Y17164D01*
X16122Y17088D01*
X15818Y17088D01*
X15818Y17113D02*
X16122Y17113D01*
X16122Y17138D02*
X15818Y17138D01*
X15818Y17163D02*
X16122Y17163D01*
X17342Y17164D02*
X17342Y17088D01*
X17342Y17164D02*
X17646Y17164D01*
X17646Y17088D01*
X17342Y17088D01*
X17342Y17113D02*
X17646Y17113D01*
X17646Y17138D02*
X17342Y17138D01*
X17342Y17163D02*
X17646Y17163D01*
X17342Y17285D02*
X17342Y17361D01*
X17646Y17361D01*
X17646Y17285D01*
X17342Y17285D01*
X17342Y17310D02*
X17646Y17310D01*
X17646Y17335D02*
X17342Y17335D01*
X17342Y17360D02*
X17646Y17360D01*
X17342Y17482D02*
X17342Y17558D01*
X17646Y17558D01*
X17646Y17482D01*
X17342Y17482D01*
X17342Y17507D02*
X17646Y17507D01*
X17646Y17532D02*
X17342Y17532D01*
X17342Y17557D02*
X17646Y17557D01*
X17342Y17679D02*
X17342Y17755D01*
X17646Y17755D01*
X17646Y17679D01*
X17342Y17679D01*
X17342Y17704D02*
X17646Y17704D01*
X17646Y17729D02*
X17342Y17729D01*
X17342Y17754D02*
X17646Y17754D01*
X17342Y17875D02*
X17342Y17951D01*
X17646Y17951D01*
X17646Y17875D01*
X17342Y17875D01*
X17342Y17900D02*
X17646Y17900D01*
X17646Y17925D02*
X17342Y17925D01*
X17342Y17950D02*
X17646Y17950D01*
X17088Y18129D02*
X17088Y18433D01*
X17164Y18433D01*
X17164Y18129D01*
X17088Y18129D01*
X17088Y18154D02*
X17164Y18154D01*
X17164Y18179D02*
X17088Y18179D01*
X17088Y18204D02*
X17164Y18204D01*
X17164Y18229D02*
X17088Y18229D01*
X17088Y18254D02*
X17164Y18254D01*
X17164Y18279D02*
X17088Y18279D01*
X17088Y18304D02*
X17164Y18304D01*
X17164Y18329D02*
X17088Y18329D01*
X17088Y18354D02*
X17164Y18354D01*
X17164Y18379D02*
X17088Y18379D01*
X17088Y18404D02*
X17164Y18404D01*
X17164Y18429D02*
X17088Y18429D01*
X16891Y18433D02*
X16891Y18129D01*
X16891Y18433D02*
X16967Y18433D01*
X16967Y18129D01*
X16891Y18129D01*
X16891Y18154D02*
X16967Y18154D01*
X16967Y18179D02*
X16891Y18179D01*
X16891Y18204D02*
X16967Y18204D01*
X16967Y18229D02*
X16891Y18229D01*
X16891Y18254D02*
X16967Y18254D01*
X16967Y18279D02*
X16891Y18279D01*
X16891Y18304D02*
X16967Y18304D01*
X16967Y18329D02*
X16891Y18329D01*
X16891Y18354D02*
X16967Y18354D01*
X16967Y18379D02*
X16891Y18379D01*
X16891Y18404D02*
X16967Y18404D01*
X16967Y18429D02*
X16891Y18429D01*
X16694Y18433D02*
X16694Y18129D01*
X16694Y18433D02*
X16770Y18433D01*
X16770Y18129D01*
X16694Y18129D01*
X16694Y18154D02*
X16770Y18154D01*
X16770Y18179D02*
X16694Y18179D01*
X16694Y18204D02*
X16770Y18204D01*
X16770Y18229D02*
X16694Y18229D01*
X16694Y18254D02*
X16770Y18254D01*
X16770Y18279D02*
X16694Y18279D01*
X16694Y18304D02*
X16770Y18304D01*
X16770Y18329D02*
X16694Y18329D01*
X16694Y18354D02*
X16770Y18354D01*
X16770Y18379D02*
X16694Y18379D01*
X16694Y18404D02*
X16770Y18404D01*
X16770Y18429D02*
X16694Y18429D01*
X16497Y18433D02*
X16497Y18129D01*
X16497Y18433D02*
X16573Y18433D01*
X16573Y18129D01*
X16497Y18129D01*
X16497Y18154D02*
X16573Y18154D01*
X16573Y18179D02*
X16497Y18179D01*
X16497Y18204D02*
X16573Y18204D01*
X16573Y18229D02*
X16497Y18229D01*
X16497Y18254D02*
X16573Y18254D01*
X16573Y18279D02*
X16497Y18279D01*
X16497Y18304D02*
X16573Y18304D01*
X16573Y18329D02*
X16497Y18329D01*
X16497Y18354D02*
X16573Y18354D01*
X16573Y18379D02*
X16497Y18379D01*
X16497Y18404D02*
X16573Y18404D01*
X16573Y18429D02*
X16497Y18429D01*
X16301Y18433D02*
X16301Y18129D01*
X16301Y18433D02*
X16377Y18433D01*
X16377Y18129D01*
X16301Y18129D01*
X16301Y18154D02*
X16377Y18154D01*
X16377Y18179D02*
X16301Y18179D01*
X16301Y18204D02*
X16377Y18204D01*
X16377Y18229D02*
X16301Y18229D01*
X16301Y18254D02*
X16377Y18254D01*
X16377Y18279D02*
X16301Y18279D01*
X16301Y18304D02*
X16377Y18304D01*
X16377Y18329D02*
X16301Y18329D01*
X16301Y18354D02*
X16377Y18354D01*
X16377Y18379D02*
X16301Y18379D01*
X16301Y18404D02*
X16377Y18404D01*
X16377Y18429D02*
X16301Y18429D01*
X16301Y16910D02*
X16301Y16606D01*
X16301Y16910D02*
X16377Y16910D01*
X16377Y16606D01*
X16301Y16606D01*
X16301Y16631D02*
X16377Y16631D01*
X16377Y16656D02*
X16301Y16656D01*
X16301Y16681D02*
X16377Y16681D01*
X16377Y16706D02*
X16301Y16706D01*
X16301Y16731D02*
X16377Y16731D01*
X16377Y16756D02*
X16301Y16756D01*
X16301Y16781D02*
X16377Y16781D01*
X16377Y16806D02*
X16301Y16806D01*
X16301Y16831D02*
X16377Y16831D01*
X16377Y16856D02*
X16301Y16856D01*
X16301Y16881D02*
X16377Y16881D01*
X16377Y16906D02*
X16301Y16906D01*
X16497Y16910D02*
X16497Y16606D01*
X16497Y16910D02*
X16573Y16910D01*
X16573Y16606D01*
X16497Y16606D01*
X16497Y16631D02*
X16573Y16631D01*
X16573Y16656D02*
X16497Y16656D01*
X16497Y16681D02*
X16573Y16681D01*
X16573Y16706D02*
X16497Y16706D01*
X16497Y16731D02*
X16573Y16731D01*
X16573Y16756D02*
X16497Y16756D01*
X16497Y16781D02*
X16573Y16781D01*
X16573Y16806D02*
X16497Y16806D01*
X16497Y16831D02*
X16573Y16831D01*
X16573Y16856D02*
X16497Y16856D01*
X16497Y16881D02*
X16573Y16881D01*
X16573Y16906D02*
X16497Y16906D01*
X16694Y16910D02*
X16694Y16606D01*
X16694Y16910D02*
X16770Y16910D01*
X16770Y16606D01*
X16694Y16606D01*
X16694Y16631D02*
X16770Y16631D01*
X16770Y16656D02*
X16694Y16656D01*
X16694Y16681D02*
X16770Y16681D01*
X16770Y16706D02*
X16694Y16706D01*
X16694Y16731D02*
X16770Y16731D01*
X16770Y16756D02*
X16694Y16756D01*
X16694Y16781D02*
X16770Y16781D01*
X16770Y16806D02*
X16694Y16806D01*
X16694Y16831D02*
X16770Y16831D01*
X16770Y16856D02*
X16694Y16856D01*
X16694Y16881D02*
X16770Y16881D01*
X16770Y16906D02*
X16694Y16906D01*
X16891Y16910D02*
X16891Y16606D01*
X16891Y16910D02*
X16967Y16910D01*
X16967Y16606D01*
X16891Y16606D01*
X16891Y16631D02*
X16967Y16631D01*
X16967Y16656D02*
X16891Y16656D01*
X16891Y16681D02*
X16967Y16681D01*
X16967Y16706D02*
X16891Y16706D01*
X16891Y16731D02*
X16967Y16731D01*
X16967Y16756D02*
X16891Y16756D01*
X16891Y16781D02*
X16967Y16781D01*
X16967Y16806D02*
X16891Y16806D01*
X16891Y16831D02*
X16967Y16831D01*
X16967Y16856D02*
X16891Y16856D01*
X16891Y16881D02*
X16967Y16881D01*
X16967Y16906D02*
X16891Y16906D01*
X17088Y16910D02*
X17088Y16606D01*
X17088Y16910D02*
X17164Y16910D01*
X17164Y16606D01*
X17088Y16606D01*
X17088Y16631D02*
X17164Y16631D01*
X17164Y16656D02*
X17088Y16656D01*
X17088Y16681D02*
X17164Y16681D01*
X17164Y16706D02*
X17088Y16706D01*
X17088Y16731D02*
X17164Y16731D01*
X17164Y16756D02*
X17088Y16756D01*
X17088Y16781D02*
X17164Y16781D01*
X17164Y16806D02*
X17088Y16806D01*
X17088Y16831D02*
X17164Y16831D01*
X17164Y16856D02*
X17088Y16856D01*
X17088Y16881D02*
X17164Y16881D01*
X17164Y16906D02*
X17088Y16906D01*
D14*
X16969Y19341D03*
X16969Y19951D03*
D13*
X16260Y20047D03*
X16260Y19323D03*
D22*
X14008Y17323D03*
X14732Y17323D03*
D13*
X13701Y15189D03*
X13701Y15913D03*
X14678Y15189D03*
X14678Y15913D03*
X15787Y15189D03*
X15787Y15913D03*
X16732Y15913D03*
X16732Y15189D03*
X17913Y19323D03*
X17913Y20047D03*
D22*
X20189Y15827D03*
X20913Y15827D03*
X18693Y15827D03*
X19417Y15827D03*
D14*
X15551Y19380D03*
X15551Y19990D03*
D23*
X21644Y17913D03*
X20482Y17913D03*
X21644Y18898D03*
X20482Y18898D03*
X21644Y19882D03*
X20482Y19882D03*
D15*
X20325Y16654D03*
X20935Y16654D03*
D14*
X11772Y9951D03*
X11772Y9341D03*
D24*
X19833Y14173D03*
X21538Y14173D03*
D25*
X16339Y8870D03*
X16339Y4893D03*
D22*
X13339Y11693D03*
X14063Y11693D03*
D17*
X10256Y8937D03*
X10925Y8937D03*
X10256Y10039D03*
X10925Y10039D03*
D26*
X20571Y12795D03*
X19980Y12795D03*
D22*
X20638Y11929D03*
X19914Y11929D03*
M02*
