G04 EAGLE Gerber RS-274X export*
G75*
%MOIN*%
%FSLAX34Y34*%
%LPD*%
%INBottom Copper*%
%IPPOS*%
%AMOC8*
5,1,8,0,0,1.08239X$1,22.5*%
G01*
G04 Define Apertures*
%ADD10R,0.047559X0.047559*%
%ADD11C,0.047559*%
%ADD12C,0.040000*%
%ADD13C,0.094488*%
%ADD14C,0.055039*%
%ADD15C,0.060236*%
%ADD16C,0.057087*%
%ADD17C,0.026000*%
%ADD18C,0.006000*%
%ADD19C,0.010000*%
G36*
X22153Y3962D02*
X22133Y3958D01*
X465Y3958D01*
X447Y3962D01*
X430Y3972D01*
X419Y3989D01*
X415Y4008D01*
X415Y12183D01*
X418Y12200D01*
X429Y12217D01*
X445Y12229D01*
X465Y12233D01*
X484Y12229D01*
X526Y12212D01*
X602Y12212D01*
X672Y12240D01*
X728Y12297D01*
X744Y12308D01*
X763Y12312D01*
X1179Y12312D01*
X1197Y12308D01*
X1214Y12297D01*
X1270Y12240D01*
X1340Y12212D01*
X1416Y12212D01*
X1486Y12240D01*
X1539Y12294D01*
X1568Y12364D01*
X1568Y12439D01*
X1539Y12509D01*
X1486Y12563D01*
X1416Y12592D01*
X1340Y12592D01*
X1270Y12563D01*
X1214Y12506D01*
X1198Y12496D01*
X1179Y12492D01*
X763Y12492D01*
X745Y12495D01*
X728Y12506D01*
X672Y12563D01*
X602Y12592D01*
X526Y12592D01*
X484Y12574D01*
X467Y12570D01*
X447Y12574D01*
X430Y12584D01*
X419Y12601D01*
X415Y12620D01*
X415Y19584D01*
X418Y19601D01*
X429Y19618D01*
X445Y19630D01*
X464Y19634D01*
X484Y19630D01*
X500Y19619D01*
X1062Y19057D01*
X1073Y19042D01*
X1077Y19023D01*
X1074Y19003D01*
X1063Y18987D01*
X1046Y18976D01*
X1034Y18970D01*
X961Y18897D01*
X921Y18802D01*
X921Y18698D01*
X961Y18603D01*
X1034Y18530D01*
X1129Y18490D01*
X1233Y18490D01*
X1328Y18530D01*
X1402Y18603D01*
X1412Y18629D01*
X1423Y18645D01*
X1439Y18656D01*
X1459Y18660D01*
X1844Y18660D01*
X1863Y18656D01*
X1875Y18651D01*
X1950Y18651D01*
X2020Y18680D01*
X2073Y18734D01*
X2102Y18804D01*
X2102Y18854D01*
X2106Y18873D01*
X2116Y18889D01*
X2133Y18901D01*
X2152Y18904D01*
X2203Y18904D01*
X2273Y18933D01*
X2326Y18987D01*
X2355Y19057D01*
X2355Y19132D01*
X2340Y19170D01*
X2336Y19187D01*
X2339Y19206D01*
X2350Y19223D01*
X2366Y19235D01*
X2386Y19239D01*
X2405Y19235D01*
X2443Y19219D01*
X2518Y19219D01*
X2588Y19248D01*
X2641Y19302D01*
X2670Y19372D01*
X2670Y19445D01*
X2674Y19463D01*
X2684Y19480D01*
X2701Y19491D01*
X2720Y19495D01*
X2794Y19495D01*
X2864Y19524D01*
X2917Y19577D01*
X2946Y19647D01*
X2946Y19723D01*
X2917Y19793D01*
X2863Y19847D01*
X2853Y19862D01*
X2848Y19881D01*
X2852Y19901D01*
X2863Y19917D01*
X2917Y19971D01*
X2946Y20041D01*
X2946Y20117D01*
X2917Y20186D01*
X2864Y20240D01*
X2794Y20269D01*
X2714Y20269D01*
X2695Y20272D01*
X2679Y20283D01*
X1441Y21521D01*
X1430Y21536D01*
X1426Y21556D01*
X1430Y21575D01*
X1441Y21602D01*
X1441Y21705D01*
X1402Y21801D01*
X1344Y21858D01*
X1334Y21872D01*
X1330Y21892D01*
X1333Y21911D01*
X1344Y21928D01*
X1360Y21939D01*
X1380Y21943D01*
X3736Y21943D01*
X4523Y22730D01*
X4539Y22741D01*
X4558Y22745D01*
X6533Y22745D01*
X7609Y23821D01*
X7624Y23831D01*
X7644Y23835D01*
X7663Y23832D01*
X7680Y23821D01*
X7691Y23805D01*
X7700Y23782D01*
X7784Y23698D01*
X7894Y23653D01*
X8012Y23653D01*
X8121Y23698D01*
X8205Y23782D01*
X8251Y23892D01*
X8251Y24010D01*
X8205Y24119D01*
X8121Y24203D01*
X8071Y24224D01*
X8056Y24233D01*
X8045Y24249D01*
X8040Y24269D01*
X8043Y24288D01*
X8054Y24305D01*
X8070Y24316D01*
X8090Y24320D01*
X8520Y24320D01*
X8764Y24565D01*
X8764Y24601D01*
X8767Y24618D01*
X8778Y24635D01*
X8794Y24647D01*
X8813Y24651D01*
X8833Y24647D01*
X8849Y24637D01*
X8860Y24620D01*
X8881Y24570D01*
X8965Y24486D01*
X9075Y24440D01*
X9193Y24440D01*
X9303Y24486D01*
X9386Y24570D01*
X9432Y24679D01*
X9432Y24797D01*
X9386Y24907D01*
X9303Y24991D01*
X9193Y25036D01*
X9075Y25036D01*
X8965Y24991D01*
X8881Y24907D01*
X8860Y24856D01*
X8851Y24842D01*
X8835Y24830D01*
X8816Y24825D01*
X8796Y24829D01*
X8779Y24840D01*
X8768Y24856D01*
X8764Y24875D01*
X8764Y24955D01*
X8768Y24974D01*
X8779Y24990D01*
X9221Y25432D01*
X9237Y25443D01*
X9303Y25470D01*
X9386Y25554D01*
X9432Y25663D01*
X9432Y25782D01*
X9386Y25891D01*
X9303Y25975D01*
X9254Y25995D01*
X9240Y26004D01*
X9228Y26020D01*
X9223Y26040D01*
X9227Y26059D01*
X9237Y26076D01*
X9254Y26087D01*
X9273Y26091D01*
X9691Y26091D01*
X9709Y26088D01*
X9726Y26078D01*
X9737Y26061D01*
X9741Y26042D01*
X9738Y26022D01*
X9727Y26006D01*
X9635Y25914D01*
X9583Y25790D01*
X9583Y25752D01*
X10259Y25752D01*
X10259Y25790D01*
X10208Y25914D01*
X10116Y26006D01*
X10106Y26020D01*
X10101Y26040D01*
X10104Y26059D01*
X10115Y26076D01*
X10132Y26087D01*
X10151Y26091D01*
X10479Y26091D01*
X10496Y26088D01*
X10513Y26078D01*
X10525Y26061D01*
X10529Y26042D01*
X10525Y26022D01*
X10514Y26006D01*
X10422Y25914D01*
X10371Y25790D01*
X10371Y25752D01*
X11046Y25752D01*
X11046Y25790D01*
X10995Y25914D01*
X10903Y26006D01*
X10893Y26020D01*
X10888Y26040D01*
X10892Y26059D01*
X10903Y26076D01*
X10919Y26087D01*
X10938Y26091D01*
X10966Y26091D01*
X10984Y26087D01*
X11001Y26076D01*
X11203Y25874D01*
X11214Y25859D01*
X11218Y25839D01*
X11214Y25820D01*
X11198Y25782D01*
X11198Y25663D01*
X11244Y25554D01*
X11292Y25505D01*
X11303Y25490D01*
X11307Y25470D01*
X11303Y25451D01*
X11283Y25402D01*
X11283Y25059D01*
X11303Y25010D01*
X11307Y24992D01*
X11303Y24972D01*
X11292Y24956D01*
X11244Y24907D01*
X11198Y24797D01*
X11198Y24679D01*
X11244Y24570D01*
X11327Y24486D01*
X11437Y24440D01*
X11555Y24440D01*
X11658Y24483D01*
X11677Y24487D01*
X11696Y24483D01*
X11974Y24368D01*
X12317Y24368D01*
X12634Y24499D01*
X12732Y24597D01*
X12747Y24607D01*
X12766Y24612D01*
X12786Y24608D01*
X12803Y24597D01*
X12814Y24581D01*
X12818Y24570D01*
X12902Y24486D01*
X13012Y24440D01*
X13130Y24440D01*
X13240Y24486D01*
X13323Y24570D01*
X13369Y24679D01*
X13369Y24797D01*
X13323Y24907D01*
X13240Y24991D01*
X13130Y25036D01*
X13058Y25036D01*
X13040Y25039D01*
X13023Y25050D01*
X13012Y25066D01*
X13008Y25086D01*
X13008Y25375D01*
X13012Y25393D01*
X13022Y25409D01*
X13039Y25421D01*
X13058Y25425D01*
X13130Y25425D01*
X13240Y25470D01*
X13323Y25554D01*
X13369Y25663D01*
X13369Y25782D01*
X13323Y25891D01*
X13240Y25975D01*
X13130Y26020D01*
X13012Y26020D01*
X12902Y25975D01*
X12818Y25891D01*
X12814Y25880D01*
X12804Y25865D01*
X12788Y25853D01*
X12768Y25849D01*
X12749Y25853D01*
X12732Y25864D01*
X12634Y25962D01*
X12317Y26093D01*
X11974Y26093D01*
X11696Y25978D01*
X11677Y25974D01*
X11658Y25978D01*
X11555Y26020D01*
X11437Y26020D01*
X11379Y25996D01*
X11361Y25993D01*
X11341Y25996D01*
X11325Y26007D01*
X11185Y26147D01*
X11175Y26162D01*
X11170Y26181D01*
X11174Y26201D01*
X11185Y26217D01*
X11201Y26228D01*
X11271Y26257D01*
X11355Y26341D01*
X11400Y26451D01*
X11400Y26569D01*
X11354Y26681D01*
X11350Y26699D01*
X11353Y26718D01*
X11364Y26735D01*
X11380Y26746D01*
X11400Y26750D01*
X12336Y26750D01*
X12354Y26747D01*
X12371Y26737D01*
X12382Y26720D01*
X12386Y26701D01*
X12383Y26681D01*
X12339Y26577D01*
X12339Y26540D01*
X13015Y26540D01*
X13015Y26577D01*
X12972Y26681D01*
X12968Y26699D01*
X12971Y26718D01*
X12982Y26735D01*
X12998Y26746D01*
X13018Y26750D01*
X13124Y26750D01*
X13141Y26747D01*
X13158Y26737D01*
X13170Y26720D01*
X13174Y26701D01*
X13170Y26681D01*
X13127Y26577D01*
X13127Y26540D01*
X13802Y26540D01*
X13802Y26577D01*
X13759Y26681D01*
X13755Y26699D01*
X13759Y26718D01*
X13769Y26735D01*
X13786Y26746D01*
X13805Y26750D01*
X13911Y26750D01*
X13929Y26747D01*
X13946Y26737D01*
X13957Y26720D01*
X13961Y26701D01*
X13957Y26681D01*
X13914Y26577D01*
X13914Y26540D01*
X14590Y26540D01*
X14590Y26577D01*
X14547Y26681D01*
X14543Y26699D01*
X14546Y26718D01*
X14557Y26735D01*
X14573Y26746D01*
X14593Y26750D01*
X14742Y26750D01*
X14759Y26747D01*
X14776Y26737D01*
X14788Y26720D01*
X14792Y26701D01*
X14788Y26681D01*
X14742Y26569D01*
X14742Y26451D01*
X14787Y26341D01*
X14871Y26257D01*
X14980Y26212D01*
X15099Y26212D01*
X15208Y26257D01*
X15292Y26341D01*
X15337Y26451D01*
X15337Y26569D01*
X15291Y26681D01*
X15287Y26699D01*
X15290Y26718D01*
X15301Y26735D01*
X15317Y26746D01*
X15337Y26750D01*
X18984Y26750D01*
X19002Y26747D01*
X19019Y26736D01*
X19030Y26720D01*
X19034Y26700D01*
X19034Y22477D01*
X19097Y22324D01*
X19214Y22207D01*
X19366Y22144D01*
X22133Y22144D01*
X22151Y22141D01*
X22168Y22130D01*
X22179Y22114D01*
X22183Y22094D01*
X22183Y4008D01*
X22180Y3990D01*
X22169Y3974D01*
X22153Y3962D01*
G37*
%LPC*%
G36*
X14185Y26172D02*
X14222Y26172D01*
X14222Y26480D01*
X13914Y26480D01*
X13914Y26443D01*
X13966Y26318D01*
X14061Y26223D01*
X14185Y26172D01*
G37*
G36*
X12610Y26172D02*
X12647Y26172D01*
X12647Y26480D01*
X12339Y26480D01*
X12339Y26443D01*
X12391Y26318D01*
X12486Y26223D01*
X12610Y26172D01*
G37*
G36*
X14282Y26172D02*
X14319Y26172D01*
X14443Y26223D01*
X14538Y26318D01*
X14590Y26443D01*
X14590Y26480D01*
X14282Y26480D01*
X14282Y26172D01*
G37*
G36*
X13495Y26172D02*
X13532Y26172D01*
X13656Y26223D01*
X13751Y26318D01*
X13802Y26443D01*
X13802Y26480D01*
X13495Y26480D01*
X13495Y26172D01*
G37*
G36*
X13397Y26172D02*
X13435Y26172D01*
X13435Y26480D01*
X13127Y26480D01*
X13127Y26443D01*
X13178Y26318D01*
X13273Y26223D01*
X13397Y26172D01*
G37*
G36*
X12707Y26172D02*
X12744Y26172D01*
X12869Y26223D01*
X12964Y26318D01*
X13015Y26443D01*
X13015Y26480D01*
X12707Y26480D01*
X12707Y26172D01*
G37*
G36*
X9411Y19298D02*
X9487Y19298D01*
X9556Y19327D01*
X9610Y19381D01*
X9639Y19450D01*
X9639Y19502D01*
X9642Y19521D01*
X9653Y19537D01*
X13595Y23478D01*
X13610Y23489D01*
X13630Y23493D01*
X13654Y23493D01*
X13908Y23747D01*
X13923Y23757D01*
X13942Y23761D01*
X13962Y23758D01*
X13978Y23747D01*
X14061Y23664D01*
X14185Y23613D01*
X14222Y23613D01*
X14222Y23981D01*
X14590Y23981D01*
X14590Y24018D01*
X14538Y24142D01*
X14443Y24237D01*
X14411Y24250D01*
X14396Y24260D01*
X14385Y24276D01*
X14380Y24296D01*
X14384Y24315D01*
X14395Y24332D01*
X14504Y24441D01*
X14520Y24452D01*
X14539Y24456D01*
X14559Y24452D01*
X14586Y24440D01*
X14705Y24440D01*
X14814Y24486D01*
X14898Y24570D01*
X14943Y24679D01*
X14943Y24694D01*
X14947Y24712D01*
X14957Y24728D01*
X14973Y24740D01*
X14993Y24744D01*
X15012Y24741D01*
X15029Y24730D01*
X15259Y24499D01*
X15576Y24368D01*
X15920Y24368D01*
X16237Y24499D01*
X16479Y24742D01*
X16480Y24744D01*
X16490Y24759D01*
X16506Y24770D01*
X16525Y24775D01*
X16545Y24771D01*
X16561Y24760D01*
X16569Y24750D01*
X16795Y24524D01*
X17086Y24403D01*
X17402Y24403D01*
X17694Y24524D01*
X17917Y24747D01*
X18038Y25039D01*
X18038Y25355D01*
X17917Y25646D01*
X17694Y25870D01*
X17402Y25991D01*
X17086Y25991D01*
X16795Y25870D01*
X16580Y25656D01*
X16566Y25645D01*
X16546Y25641D01*
X16527Y25644D01*
X16510Y25655D01*
X16499Y25672D01*
X16479Y25719D01*
X16237Y25962D01*
X15920Y26093D01*
X15576Y26093D01*
X15259Y25962D01*
X15029Y25731D01*
X15014Y25721D01*
X14995Y25716D01*
X14975Y25720D01*
X14959Y25730D01*
X14947Y25747D01*
X14943Y25766D01*
X14943Y25782D01*
X14898Y25891D01*
X14814Y25975D01*
X14705Y26020D01*
X14586Y26020D01*
X14477Y25975D01*
X14393Y25891D01*
X14348Y25782D01*
X14348Y25663D01*
X14393Y25554D01*
X14477Y25470D01*
X14505Y25458D01*
X14520Y25448D01*
X14532Y25432D01*
X14536Y25412D01*
X14536Y25048D01*
X14532Y25030D01*
X14521Y25013D01*
X14505Y25002D01*
X14477Y24991D01*
X14393Y24907D01*
X14348Y24797D01*
X14348Y24679D01*
X14359Y24651D01*
X14363Y24633D01*
X14360Y24613D01*
X14349Y24597D01*
X14175Y24423D01*
X14159Y24413D01*
X14140Y24409D01*
X14071Y24409D01*
X14054Y24412D01*
X14052Y24404D01*
X14041Y24388D01*
X13809Y24155D01*
X13794Y24145D01*
X13774Y24140D01*
X13755Y24144D01*
X13738Y24155D01*
X13656Y24237D01*
X13532Y24289D01*
X13495Y24289D01*
X13495Y23921D01*
X13127Y23921D01*
X13127Y23884D01*
X13178Y23759D01*
X13273Y23664D01*
X13343Y23636D01*
X13358Y23626D01*
X13369Y23610D01*
X13374Y23590D01*
X13370Y23571D01*
X13359Y23554D01*
X9498Y19693D01*
X9482Y19682D01*
X9463Y19678D01*
X9411Y19678D01*
X9341Y19649D01*
X9288Y19596D01*
X9259Y19526D01*
X9259Y19450D01*
X9288Y19381D01*
X9341Y19327D01*
X9411Y19298D01*
G37*
G36*
X13799Y25425D02*
X13918Y25425D01*
X14027Y25470D01*
X14111Y25554D01*
X14156Y25663D01*
X14156Y25782D01*
X14111Y25891D01*
X14027Y25975D01*
X13918Y26020D01*
X13799Y26020D01*
X13690Y25975D01*
X13606Y25891D01*
X13560Y25782D01*
X13560Y25663D01*
X13606Y25554D01*
X13690Y25470D01*
X13799Y25425D01*
G37*
G36*
X10739Y25385D02*
X10776Y25385D01*
X10900Y25436D01*
X10995Y25531D01*
X11046Y25655D01*
X11046Y25692D01*
X10739Y25692D01*
X10739Y25385D01*
G37*
G36*
X10641Y25385D02*
X10679Y25385D01*
X10679Y25692D01*
X10371Y25692D01*
X10371Y25655D01*
X10422Y25531D01*
X10517Y25436D01*
X10641Y25385D01*
G37*
G36*
X9951Y25385D02*
X9988Y25385D01*
X10113Y25436D01*
X10208Y25531D01*
X10259Y25655D01*
X10259Y25692D01*
X9951Y25692D01*
X9951Y25385D01*
G37*
G36*
X9854Y25385D02*
X9891Y25385D01*
X9891Y25692D01*
X9583Y25692D01*
X9583Y25655D01*
X9635Y25531D01*
X9730Y25436D01*
X9854Y25385D01*
G37*
G36*
X10371Y24768D02*
X10679Y24768D01*
X10679Y25076D01*
X10641Y25076D01*
X10517Y25025D01*
X10422Y24930D01*
X10371Y24805D01*
X10371Y24768D01*
G37*
G36*
X10739Y24768D02*
X11046Y24768D01*
X11046Y24805D01*
X10995Y24930D01*
X10900Y25025D01*
X10776Y25076D01*
X10739Y25076D01*
X10739Y24768D01*
G37*
G36*
X9862Y24440D02*
X9980Y24440D01*
X10090Y24486D01*
X10174Y24570D01*
X10219Y24679D01*
X10219Y24797D01*
X10174Y24907D01*
X10090Y24991D01*
X9980Y25036D01*
X9862Y25036D01*
X9753Y24991D01*
X9669Y24907D01*
X9623Y24797D01*
X9623Y24679D01*
X9669Y24570D01*
X9753Y24486D01*
X9862Y24440D01*
G37*
G36*
X13799Y24440D02*
X13918Y24440D01*
X13987Y24469D01*
X14004Y24473D01*
X14023Y24470D01*
X14024Y24477D01*
X14035Y24494D01*
X14111Y24570D01*
X14156Y24679D01*
X14156Y24797D01*
X14111Y24907D01*
X14027Y24991D01*
X13918Y25036D01*
X13799Y25036D01*
X13690Y24991D01*
X13606Y24907D01*
X13560Y24797D01*
X13560Y24679D01*
X13606Y24570D01*
X13690Y24486D01*
X13799Y24440D01*
G37*
G36*
X10739Y24400D02*
X10776Y24400D01*
X10900Y24452D01*
X10995Y24547D01*
X11046Y24671D01*
X11046Y24708D01*
X10739Y24708D01*
X10739Y24400D01*
G37*
G36*
X10641Y24400D02*
X10679Y24400D01*
X10679Y24708D01*
X10371Y24708D01*
X10371Y24671D01*
X10422Y24547D01*
X10517Y24452D01*
X10641Y24400D01*
G37*
G36*
X13127Y23981D02*
X13435Y23981D01*
X13435Y24289D01*
X13397Y24289D01*
X13273Y24237D01*
X13178Y24142D01*
X13127Y24018D01*
X13127Y23981D01*
G37*
G36*
X12339Y23981D02*
X12647Y23981D01*
X12647Y24289D01*
X12610Y24289D01*
X12486Y24237D01*
X12391Y24142D01*
X12339Y24018D01*
X12339Y23981D01*
G37*
G36*
X9190Y23981D02*
X9498Y23981D01*
X9498Y24289D01*
X9460Y24289D01*
X9336Y24237D01*
X9241Y24142D01*
X9190Y24018D01*
X9190Y23981D01*
G37*
G36*
X9558Y23981D02*
X9865Y23981D01*
X9865Y24018D01*
X9814Y24142D01*
X9719Y24237D01*
X9595Y24289D01*
X9558Y24289D01*
X9558Y23981D01*
G37*
G36*
X12707Y23981D02*
X13015Y23981D01*
X13015Y24018D01*
X12964Y24142D01*
X12869Y24237D01*
X12744Y24289D01*
X12707Y24289D01*
X12707Y23981D01*
G37*
G36*
X10256Y23653D02*
X10374Y23653D01*
X10484Y23698D01*
X10567Y23782D01*
X10613Y23892D01*
X10613Y24010D01*
X10567Y24119D01*
X10484Y24203D01*
X10374Y24249D01*
X10256Y24249D01*
X10146Y24203D01*
X10063Y24119D01*
X10017Y24010D01*
X10017Y23892D01*
X10063Y23782D01*
X10146Y23698D01*
X10256Y23653D01*
G37*
G36*
X8681Y23653D02*
X8799Y23653D01*
X8909Y23698D01*
X8993Y23782D01*
X9038Y23892D01*
X9038Y24010D01*
X8993Y24119D01*
X8909Y24203D01*
X8799Y24249D01*
X8681Y24249D01*
X8571Y24203D01*
X8488Y24119D01*
X8442Y24010D01*
X8442Y23892D01*
X8488Y23782D01*
X8571Y23698D01*
X8681Y23653D01*
G37*
G36*
X14980Y23653D02*
X15099Y23653D01*
X15208Y23698D01*
X15292Y23782D01*
X15337Y23892D01*
X15337Y24010D01*
X15292Y24119D01*
X15208Y24203D01*
X15099Y24249D01*
X14980Y24249D01*
X14871Y24203D01*
X14787Y24119D01*
X14742Y24010D01*
X14742Y23892D01*
X14787Y23782D01*
X14871Y23698D01*
X14980Y23653D01*
G37*
G36*
X11043Y23653D02*
X11162Y23653D01*
X11271Y23698D01*
X11355Y23782D01*
X11400Y23892D01*
X11400Y24010D01*
X11355Y24119D01*
X11271Y24203D01*
X11162Y24249D01*
X11043Y24249D01*
X10934Y24203D01*
X10850Y24119D01*
X10805Y24010D01*
X10805Y23892D01*
X10850Y23782D01*
X10934Y23698D01*
X11043Y23653D01*
G37*
G36*
X12610Y23613D02*
X12647Y23613D01*
X12647Y23921D01*
X12339Y23921D01*
X12339Y23884D01*
X12391Y23759D01*
X12486Y23664D01*
X12610Y23613D01*
G37*
G36*
X14282Y23613D02*
X14319Y23613D01*
X14443Y23664D01*
X14538Y23759D01*
X14590Y23884D01*
X14590Y23921D01*
X14282Y23921D01*
X14282Y23613D01*
G37*
G36*
X12707Y23613D02*
X12744Y23613D01*
X12869Y23664D01*
X12964Y23759D01*
X13015Y23884D01*
X13015Y23921D01*
X12707Y23921D01*
X12707Y23613D01*
G37*
G36*
X9558Y23613D02*
X9595Y23613D01*
X9719Y23664D01*
X9814Y23759D01*
X9865Y23884D01*
X9865Y23921D01*
X9558Y23921D01*
X9558Y23613D01*
G37*
G36*
X9460Y23613D02*
X9498Y23613D01*
X9498Y23921D01*
X9190Y23921D01*
X9190Y23884D01*
X9241Y23759D01*
X9336Y23664D01*
X9460Y23613D01*
G37*
G36*
X19726Y16345D02*
X19802Y16345D01*
X19871Y16374D01*
X19925Y16428D01*
X19954Y16498D01*
X19954Y16573D01*
X19925Y16643D01*
X19888Y16679D01*
X19878Y16695D01*
X19874Y16715D01*
X19874Y16796D01*
X18263Y18406D01*
X18233Y18406D01*
X18214Y18410D01*
X18197Y18421D01*
X17573Y19045D01*
X17562Y19061D01*
X17558Y19081D01*
X17558Y19132D01*
X17529Y19202D01*
X17476Y19256D01*
X17406Y19284D01*
X17331Y19284D01*
X17261Y19256D01*
X17207Y19202D01*
X17178Y19132D01*
X17178Y19057D01*
X17207Y18987D01*
X17261Y18933D01*
X17331Y18904D01*
X17382Y18904D01*
X17401Y18901D01*
X17417Y18890D01*
X18025Y18283D01*
X18035Y18268D01*
X18039Y18248D01*
X18036Y18229D01*
X18025Y18212D01*
X18009Y18201D01*
X18003Y18199D01*
X17949Y18145D01*
X17920Y18075D01*
X17920Y18073D01*
X17917Y18055D01*
X17906Y18039D01*
X17890Y18027D01*
X17870Y18023D01*
X15702Y18023D01*
X15402Y17723D01*
X15387Y17713D01*
X15367Y17709D01*
X15316Y17709D01*
X15246Y17680D01*
X15192Y17626D01*
X15163Y17557D01*
X15163Y17481D01*
X15192Y17411D01*
X15246Y17358D01*
X15316Y17329D01*
X15391Y17329D01*
X15461Y17358D01*
X15514Y17411D01*
X15543Y17481D01*
X15543Y17532D01*
X15547Y17551D01*
X15558Y17568D01*
X15779Y17789D01*
X15795Y17799D01*
X15814Y17803D01*
X18032Y17803D01*
X18061Y17833D01*
X18077Y17844D01*
X18097Y17847D01*
X18148Y17847D01*
X18218Y17876D01*
X18271Y17930D01*
X18289Y17972D01*
X18298Y17987D01*
X18315Y17998D01*
X18334Y18003D01*
X18354Y17999D01*
X18370Y17988D01*
X19624Y16735D01*
X19634Y16720D01*
X19638Y16700D01*
X19635Y16681D01*
X19624Y16664D01*
X19603Y16643D01*
X19574Y16573D01*
X19574Y16498D01*
X19603Y16428D01*
X19656Y16374D01*
X19726Y16345D01*
G37*
G36*
X14647Y16385D02*
X14723Y16385D01*
X14793Y16414D01*
X14846Y16467D01*
X14875Y16537D01*
X14875Y16613D01*
X14846Y16682D01*
X14810Y16719D01*
X14799Y16735D01*
X14795Y16754D01*
X14795Y17375D01*
X14799Y17393D01*
X14810Y17410D01*
X15305Y17906D01*
X15321Y17916D01*
X15341Y17920D01*
X15392Y17920D01*
X15462Y17949D01*
X15515Y18003D01*
X15544Y18072D01*
X15544Y18148D01*
X15515Y18218D01*
X15462Y18271D01*
X15392Y18300D01*
X15317Y18300D01*
X15247Y18271D01*
X15193Y18218D01*
X15164Y18148D01*
X15164Y18097D01*
X15161Y18078D01*
X15150Y18061D01*
X14575Y17487D01*
X14575Y16754D01*
X14571Y16735D01*
X14560Y16719D01*
X14524Y16682D01*
X14495Y16613D01*
X14495Y16537D01*
X14524Y16467D01*
X14577Y16414D01*
X14647Y16385D01*
G37*
G36*
X21616Y15164D02*
X21691Y15164D01*
X21761Y15193D01*
X21815Y15247D01*
X21844Y15317D01*
X21844Y15392D01*
X21815Y15462D01*
X21761Y15515D01*
X21691Y15544D01*
X21616Y15544D01*
X21546Y15515D01*
X21509Y15479D01*
X21494Y15468D01*
X21474Y15464D01*
X20342Y15464D01*
X20323Y15468D01*
X20307Y15479D01*
X18315Y17471D01*
X18304Y17486D01*
X18300Y17506D01*
X18300Y17557D01*
X18271Y17627D01*
X18218Y17681D01*
X18148Y17710D01*
X18070Y17710D01*
X18066Y17707D01*
X18003Y17681D01*
X17949Y17627D01*
X17920Y17557D01*
X17920Y17482D01*
X17949Y17412D01*
X18003Y17359D01*
X18072Y17330D01*
X18124Y17330D01*
X18143Y17326D01*
X18159Y17315D01*
X20230Y15244D01*
X21474Y15244D01*
X21493Y15241D01*
X21509Y15230D01*
X21546Y15193D01*
X21616Y15164D01*
G37*
G36*
X2938Y4082D02*
X3082Y4082D01*
X3215Y4137D01*
X3316Y4239D01*
X3371Y4372D01*
X3371Y4516D01*
X3316Y4648D01*
X3215Y4750D01*
X3101Y4797D01*
X3086Y4807D01*
X3074Y4823D01*
X3070Y4842D01*
X3073Y4862D01*
X3084Y4878D01*
X3101Y4889D01*
X3215Y4937D01*
X3316Y5038D01*
X3343Y5102D01*
X3353Y5118D01*
X3369Y5129D01*
X3389Y5133D01*
X4304Y5133D01*
X4638Y5466D01*
X4638Y8418D01*
X4641Y8436D01*
X4651Y8453D01*
X4667Y8464D01*
X4687Y8468D01*
X4706Y8465D01*
X4711Y8461D01*
X4841Y8408D01*
X4975Y8408D01*
X5098Y8459D01*
X5112Y8469D01*
X5131Y8473D01*
X5151Y8470D01*
X5168Y8459D01*
X5179Y8443D01*
X5183Y8423D01*
X5183Y7260D01*
X7310Y5133D01*
X7927Y5133D01*
X7945Y5129D01*
X7962Y5119D01*
X7973Y5102D01*
X7999Y5038D01*
X8101Y4937D01*
X8215Y4889D01*
X8230Y4880D01*
X8241Y4864D01*
X8246Y4844D01*
X8242Y4825D01*
X8231Y4808D01*
X8215Y4797D01*
X8101Y4750D01*
X7999Y4648D01*
X7944Y4516D01*
X7944Y4372D01*
X7999Y4239D01*
X8101Y4137D01*
X8234Y4082D01*
X8377Y4082D01*
X8510Y4137D01*
X8612Y4239D01*
X8667Y4372D01*
X8667Y4516D01*
X8612Y4648D01*
X8510Y4750D01*
X8396Y4797D01*
X8381Y4807D01*
X8370Y4823D01*
X8365Y4842D01*
X8369Y4862D01*
X8380Y4878D01*
X8396Y4889D01*
X8510Y4937D01*
X8612Y5038D01*
X8667Y5171D01*
X8667Y5315D01*
X8616Y5437D01*
X8612Y5455D01*
X8616Y5475D01*
X8627Y5491D01*
X8740Y5604D01*
X8877Y5842D01*
X8948Y6106D01*
X8948Y6380D01*
X8877Y6644D01*
X8789Y6796D01*
X8782Y6820D01*
X8786Y6839D01*
X8796Y6856D01*
X8813Y6867D01*
X8832Y6871D01*
X8872Y6871D01*
X9082Y6958D01*
X9244Y7119D01*
X9331Y7330D01*
X9331Y7414D01*
X8186Y7414D01*
X8186Y7330D01*
X8187Y7328D01*
X8190Y7317D01*
X8189Y7297D01*
X8181Y7279D01*
X8166Y7266D01*
X8147Y7259D01*
X8127Y7260D01*
X8045Y7283D01*
X7771Y7283D01*
X7507Y7212D01*
X7269Y7075D01*
X7076Y6881D01*
X6939Y6644D01*
X6868Y6380D01*
X6868Y6106D01*
X6900Y5986D01*
X6902Y5975D01*
X6899Y5955D01*
X6888Y5938D01*
X6872Y5927D01*
X6853Y5923D01*
X6833Y5926D01*
X6817Y5937D01*
X5418Y7336D01*
X5407Y7352D01*
X5403Y7372D01*
X5403Y9358D01*
X5406Y9376D01*
X5417Y9392D01*
X5434Y9404D01*
X5453Y9408D01*
X5475Y9408D01*
X5598Y9459D01*
X5692Y9553D01*
X5743Y9676D01*
X5743Y9810D01*
X5692Y9933D01*
X5598Y10027D01*
X5475Y10078D01*
X5341Y10078D01*
X5218Y10027D01*
X5204Y10017D01*
X5184Y10012D01*
X5165Y10016D01*
X5148Y10027D01*
X5137Y10043D01*
X5133Y10062D01*
X5133Y16221D01*
X4142Y17212D01*
X4131Y17228D01*
X4127Y17247D01*
X4127Y17334D01*
X4130Y17351D01*
X4141Y17368D01*
X4157Y17380D01*
X4176Y17384D01*
X4196Y17380D01*
X4212Y17369D01*
X4223Y17359D01*
X4293Y17330D01*
X4369Y17330D01*
X4438Y17359D01*
X4492Y17412D01*
X4521Y17482D01*
X4521Y17557D01*
X4492Y17627D01*
X4438Y17681D01*
X4369Y17710D01*
X4293Y17710D01*
X4223Y17681D01*
X4187Y17644D01*
X4171Y17634D01*
X4151Y17630D01*
X4136Y17630D01*
X4117Y17633D01*
X4101Y17644D01*
X4090Y17655D01*
X3720Y17655D01*
X3433Y17368D01*
X3433Y16884D01*
X4668Y15648D01*
X4679Y15633D01*
X4683Y15613D01*
X4683Y10062D01*
X4680Y10045D01*
X4669Y10028D01*
X4653Y10017D01*
X4634Y10012D01*
X4614Y10016D01*
X4598Y10027D01*
X4475Y10078D01*
X4341Y10078D01*
X4218Y10027D01*
X4124Y9933D01*
X4073Y9810D01*
X4073Y9676D01*
X4124Y9553D01*
X4218Y9459D01*
X4341Y9408D01*
X4475Y9408D01*
X4598Y9459D01*
X4612Y9469D01*
X4631Y9473D01*
X4651Y9470D01*
X4668Y9459D01*
X4679Y9443D01*
X4683Y9423D01*
X4683Y9239D01*
X4679Y9220D01*
X4668Y9204D01*
X4413Y8948D01*
X4413Y8533D01*
X4414Y8532D01*
X4418Y8512D01*
X4418Y6760D01*
X4416Y6749D01*
X4408Y6731D01*
X4394Y6718D01*
X4375Y6711D01*
X4355Y6712D01*
X4337Y6720D01*
X4324Y6735D01*
X4240Y6881D01*
X4046Y7075D01*
X3809Y7212D01*
X3545Y7283D01*
X3271Y7283D01*
X3188Y7260D01*
X3177Y7259D01*
X3158Y7262D01*
X3141Y7273D01*
X3129Y7289D01*
X3125Y7308D01*
X3129Y7328D01*
X3130Y7330D01*
X3130Y7414D01*
X1985Y7414D01*
X1985Y7330D01*
X2072Y7119D01*
X2233Y6958D01*
X2444Y6871D01*
X2483Y6871D01*
X2507Y6865D01*
X2522Y6853D01*
X2531Y6835D01*
X2533Y6815D01*
X2527Y6796D01*
X2439Y6644D01*
X2368Y6380D01*
X2368Y6106D01*
X2439Y5842D01*
X2576Y5604D01*
X2689Y5491D01*
X2699Y5476D01*
X2703Y5456D01*
X2700Y5437D01*
X2649Y5315D01*
X2649Y5171D01*
X2704Y5038D01*
X2806Y4937D01*
X2920Y4889D01*
X2934Y4880D01*
X2946Y4864D01*
X2950Y4844D01*
X2947Y4825D01*
X2936Y4808D01*
X2920Y4797D01*
X2806Y4750D01*
X2704Y4648D01*
X2649Y4516D01*
X2649Y4372D01*
X2704Y4239D01*
X2806Y4137D01*
X2938Y4082D01*
G37*
G36*
X3033Y12527D02*
X3109Y12527D01*
X3178Y12555D01*
X3232Y12609D01*
X3261Y12679D01*
X3261Y12759D01*
X3265Y12777D01*
X3276Y12794D01*
X3369Y12887D01*
X3385Y12898D01*
X3404Y12902D01*
X3934Y12902D01*
X3953Y12898D01*
X3970Y12887D01*
X4026Y12831D01*
X4096Y12802D01*
X4172Y12802D01*
X4241Y12831D01*
X4295Y12885D01*
X4324Y12954D01*
X4324Y13030D01*
X4295Y13100D01*
X4241Y13153D01*
X4172Y13182D01*
X4096Y13182D01*
X4026Y13153D01*
X3970Y13097D01*
X3954Y13086D01*
X3934Y13082D01*
X3309Y13082D01*
X3148Y12921D01*
X3132Y12910D01*
X3113Y12907D01*
X3033Y12907D01*
X2963Y12878D01*
X2910Y12824D01*
X2881Y12754D01*
X2881Y12679D01*
X2910Y12609D01*
X2963Y12555D01*
X3033Y12527D01*
G37*
G36*
X17270Y11356D02*
X17407Y11356D01*
X17534Y11408D01*
X17631Y11505D01*
X17684Y11632D01*
X17684Y11770D01*
X17631Y11897D01*
X17534Y11994D01*
X17407Y12047D01*
X17270Y12047D01*
X17143Y11994D01*
X17046Y11897D01*
X16993Y11770D01*
X16993Y11632D01*
X17046Y11505D01*
X17143Y11408D01*
X17270Y11356D01*
G37*
G36*
X15270Y11356D02*
X15407Y11356D01*
X15534Y11408D01*
X15631Y11505D01*
X15684Y11632D01*
X15684Y11770D01*
X15631Y11897D01*
X15534Y11994D01*
X15407Y12047D01*
X15270Y12047D01*
X15143Y11994D01*
X15046Y11897D01*
X14993Y11770D01*
X14993Y11632D01*
X15046Y11505D01*
X15143Y11408D01*
X15270Y11356D01*
G37*
G36*
X9805Y6503D02*
X9880Y6503D01*
X9950Y6532D01*
X10004Y6585D01*
X10033Y6655D01*
X10033Y6731D01*
X10004Y6801D01*
X9967Y6837D01*
X9956Y6853D01*
X9953Y6872D01*
X9953Y11463D01*
X9653Y11762D01*
X9643Y11778D01*
X9639Y11797D01*
X9639Y11849D01*
X9610Y11919D01*
X9556Y11972D01*
X9487Y12001D01*
X9411Y12001D01*
X9341Y11972D01*
X9288Y11919D01*
X9259Y11849D01*
X9259Y11773D01*
X9288Y11703D01*
X9341Y11650D01*
X9411Y11621D01*
X9463Y11621D01*
X9481Y11617D01*
X9498Y11606D01*
X9718Y11386D01*
X9729Y11371D01*
X9733Y11351D01*
X9733Y6872D01*
X9729Y6854D01*
X9718Y6837D01*
X9681Y6801D01*
X9653Y6731D01*
X9653Y6655D01*
X9681Y6585D01*
X9735Y6532D01*
X9805Y6503D01*
G37*
G36*
X7341Y9408D02*
X7475Y9408D01*
X7598Y9459D01*
X7692Y9553D01*
X7743Y9676D01*
X7743Y9810D01*
X7692Y9933D01*
X7598Y10027D01*
X7475Y10078D01*
X7341Y10078D01*
X7218Y10027D01*
X7124Y9933D01*
X7073Y9810D01*
X7073Y9676D01*
X7124Y9553D01*
X7218Y9459D01*
X7341Y9408D01*
G37*
G36*
X3341Y9408D02*
X3475Y9408D01*
X3598Y9459D01*
X3692Y9553D01*
X3743Y9676D01*
X3743Y9810D01*
X3692Y9933D01*
X3598Y10027D01*
X3475Y10078D01*
X3341Y10078D01*
X3218Y10027D01*
X3124Y9933D01*
X3073Y9810D01*
X3073Y9676D01*
X3124Y9553D01*
X3218Y9459D01*
X3341Y9408D01*
G37*
G36*
X7841Y8408D02*
X7975Y8408D01*
X8098Y8459D01*
X8192Y8553D01*
X8243Y8676D01*
X8243Y8810D01*
X8192Y8933D01*
X8098Y9027D01*
X7975Y9078D01*
X7841Y9078D01*
X7718Y9027D01*
X7624Y8933D01*
X7573Y8810D01*
X7573Y8676D01*
X7624Y8553D01*
X7718Y8459D01*
X7841Y8408D01*
G37*
G36*
X5841Y8408D02*
X5975Y8408D01*
X6098Y8459D01*
X6192Y8553D01*
X6243Y8676D01*
X6243Y8810D01*
X6192Y8933D01*
X6098Y9027D01*
X5975Y9078D01*
X5841Y9078D01*
X5718Y9027D01*
X5624Y8933D01*
X5573Y8810D01*
X5573Y8676D01*
X5624Y8553D01*
X5718Y8459D01*
X5841Y8408D01*
G37*
G36*
X3841Y8408D02*
X3975Y8408D01*
X4098Y8459D01*
X4192Y8553D01*
X4243Y8676D01*
X4243Y8810D01*
X4192Y8933D01*
X4098Y9027D01*
X3975Y9078D01*
X3841Y9078D01*
X3718Y9027D01*
X3624Y8933D01*
X3573Y8810D01*
X3573Y8676D01*
X3624Y8553D01*
X3718Y8459D01*
X3841Y8408D01*
G37*
G36*
X8186Y7474D02*
X8728Y7474D01*
X8728Y8016D01*
X8644Y8016D01*
X8434Y7929D01*
X8273Y7768D01*
X8186Y7558D01*
X8186Y7474D01*
G37*
G36*
X1985Y7474D02*
X2527Y7474D01*
X2527Y8016D01*
X2444Y8016D01*
X2233Y7929D01*
X2072Y7768D01*
X1985Y7558D01*
X1985Y7474D01*
G37*
G36*
X2587Y7474D02*
X3130Y7474D01*
X3130Y7558D01*
X3043Y7768D01*
X2882Y7929D01*
X2671Y8016D01*
X2587Y8016D01*
X2587Y7474D01*
G37*
G36*
X8788Y7474D02*
X9331Y7474D01*
X9331Y7558D01*
X9244Y7768D01*
X9082Y7929D01*
X8872Y8016D01*
X8788Y8016D01*
X8788Y7474D01*
G37*
%LPD*%
G36*
X9205Y26275D02*
X9186Y26271D01*
X9038Y26271D01*
X9021Y26274D01*
X9004Y26285D01*
X8993Y26301D01*
X8988Y26321D01*
X8992Y26340D01*
X9038Y26451D01*
X9038Y26569D01*
X8992Y26681D01*
X8988Y26699D01*
X8991Y26718D01*
X9002Y26735D01*
X9018Y26746D01*
X9038Y26750D01*
X9187Y26750D01*
X9204Y26747D01*
X9221Y26737D01*
X9233Y26720D01*
X9237Y26701D01*
X9233Y26681D01*
X9190Y26577D01*
X9190Y26540D01*
X9865Y26540D01*
X9865Y26577D01*
X9822Y26681D01*
X9818Y26699D01*
X9822Y26718D01*
X9832Y26735D01*
X9849Y26746D01*
X9868Y26750D01*
X9974Y26750D01*
X9992Y26747D01*
X10009Y26737D01*
X10020Y26720D01*
X10024Y26701D01*
X10020Y26681D01*
X9977Y26577D01*
X9977Y26540D01*
X10653Y26540D01*
X10653Y26577D01*
X10610Y26681D01*
X10606Y26699D01*
X10609Y26718D01*
X10620Y26735D01*
X10636Y26746D01*
X10656Y26750D01*
X10805Y26750D01*
X10822Y26747D01*
X10839Y26737D01*
X10851Y26720D01*
X10855Y26701D01*
X10851Y26681D01*
X10805Y26569D01*
X10805Y26451D01*
X10850Y26340D01*
X10854Y26323D01*
X10851Y26303D01*
X10840Y26286D01*
X10824Y26275D01*
X10804Y26271D01*
X10657Y26271D01*
X10639Y26274D01*
X10622Y26285D01*
X10611Y26301D01*
X10607Y26321D01*
X10610Y26340D01*
X10653Y26443D01*
X10653Y26480D01*
X9977Y26480D01*
X9977Y26443D01*
X10020Y26340D01*
X10023Y26323D01*
X10020Y26303D01*
X10009Y26286D01*
X9993Y26275D01*
X9973Y26271D01*
X9869Y26271D01*
X9851Y26274D01*
X9835Y26285D01*
X9823Y26301D01*
X9819Y26321D01*
X9823Y26340D01*
X9865Y26443D01*
X9865Y26480D01*
X9190Y26480D01*
X9190Y26443D01*
X9232Y26340D01*
X9236Y26323D01*
X9233Y26303D01*
X9222Y26286D01*
X9205Y26275D01*
G37*
D10*
X7559Y25722D03*
D11*
X7953Y26510D03*
X7559Y24738D03*
X7953Y23951D03*
X8346Y25722D03*
X8740Y26510D03*
X8346Y24738D03*
X8740Y23951D03*
X9134Y25722D03*
X9528Y26510D03*
X9134Y24738D03*
X9528Y23951D03*
X9921Y25722D03*
X10315Y26510D03*
X9921Y24738D03*
X10315Y23951D03*
X10709Y25722D03*
X11102Y26510D03*
X10709Y24738D03*
X11102Y23951D03*
X11496Y25722D03*
X11496Y24738D03*
X12677Y26510D03*
X12677Y23951D03*
X13071Y25722D03*
X13465Y26510D03*
X13071Y24738D03*
X13465Y23951D03*
X13858Y25722D03*
X14252Y26510D03*
X13858Y24738D03*
X14252Y23951D03*
X14646Y25722D03*
X15039Y26510D03*
X14646Y24738D03*
X15039Y23951D03*
D12*
X1181Y18750D03*
X1181Y19476D03*
X1169Y20202D03*
X1181Y20928D03*
X1181Y21654D03*
D13*
X2557Y7444D03*
X8758Y7444D03*
D14*
X3408Y9743D03*
X3908Y8743D03*
X4408Y9743D03*
X4908Y8743D03*
X5408Y9743D03*
X5908Y8743D03*
X7408Y9743D03*
X7908Y8743D03*
D15*
X8305Y5243D03*
X8305Y4444D03*
X3010Y5243D03*
X3010Y4444D03*
D16*
X15339Y11701D03*
X17339Y11701D03*
D17*
X7165Y17953D03*
X7165Y17244D03*
X6063Y18976D03*
X7047Y18976D03*
X8543Y18031D03*
X10433Y19291D03*
X10472Y18189D03*
X10472Y17283D03*
X10512Y16417D03*
X8661Y15079D03*
X10197Y15079D03*
X8661Y13465D03*
X7205Y13465D03*
X5591Y13425D03*
X4213Y13858D03*
X5433Y14843D03*
X2717Y13898D03*
X1457Y11102D03*
X1457Y10000D03*
X1457Y9055D03*
X1142Y7520D03*
X1142Y6654D03*
X1142Y5827D03*
X1142Y4843D03*
X10315Y7461D03*
X13110Y7461D03*
X11732Y7461D03*
X13110Y6063D03*
X13110Y4508D03*
X11732Y6063D03*
X11732Y4508D03*
X19488Y8031D03*
X21496Y8031D03*
X19488Y6358D03*
X21496Y6358D03*
X19488Y4606D03*
X21496Y4606D03*
X11417Y22441D03*
X13583Y22441D03*
X15551Y22441D03*
X13583Y20669D03*
X13583Y18898D03*
X11811Y18898D03*
X11811Y20669D03*
X19803Y17205D03*
X19094Y16929D03*
X18740Y15079D03*
X18740Y14134D03*
X21811Y17047D03*
X21811Y16063D03*
X15118Y10512D03*
X19016Y10551D03*
X12992Y14409D03*
X11220Y12756D03*
X11220Y10945D03*
X19449Y19488D03*
X19449Y18268D03*
X17874Y21339D03*
X20079Y21850D03*
X21732Y21850D03*
X17835Y23780D03*
X866Y14449D03*
X827Y15827D03*
X827Y17244D03*
X17126Y10280D03*
X12523Y10945D03*
X12523Y12795D03*
X4134Y12992D03*
X3071Y12717D03*
D18*
X3346Y12992D01*
X4134Y12992D01*
D17*
X1378Y12402D03*
X564Y12402D03*
D18*
X1378Y12402D01*
D17*
X9449Y19488D03*
D19*
X13564Y23603D01*
X13609Y23603D01*
X13904Y24095D02*
X14108Y24299D01*
X14206Y24299D01*
X14646Y24738D01*
X13904Y23899D02*
X13609Y23603D01*
X13904Y23899D02*
X13904Y24095D01*
X14646Y24738D02*
X14646Y25722D01*
D17*
X9449Y11811D03*
D19*
X9843Y11417D01*
X9843Y6693D01*
D17*
X9843Y6693D03*
D19*
X8305Y5243D02*
X7356Y5243D01*
X5293Y7305D01*
X5023Y16175D02*
X3937Y17261D01*
X5023Y16175D02*
X5023Y9583D01*
X5293Y9313D02*
X5293Y7305D01*
X5293Y9313D02*
X5023Y9583D01*
D17*
X3937Y17286D03*
D19*
X3937Y17261D01*
D17*
X4331Y17520D03*
D19*
X3543Y17323D02*
X3543Y16929D01*
X4523Y8902D02*
X4523Y8583D01*
X4528Y8578D01*
X4528Y5512D01*
X4793Y15679D02*
X3543Y16929D01*
X4793Y15679D02*
X4793Y9173D01*
X4523Y8902D01*
X4259Y5243D02*
X3010Y5243D01*
X4259Y5243D02*
X4528Y5512D01*
X4331Y17520D02*
X4070Y17520D01*
X4044Y17545D01*
X3766Y17545D01*
X3543Y17323D01*
D17*
X1912Y18841D03*
D18*
X1821Y18750D01*
X1181Y18750D01*
X471Y21523D02*
X1101Y22153D01*
X1181Y19066D02*
X1181Y18750D01*
X1181Y19066D02*
X471Y19776D01*
X471Y21523D01*
X1101Y22153D02*
X3649Y22153D01*
X7231Y25735D01*
X7231Y25998D01*
X7415Y26181D01*
X11024Y26181D01*
X11417Y25787D01*
X11429Y25776D01*
X11482Y25722D02*
X11496Y25722D01*
X11482Y25722D02*
X11429Y25776D01*
D17*
X2165Y19094D03*
D18*
X1784Y19476D01*
X1181Y19476D01*
X9134Y25472D02*
X9134Y25722D01*
X7625Y23964D02*
X6496Y22835D01*
X7625Y23964D02*
X7625Y24087D01*
X8482Y24410D02*
X8674Y24602D01*
X8674Y25013D02*
X9134Y25472D01*
X8674Y25013D02*
X8674Y24602D01*
X7949Y24410D02*
X7625Y24087D01*
X7949Y24410D02*
X8482Y24410D01*
X1181Y19476D02*
X591Y20066D01*
X591Y21473D01*
X1151Y22033D01*
X3699Y22033D02*
X4500Y22835D01*
X6496Y22835D01*
X3699Y22033D02*
X1151Y22033D01*
D17*
X2480Y19409D03*
D18*
X1688Y20202D01*
X1169Y20202D01*
D17*
X2756Y19685D03*
D18*
X1513Y20928D01*
X1181Y20928D01*
D17*
X2756Y20079D03*
D18*
X1181Y21654D01*
D17*
X15354Y18110D03*
D19*
X14685Y17441D01*
X14685Y16575D01*
D17*
X14685Y16575D03*
X18110Y18037D03*
D19*
X17986Y17913D01*
X15748Y17913D01*
D17*
X15353Y17519D03*
D19*
X15748Y17913D01*
D17*
X17368Y19094D03*
X19764Y16535D03*
D19*
X18166Y18296D02*
X17368Y19094D01*
X18166Y18296D02*
X18217Y18296D01*
X19764Y16750D01*
X19764Y16535D01*
D17*
X21654Y15354D03*
D19*
X20276Y15354D01*
X18110Y17520D01*
D17*
X18110Y17520D03*
M02*
