G04 EAGLE Gerber RS-274X export*
G75*
%MOIN*%
%FSLAX34Y34*%
%LPD*%
%INSilkscreen Bottom*%
%IPPOS*%
%AMOC8*
5,1,8,0,0,1.08239X$1,22.5*%
G01*
G04 Define Apertures*
%ADD10C,0.010000*%
G36*
X16683Y6102D02*
X16410Y6102D01*
X16410Y8158D01*
X16789Y8158D01*
X17319Y7013D01*
X17867Y8158D01*
X18240Y8158D01*
X18240Y6102D01*
X17985Y6102D01*
X17985Y7874D01*
X17417Y6668D01*
X17254Y6668D01*
X16683Y7874D01*
X16683Y6102D01*
G37*
G36*
X13109Y6062D02*
X13062Y6063D01*
X13015Y6066D01*
X12967Y6070D01*
X12919Y6077D01*
X12870Y6085D01*
X12822Y6095D01*
X12772Y6106D01*
X12723Y6120D01*
X12673Y6134D01*
X12625Y6150D01*
X12577Y6165D01*
X12531Y6182D01*
X12485Y6199D01*
X12441Y6217D01*
X12397Y6235D01*
X12355Y6254D01*
X12355Y7136D01*
X13176Y7136D01*
X13176Y6896D01*
X12625Y6896D01*
X12625Y6392D01*
X12651Y6382D01*
X12677Y6373D01*
X12704Y6363D01*
X12733Y6355D01*
X12762Y6346D01*
X12793Y6339D01*
X12824Y6331D01*
X12857Y6325D01*
X12890Y6318D01*
X12923Y6313D01*
X12956Y6309D01*
X12989Y6305D01*
X13022Y6302D01*
X13055Y6300D01*
X13088Y6299D01*
X13121Y6298D01*
X13166Y6299D01*
X13209Y6302D01*
X13251Y6306D01*
X13292Y6312D01*
X13332Y6320D01*
X13371Y6330D01*
X13408Y6341D01*
X13445Y6354D01*
X13480Y6368D01*
X13514Y6385D01*
X13547Y6403D01*
X13578Y6423D01*
X13608Y6445D01*
X13638Y6468D01*
X13666Y6493D01*
X13692Y6520D01*
X13718Y6548D01*
X13742Y6578D01*
X13764Y6609D01*
X13784Y6642D01*
X13803Y6676D01*
X13820Y6711D01*
X13836Y6748D01*
X13850Y6786D01*
X13862Y6825D01*
X13873Y6866D01*
X13882Y6908D01*
X13889Y6952D01*
X13895Y6997D01*
X13899Y7044D01*
X13902Y7091D01*
X13902Y7140D01*
X13902Y7187D01*
X13899Y7233D01*
X13895Y7277D01*
X13890Y7320D01*
X13883Y7362D01*
X13874Y7402D01*
X13864Y7441D01*
X13852Y7480D01*
X13839Y7516D01*
X13824Y7552D01*
X13807Y7587D01*
X13789Y7620D01*
X13770Y7652D01*
X13749Y7682D01*
X13726Y7712D01*
X13701Y7740D01*
X13676Y7767D01*
X13649Y7792D01*
X13621Y7816D01*
X13592Y7837D01*
X13562Y7857D01*
X13531Y7875D01*
X13498Y7892D01*
X13465Y7907D01*
X13430Y7919D01*
X13394Y7931D01*
X13357Y7940D01*
X13319Y7948D01*
X13280Y7954D01*
X13240Y7958D01*
X13198Y7961D01*
X13155Y7962D01*
X13118Y7961D01*
X13081Y7960D01*
X13045Y7958D01*
X13010Y7955D01*
X12977Y7951D01*
X12944Y7946D01*
X12912Y7940D01*
X12881Y7934D01*
X12852Y7926D01*
X12823Y7919D01*
X12794Y7910D01*
X12767Y7902D01*
X12740Y7893D01*
X12715Y7883D01*
X12690Y7873D01*
X12665Y7862D01*
X12626Y7843D01*
X12586Y7822D01*
X12546Y7799D01*
X12505Y7773D01*
X12433Y7724D01*
X12405Y7704D01*
X12381Y7686D01*
X12356Y7686D01*
X12356Y8010D01*
X12409Y8034D01*
X12460Y8057D01*
X12511Y8078D01*
X12560Y8096D01*
X12609Y8113D01*
X12657Y8128D01*
X12704Y8142D01*
X12750Y8153D01*
X12796Y8163D01*
X12841Y8172D01*
X12886Y8179D01*
X12931Y8185D01*
X12976Y8189D01*
X13020Y8193D01*
X13065Y8195D01*
X13109Y8195D01*
X13140Y8195D01*
X13171Y8194D01*
X13201Y8193D01*
X13231Y8191D01*
X13260Y8188D01*
X13289Y8185D01*
X13318Y8182D01*
X13346Y8177D01*
X13374Y8173D01*
X13402Y8167D01*
X13429Y8162D01*
X13455Y8155D01*
X13481Y8148D01*
X13507Y8141D01*
X13532Y8133D01*
X13557Y8124D01*
X13582Y8115D01*
X13606Y8105D01*
X13630Y8095D01*
X13653Y8084D01*
X13676Y8072D01*
X13698Y8060D01*
X13720Y8048D01*
X13742Y8035D01*
X13763Y8021D01*
X13783Y8007D01*
X13804Y7992D01*
X13824Y7977D01*
X13843Y7961D01*
X13862Y7945D01*
X13881Y7928D01*
X13899Y7910D01*
X13917Y7892D01*
X13934Y7874D01*
X13950Y7855D01*
X13966Y7836D01*
X13982Y7816D01*
X13997Y7796D01*
X14011Y7775D01*
X14025Y7755D01*
X14038Y7733D01*
X14051Y7712D01*
X14063Y7690D01*
X14074Y7667D01*
X14085Y7644D01*
X14096Y7621D01*
X14105Y7597D01*
X14115Y7573D01*
X14123Y7549D01*
X14132Y7524D01*
X14139Y7498D01*
X14146Y7473D01*
X14153Y7446D01*
X14159Y7420D01*
X14164Y7393D01*
X14169Y7366D01*
X14173Y7338D01*
X14177Y7310D01*
X14180Y7281D01*
X14182Y7252D01*
X14184Y7223D01*
X14186Y7193D01*
X14186Y7163D01*
X14187Y7132D01*
X14186Y7099D01*
X14186Y7066D01*
X14184Y7034D01*
X14182Y7002D01*
X14179Y6971D01*
X14176Y6940D01*
X14172Y6910D01*
X14167Y6880D01*
X14162Y6851D01*
X14157Y6822D01*
X14150Y6794D01*
X14143Y6767D01*
X14136Y6740D01*
X14128Y6713D01*
X14119Y6688D01*
X14109Y6662D01*
X14099Y6637D01*
X14089Y6613D01*
X14078Y6589D01*
X14067Y6566D01*
X14055Y6543D01*
X14042Y6521D01*
X14029Y6499D01*
X14016Y6478D01*
X14002Y6457D01*
X13987Y6437D01*
X13972Y6418D01*
X13957Y6399D01*
X13941Y6380D01*
X13924Y6362D01*
X13907Y6344D01*
X13890Y6327D01*
X13872Y6311D01*
X13854Y6295D01*
X13835Y6280D01*
X13816Y6265D01*
X13796Y6251D01*
X13776Y6237D01*
X13755Y6224D01*
X13734Y6211D01*
X13713Y6199D01*
X13691Y6188D01*
X13668Y6176D01*
X13645Y6166D01*
X13622Y6156D01*
X13598Y6146D01*
X13574Y6137D01*
X13549Y6129D01*
X13524Y6121D01*
X13498Y6113D01*
X13472Y6106D01*
X13446Y6100D01*
X13420Y6094D01*
X13393Y6088D01*
X13366Y6083D01*
X13339Y6079D01*
X13311Y6075D01*
X13283Y6072D01*
X13255Y6069D01*
X13226Y6066D01*
X13197Y6065D01*
X13168Y6063D01*
X13138Y6063D01*
X13109Y6062D01*
G37*
G36*
X15857Y6102D02*
X14503Y6102D01*
X14503Y6345D01*
X15584Y6345D01*
X15584Y7109D01*
X14503Y7109D01*
X14503Y7352D01*
X15584Y7352D01*
X15584Y7915D01*
X14503Y7915D01*
X14503Y8158D01*
X15857Y8158D01*
X15857Y6102D01*
G37*
G36*
X19033Y6102D02*
X18774Y6102D01*
X18774Y8250D01*
X19033Y8250D01*
X19033Y6102D01*
G37*
G36*
X1797Y19954D02*
X1780Y19955D01*
X1763Y19956D01*
X1747Y19958D01*
X1731Y19961D01*
X1716Y19965D01*
X1702Y19970D01*
X1688Y19976D01*
X1675Y19983D01*
X1663Y19991D01*
X1651Y19999D01*
X1640Y20008D01*
X1630Y20018D01*
X1620Y20029D01*
X1611Y20041D01*
X1603Y20053D01*
X1596Y20066D01*
X1590Y20080D01*
X1584Y20095D01*
X1579Y20109D01*
X1575Y20125D01*
X1572Y20141D01*
X1570Y20158D01*
X1569Y20175D01*
X1569Y20193D01*
X1569Y20210D01*
X1570Y20228D01*
X1572Y20244D01*
X1575Y20260D01*
X1579Y20276D01*
X1584Y20290D01*
X1589Y20305D01*
X1596Y20318D01*
X1603Y20331D01*
X1611Y20343D01*
X1620Y20354D01*
X1629Y20365D01*
X1639Y20375D01*
X1650Y20384D01*
X1662Y20392D01*
X1675Y20399D01*
X1688Y20406D01*
X1701Y20411D01*
X1716Y20416D01*
X1731Y20420D01*
X1746Y20423D01*
X1762Y20425D01*
X1779Y20427D01*
X1796Y20427D01*
X1809Y20427D01*
X1822Y20426D01*
X1835Y20425D01*
X1847Y20423D01*
X1859Y20421D01*
X1870Y20418D01*
X1892Y20412D01*
X1912Y20403D01*
X1931Y20392D01*
X1948Y20380D01*
X1964Y20365D01*
X1978Y20349D01*
X1991Y20331D01*
X2001Y20312D01*
X2009Y20291D01*
X2016Y20268D01*
X2021Y20245D01*
X2022Y20232D01*
X2024Y20219D01*
X2024Y20206D01*
X2025Y20193D01*
X2024Y20175D01*
X2023Y20157D01*
X2021Y20141D01*
X2018Y20125D01*
X2014Y20109D01*
X2009Y20094D01*
X2004Y20080D01*
X1997Y20066D01*
X1990Y20053D01*
X1982Y20040D01*
X1974Y20029D01*
X1964Y20018D01*
X1954Y20008D01*
X1943Y19999D01*
X1931Y19990D01*
X1919Y19983D01*
X1906Y19976D01*
X1892Y19970D01*
X1878Y19965D01*
X1863Y19961D01*
X1847Y19958D01*
X1831Y19956D01*
X1814Y19955D01*
X1797Y19954D01*
G37*
%LPC*%
G36*
X1797Y20005D02*
X1816Y20005D01*
X1833Y20008D01*
X1850Y20012D01*
X1866Y20017D01*
X1880Y20024D01*
X1894Y20033D01*
X1906Y20044D01*
X1918Y20055D01*
X1928Y20069D01*
X1937Y20083D01*
X1944Y20098D01*
X1950Y20115D01*
X1955Y20133D01*
X1959Y20152D01*
X1961Y20172D01*
X1961Y20193D01*
X1961Y20214D01*
X1959Y20234D01*
X1955Y20252D01*
X1950Y20270D01*
X1944Y20286D01*
X1937Y20301D01*
X1928Y20315D01*
X1918Y20328D01*
X1907Y20339D01*
X1894Y20349D01*
X1881Y20357D01*
X1866Y20364D01*
X1850Y20369D01*
X1833Y20373D01*
X1815Y20375D01*
X1796Y20376D01*
X1777Y20375D01*
X1759Y20373D01*
X1742Y20369D01*
X1727Y20364D01*
X1712Y20357D01*
X1699Y20349D01*
X1686Y20339D01*
X1675Y20327D01*
X1665Y20314D01*
X1656Y20301D01*
X1649Y20285D01*
X1643Y20269D01*
X1638Y20252D01*
X1635Y20233D01*
X1633Y20213D01*
X1632Y20193D01*
X1633Y20171D01*
X1635Y20150D01*
X1638Y20131D01*
X1643Y20113D01*
X1649Y20096D01*
X1656Y20081D01*
X1665Y20067D01*
X1675Y20054D01*
X1686Y20042D01*
X1698Y20032D01*
X1712Y20024D01*
X1727Y20017D01*
X1742Y20012D01*
X1759Y20008D01*
X1778Y20005D01*
X1797Y20005D01*
G37*
%LPD*%
G36*
X2427Y19245D02*
X2410Y19246D01*
X2393Y19247D01*
X2377Y19250D01*
X2362Y19253D01*
X2347Y19257D01*
X2332Y19262D01*
X2319Y19268D01*
X2305Y19274D01*
X2293Y19282D01*
X2281Y19291D01*
X2270Y19300D01*
X2260Y19310D01*
X2250Y19321D01*
X2242Y19332D01*
X2234Y19345D01*
X2226Y19358D01*
X2220Y19371D01*
X2214Y19386D01*
X2210Y19401D01*
X2206Y19416D01*
X2203Y19432D01*
X2200Y19449D01*
X2199Y19466D01*
X2199Y19484D01*
X2199Y19502D01*
X2200Y19519D01*
X2203Y19536D01*
X2206Y19552D01*
X2209Y19567D01*
X2214Y19582D01*
X2220Y19596D01*
X2226Y19609D01*
X2233Y19622D01*
X2241Y19634D01*
X2250Y19646D01*
X2259Y19656D01*
X2270Y19666D01*
X2281Y19675D01*
X2292Y19683D01*
X2305Y19691D01*
X2318Y19697D01*
X2332Y19703D01*
X2346Y19708D01*
X2361Y19711D01*
X2376Y19715D01*
X2393Y19717D01*
X2409Y19718D01*
X2426Y19718D01*
X2440Y19718D01*
X2453Y19717D01*
X2465Y19716D01*
X2477Y19715D01*
X2489Y19712D01*
X2501Y19710D01*
X2522Y19703D01*
X2543Y19694D01*
X2561Y19683D01*
X2579Y19671D01*
X2594Y19656D01*
X2609Y19640D01*
X2621Y19622D01*
X2631Y19603D01*
X2640Y19582D01*
X2646Y19560D01*
X2651Y19536D01*
X2653Y19524D01*
X2654Y19511D01*
X2655Y19497D01*
X2655Y19484D01*
X2654Y19466D01*
X2653Y19449D01*
X2651Y19432D01*
X2648Y19416D01*
X2644Y19400D01*
X2640Y19385D01*
X2634Y19371D01*
X2628Y19357D01*
X2621Y19344D01*
X2613Y19332D01*
X2604Y19320D01*
X2595Y19309D01*
X2584Y19299D01*
X2573Y19290D01*
X2562Y19282D01*
X2549Y19274D01*
X2536Y19267D01*
X2522Y19262D01*
X2508Y19257D01*
X2493Y19253D01*
X2477Y19249D01*
X2461Y19247D01*
X2444Y19246D01*
X2427Y19245D01*
G37*
%LPC*%
G36*
X2427Y19296D02*
X2446Y19297D01*
X2464Y19299D01*
X2480Y19303D01*
X2496Y19309D01*
X2511Y19316D01*
X2524Y19325D01*
X2537Y19335D01*
X2548Y19347D01*
X2558Y19360D01*
X2567Y19374D01*
X2574Y19390D01*
X2581Y19406D01*
X2585Y19424D01*
X2589Y19443D01*
X2591Y19463D01*
X2592Y19484D01*
X2591Y19505D01*
X2589Y19525D01*
X2585Y19544D01*
X2581Y19561D01*
X2575Y19578D01*
X2567Y19593D01*
X2559Y19607D01*
X2548Y19619D01*
X2537Y19631D01*
X2525Y19640D01*
X2511Y19649D01*
X2496Y19655D01*
X2481Y19661D01*
X2464Y19665D01*
X2446Y19667D01*
X2426Y19668D01*
X2407Y19667D01*
X2390Y19664D01*
X2373Y19661D01*
X2357Y19655D01*
X2342Y19648D01*
X2329Y19640D01*
X2317Y19630D01*
X2305Y19619D01*
X2295Y19606D01*
X2286Y19592D01*
X2279Y19577D01*
X2273Y19560D01*
X2268Y19543D01*
X2265Y19524D01*
X2263Y19505D01*
X2262Y19484D01*
X2263Y19462D01*
X2265Y19442D01*
X2268Y19422D01*
X2273Y19404D01*
X2279Y19388D01*
X2286Y19372D01*
X2295Y19358D01*
X2305Y19345D01*
X2316Y19334D01*
X2329Y19324D01*
X2342Y19315D01*
X2357Y19308D01*
X2373Y19303D01*
X2390Y19299D01*
X2408Y19297D01*
X2427Y19296D01*
G37*
%LPD*%
G36*
X2984Y18537D02*
X2966Y18537D01*
X2948Y18539D01*
X2932Y18542D01*
X2917Y18546D01*
X2903Y18551D01*
X2890Y18557D01*
X2878Y18564D01*
X2868Y18572D01*
X2858Y18582D01*
X2850Y18592D01*
X2843Y18603D01*
X2837Y18615D01*
X2833Y18628D01*
X2830Y18641D01*
X2828Y18656D01*
X2827Y18672D01*
X2828Y18683D01*
X2829Y18693D01*
X2831Y18703D01*
X2833Y18713D01*
X2837Y18722D01*
X2841Y18731D01*
X2846Y18739D01*
X2852Y18747D01*
X2853Y18748D01*
X2858Y18754D01*
X2865Y18761D01*
X2873Y18766D01*
X2881Y18771D01*
X2890Y18776D01*
X2900Y18779D01*
X2910Y18782D01*
X2920Y18784D01*
X2920Y18786D01*
X2911Y18788D01*
X2902Y18791D01*
X2894Y18794D01*
X2886Y18799D01*
X2879Y18804D01*
X2873Y18809D01*
X2873Y18809D01*
X2866Y18816D01*
X2861Y18823D01*
X2856Y18830D01*
X2851Y18838D01*
X2847Y18846D01*
X2844Y18854D01*
X2842Y18863D01*
X2840Y18872D01*
X2839Y18882D01*
X2839Y18891D01*
X2839Y18905D01*
X2841Y18917D01*
X2844Y18929D01*
X2849Y18940D01*
X2854Y18951D01*
X2861Y18960D01*
X2869Y18969D01*
X2878Y18978D01*
X2888Y18985D01*
X2900Y18992D01*
X2912Y18997D01*
X2925Y19002D01*
X2938Y19005D01*
X2953Y19008D01*
X2969Y19009D01*
X2985Y19010D01*
X3001Y19009D01*
X3017Y19008D01*
X3031Y19005D01*
X3045Y19002D01*
X3058Y18997D01*
X3069Y18991D01*
X3081Y18985D01*
X3091Y18977D01*
X3100Y18969D01*
X3108Y18960D01*
X3115Y18950D01*
X3120Y18940D01*
X3125Y18929D01*
X3128Y18917D01*
X3129Y18905D01*
X3130Y18892D01*
X3130Y18882D01*
X3129Y18873D01*
X3127Y18864D01*
X3125Y18855D01*
X3122Y18847D01*
X3118Y18838D01*
X3113Y18831D01*
X3108Y18823D01*
X3103Y18816D01*
X3097Y18810D01*
X3090Y18804D01*
X3083Y18799D01*
X3075Y18795D01*
X3067Y18791D01*
X3058Y18788D01*
X3049Y18785D01*
X3049Y18784D01*
X3059Y18782D01*
X3068Y18779D01*
X3077Y18775D01*
X3086Y18771D01*
X3094Y18766D01*
X3101Y18760D01*
X3108Y18754D01*
X3115Y18747D01*
X3121Y18739D01*
X3126Y18730D01*
X3131Y18722D01*
X3134Y18712D01*
X3137Y18703D01*
X3139Y18692D01*
X3140Y18682D01*
X3141Y18671D01*
X3140Y18655D01*
X3138Y18641D01*
X3135Y18627D01*
X3130Y18614D01*
X3125Y18602D01*
X3117Y18591D01*
X3109Y18581D01*
X3099Y18572D01*
X3088Y18564D01*
X3076Y18556D01*
X3064Y18550D01*
X3050Y18546D01*
X3035Y18542D01*
X3019Y18539D01*
X3002Y18537D01*
X2984Y18537D01*
G37*
%LPC*%
G36*
X2983Y18581D02*
X2995Y18581D01*
X3006Y18582D01*
X3016Y18584D01*
X3026Y18587D01*
X3034Y18590D01*
X3042Y18594D01*
X3050Y18599D01*
X3056Y18605D01*
X3062Y18611D01*
X3067Y18618D01*
X3071Y18626D01*
X3074Y18634D01*
X3077Y18643D01*
X3079Y18653D01*
X3080Y18664D01*
X3080Y18676D01*
X3080Y18686D01*
X3079Y18695D01*
X3077Y18704D01*
X3074Y18712D01*
X3070Y18720D01*
X3066Y18727D01*
X3061Y18734D01*
X3055Y18740D01*
X3048Y18745D01*
X3041Y18750D01*
X3033Y18754D01*
X3025Y18757D01*
X3016Y18760D01*
X3006Y18762D01*
X2996Y18763D01*
X2985Y18763D01*
X2974Y18763D01*
X2964Y18762D01*
X2954Y18760D01*
X2944Y18758D01*
X2936Y18755D01*
X2928Y18751D01*
X2921Y18747D01*
X2914Y18741D01*
X2908Y18736D01*
X2903Y18729D01*
X2898Y18722D01*
X2895Y18715D01*
X2892Y18706D01*
X2890Y18697D01*
X2889Y18687D01*
X2888Y18677D01*
X2889Y18665D01*
X2890Y18654D01*
X2892Y18643D01*
X2894Y18634D01*
X2898Y18625D01*
X2902Y18617D01*
X2906Y18610D01*
X2912Y18604D01*
X2918Y18598D01*
X2925Y18594D01*
X2933Y18590D01*
X2941Y18587D01*
X2951Y18584D01*
X2961Y18582D01*
X2972Y18581D01*
X2983Y18581D01*
G37*
G36*
X2985Y18807D02*
X2995Y18808D01*
X3004Y18808D01*
X3013Y18810D01*
X3021Y18812D01*
X3028Y18815D01*
X3035Y18819D01*
X3042Y18823D01*
X3048Y18828D01*
X3053Y18833D01*
X3058Y18839D01*
X3061Y18846D01*
X3064Y18853D01*
X3067Y18861D01*
X3069Y18870D01*
X3070Y18879D01*
X3070Y18888D01*
X3070Y18898D01*
X3069Y18906D01*
X3067Y18915D01*
X3065Y18922D01*
X3062Y18929D01*
X3058Y18936D01*
X3053Y18941D01*
X3048Y18946D01*
X3043Y18951D01*
X3036Y18955D01*
X3029Y18958D01*
X3022Y18961D01*
X3014Y18963D01*
X3005Y18965D01*
X2995Y18966D01*
X2985Y18966D01*
X2975Y18966D01*
X2965Y18965D01*
X2956Y18963D01*
X2948Y18961D01*
X2940Y18958D01*
X2933Y18955D01*
X2927Y18951D01*
X2921Y18947D01*
X2916Y18941D01*
X2912Y18936D01*
X2908Y18929D01*
X2905Y18922D01*
X2903Y18915D01*
X2901Y18906D01*
X2900Y18898D01*
X2900Y18888D01*
X2900Y18878D01*
X2901Y18868D01*
X2903Y18859D01*
X2905Y18851D01*
X2908Y18844D01*
X2912Y18837D01*
X2916Y18831D01*
X2921Y18826D01*
X2927Y18822D01*
X2934Y18818D01*
X2941Y18815D01*
X2948Y18812D01*
X2956Y18810D01*
X2965Y18808D01*
X2975Y18808D01*
X2985Y18807D01*
G37*
%LPD*%
G36*
X2848Y21371D02*
X2838Y21372D01*
X2829Y21372D01*
X2820Y21374D01*
X2811Y21375D01*
X2793Y21380D01*
X2778Y21387D01*
X2763Y21396D01*
X2749Y21407D01*
X2737Y21420D01*
X2725Y21435D01*
X2715Y21452D01*
X2706Y21470D01*
X2699Y21490D01*
X2693Y21512D01*
X2688Y21536D01*
X2685Y21561D01*
X2683Y21588D01*
X2682Y21617D01*
X2683Y21645D01*
X2684Y21670D01*
X2687Y21694D01*
X2692Y21717D01*
X2697Y21737D01*
X2704Y21756D01*
X2712Y21773D01*
X2721Y21788D01*
X2732Y21801D01*
X2743Y21812D01*
X2756Y21822D01*
X2770Y21830D01*
X2785Y21836D01*
X2801Y21841D01*
X2819Y21844D01*
X2838Y21844D01*
X2855Y21844D01*
X2872Y21842D01*
X2887Y21839D01*
X2902Y21834D01*
X2915Y21828D01*
X2928Y21821D01*
X2939Y21813D01*
X2950Y21803D01*
X2960Y21792D01*
X2968Y21781D01*
X2975Y21768D01*
X2980Y21754D01*
X2985Y21740D01*
X2988Y21724D01*
X2990Y21707D01*
X2990Y21690D01*
X2990Y21673D01*
X2988Y21656D01*
X2985Y21641D01*
X2981Y21627D01*
X2976Y21613D01*
X2970Y21600D01*
X2962Y21588D01*
X2953Y21577D01*
X2944Y21567D01*
X2933Y21559D01*
X2922Y21551D01*
X2910Y21545D01*
X2897Y21541D01*
X2884Y21538D01*
X2869Y21536D01*
X2854Y21535D01*
X2845Y21535D01*
X2836Y21536D01*
X2827Y21537D01*
X2818Y21539D01*
X2809Y21542D01*
X2801Y21545D01*
X2785Y21553D01*
X2770Y21562D01*
X2764Y21568D01*
X2758Y21573D01*
X2752Y21579D01*
X2748Y21586D01*
X2744Y21593D01*
X2740Y21600D01*
X2741Y21579D01*
X2742Y21559D01*
X2745Y21540D01*
X2748Y21523D01*
X2752Y21507D01*
X2757Y21492D01*
X2762Y21478D01*
X2769Y21466D01*
X2776Y21455D01*
X2784Y21445D01*
X2793Y21437D01*
X2802Y21430D01*
X2813Y21425D01*
X2823Y21422D01*
X2835Y21419D01*
X2847Y21419D01*
X2862Y21420D01*
X2875Y21422D01*
X2886Y21427D01*
X2897Y21433D01*
X2906Y21441D01*
X2913Y21451D01*
X2920Y21463D01*
X2925Y21476D01*
X2981Y21467D01*
X2977Y21455D01*
X2973Y21444D01*
X2968Y21433D01*
X2962Y21424D01*
X2956Y21415D01*
X2950Y21407D01*
X2942Y21400D01*
X2935Y21394D01*
X2926Y21389D01*
X2917Y21384D01*
X2907Y21380D01*
X2897Y21377D01*
X2886Y21375D01*
X2874Y21373D01*
X2861Y21372D01*
X2848Y21371D01*
G37*
%LPC*%
G36*
X2840Y21581D02*
X2850Y21582D01*
X2860Y21583D01*
X2869Y21585D01*
X2878Y21588D01*
X2886Y21593D01*
X2893Y21598D01*
X2900Y21604D01*
X2906Y21610D01*
X2912Y21618D01*
X2917Y21626D01*
X2921Y21635D01*
X2925Y21645D01*
X2927Y21655D01*
X2929Y21666D01*
X2930Y21678D01*
X2931Y21690D01*
X2930Y21702D01*
X2929Y21713D01*
X2927Y21724D01*
X2925Y21734D01*
X2921Y21743D01*
X2917Y21752D01*
X2912Y21760D01*
X2906Y21768D01*
X2900Y21775D01*
X2893Y21781D01*
X2885Y21786D01*
X2877Y21790D01*
X2869Y21793D01*
X2860Y21795D01*
X2850Y21796D01*
X2839Y21797D01*
X2829Y21796D01*
X2819Y21795D01*
X2810Y21792D01*
X2801Y21788D01*
X2793Y21784D01*
X2785Y21778D01*
X2778Y21771D01*
X2771Y21763D01*
X2765Y21754D01*
X2760Y21745D01*
X2756Y21735D01*
X2752Y21724D01*
X2749Y21712D01*
X2747Y21700D01*
X2746Y21687D01*
X2746Y21674D01*
X2747Y21661D01*
X2749Y21648D01*
X2753Y21637D01*
X2758Y21626D01*
X2765Y21616D01*
X2773Y21607D01*
X2782Y21599D01*
X2793Y21593D01*
X2804Y21588D01*
X2816Y21584D01*
X2828Y21582D01*
X2840Y21581D01*
G37*
%LPD*%
G36*
X3627Y19954D02*
X3617Y19954D01*
X3608Y19955D01*
X3599Y19956D01*
X3590Y19958D01*
X3572Y19963D01*
X3556Y19970D01*
X3542Y19979D01*
X3528Y19990D01*
X3515Y20003D01*
X3504Y20018D01*
X3494Y20034D01*
X3485Y20053D01*
X3478Y20073D01*
X3472Y20095D01*
X3467Y20119D01*
X3464Y20144D01*
X3462Y20171D01*
X3461Y20200D01*
X3461Y20227D01*
X3463Y20253D01*
X3466Y20277D01*
X3471Y20299D01*
X3476Y20320D01*
X3483Y20338D01*
X3491Y20355D01*
X3500Y20370D01*
X3511Y20384D01*
X3522Y20395D01*
X3535Y20405D01*
X3549Y20413D01*
X3564Y20419D01*
X3580Y20424D01*
X3598Y20426D01*
X3616Y20427D01*
X3634Y20426D01*
X3651Y20425D01*
X3666Y20421D01*
X3681Y20417D01*
X3694Y20411D01*
X3707Y20404D01*
X3718Y20396D01*
X3729Y20386D01*
X3738Y20375D01*
X3747Y20363D01*
X3754Y20351D01*
X3759Y20337D01*
X3764Y20322D01*
X3767Y20307D01*
X3769Y20290D01*
X3769Y20272D01*
X3769Y20255D01*
X3767Y20239D01*
X3764Y20224D01*
X3760Y20209D01*
X3755Y20196D01*
X3749Y20183D01*
X3741Y20171D01*
X3732Y20160D01*
X3723Y20150D01*
X3712Y20141D01*
X3701Y20134D01*
X3689Y20128D01*
X3676Y20123D01*
X3663Y20120D01*
X3648Y20118D01*
X3633Y20118D01*
X3624Y20118D01*
X3615Y20119D01*
X3606Y20120D01*
X3597Y20122D01*
X3588Y20124D01*
X3580Y20128D01*
X3564Y20135D01*
X3549Y20145D01*
X3543Y20150D01*
X3537Y20156D01*
X3531Y20162D01*
X3527Y20168D01*
X3522Y20175D01*
X3519Y20182D01*
X3520Y20161D01*
X3521Y20141D01*
X3524Y20123D01*
X3527Y20105D01*
X3531Y20089D01*
X3536Y20074D01*
X3541Y20061D01*
X3548Y20048D01*
X3555Y20037D01*
X3563Y20028D01*
X3572Y20020D01*
X3581Y20013D01*
X3592Y20008D01*
X3602Y20004D01*
X3614Y20002D01*
X3626Y20001D01*
X3641Y20002D01*
X3654Y20005D01*
X3665Y20009D01*
X3676Y20016D01*
X3685Y20024D01*
X3692Y20034D01*
X3699Y20045D01*
X3704Y20059D01*
X3760Y20050D01*
X3756Y20038D01*
X3752Y20026D01*
X3747Y20016D01*
X3741Y20006D01*
X3735Y19998D01*
X3729Y19990D01*
X3721Y19983D01*
X3714Y19977D01*
X3705Y19971D01*
X3696Y19967D01*
X3686Y19963D01*
X3676Y19960D01*
X3665Y19957D01*
X3653Y19956D01*
X3640Y19954D01*
X3627Y19954D01*
G37*
%LPC*%
G36*
X3619Y20164D02*
X3629Y20164D01*
X3639Y20166D01*
X3648Y20168D01*
X3657Y20171D01*
X3665Y20175D01*
X3672Y20180D01*
X3679Y20186D01*
X3685Y20193D01*
X3691Y20201D01*
X3696Y20209D01*
X3700Y20218D01*
X3704Y20228D01*
X3706Y20238D01*
X3708Y20249D01*
X3709Y20260D01*
X3710Y20272D01*
X3709Y20284D01*
X3708Y20296D01*
X3706Y20307D01*
X3704Y20317D01*
X3700Y20326D01*
X3696Y20335D01*
X3691Y20343D01*
X3685Y20351D01*
X3679Y20357D01*
X3672Y20363D01*
X3664Y20368D01*
X3656Y20372D01*
X3648Y20375D01*
X3639Y20378D01*
X3629Y20379D01*
X3618Y20379D01*
X3608Y20379D01*
X3598Y20377D01*
X3589Y20375D01*
X3580Y20371D01*
X3572Y20366D01*
X3564Y20360D01*
X3557Y20354D01*
X3550Y20346D01*
X3544Y20337D01*
X3539Y20327D01*
X3535Y20317D01*
X3531Y20307D01*
X3528Y20295D01*
X3526Y20283D01*
X3525Y20270D01*
X3525Y20256D01*
X3526Y20243D01*
X3528Y20231D01*
X3532Y20219D01*
X3537Y20208D01*
X3544Y20198D01*
X3552Y20189D01*
X3561Y20182D01*
X3572Y20175D01*
X3583Y20170D01*
X3595Y20167D01*
X3607Y20165D01*
X3619Y20164D01*
G37*
%LPD*%
G36*
X2798Y19961D02*
X2742Y19961D01*
X2742Y20420D01*
X2822Y20420D01*
X2942Y20102D01*
X2946Y20090D01*
X2953Y20068D01*
X2960Y20045D01*
X2964Y20028D01*
X2972Y20060D01*
X2978Y20082D01*
X2984Y20102D01*
X3107Y20420D01*
X3189Y20420D01*
X3189Y19961D01*
X3133Y19961D01*
X3133Y20267D01*
X3134Y20329D01*
X3135Y20365D01*
X3125Y20329D01*
X3106Y20274D01*
X2986Y19961D01*
X2942Y19961D01*
X2824Y20274D01*
X2817Y20292D01*
X2810Y20313D01*
X2795Y20365D01*
X2797Y20317D01*
X2798Y20267D01*
X2798Y19961D01*
G37*
G36*
X2798Y19252D02*
X2742Y19252D01*
X2742Y19712D01*
X2822Y19712D01*
X2942Y19393D01*
X2946Y19381D01*
X2953Y19359D01*
X2960Y19336D01*
X2964Y19320D01*
X2972Y19352D01*
X2978Y19373D01*
X2985Y19393D01*
X3107Y19712D01*
X3189Y19712D01*
X3189Y19252D01*
X3134Y19252D01*
X3134Y19559D01*
X3135Y19620D01*
X3136Y19656D01*
X3125Y19621D01*
X3107Y19565D01*
X2986Y19252D01*
X2943Y19252D01*
X2824Y19565D01*
X2817Y19583D01*
X2810Y19604D01*
X2795Y19656D01*
X2797Y19609D01*
X2798Y19559D01*
X2798Y19252D01*
G37*
G36*
X2074Y18543D02*
X1999Y18543D01*
X1999Y19003D01*
X2055Y19003D01*
X2055Y18702D01*
X2054Y18664D01*
X2051Y18609D01*
X2300Y19003D01*
X2372Y19003D01*
X2372Y18543D01*
X2317Y18543D01*
X2317Y18849D01*
X2318Y18903D01*
X2320Y18935D01*
X2074Y18543D01*
G37*
G36*
X3161Y20669D02*
X3106Y20669D01*
X3106Y20773D01*
X3041Y20773D01*
X3041Y20820D01*
X3106Y20820D01*
X3106Y21129D01*
X3168Y21129D01*
X3378Y20819D01*
X3378Y20773D01*
X3161Y20773D01*
X3161Y20669D01*
G37*
%LPC*%
G36*
X3324Y20820D02*
X3319Y20826D01*
X3301Y20850D01*
X3183Y21024D01*
X3171Y21045D01*
X3161Y21063D01*
X3161Y20820D01*
X3324Y20820D01*
G37*
%LPD*%
G36*
X3939Y19252D02*
X3884Y19252D01*
X3884Y19356D01*
X3819Y19356D01*
X3819Y19402D01*
X3884Y19402D01*
X3884Y19712D01*
X3946Y19712D01*
X4156Y19402D01*
X4156Y19356D01*
X3939Y19356D01*
X3939Y19252D01*
G37*
%LPC*%
G36*
X4102Y19402D02*
X4097Y19409D01*
X4079Y19433D01*
X3961Y19607D01*
X3949Y19628D01*
X3939Y19645D01*
X3939Y19402D01*
X4102Y19402D01*
G37*
%LPD*%
G36*
X1757Y21371D02*
X1735Y21372D01*
X1714Y21374D01*
X1695Y21376D01*
X1677Y21380D01*
X1660Y21385D01*
X1644Y21391D01*
X1630Y21398D01*
X1617Y21406D01*
X1605Y21416D01*
X1595Y21426D01*
X1587Y21437D01*
X1580Y21448D01*
X1574Y21461D01*
X1570Y21475D01*
X1568Y21489D01*
X1567Y21505D01*
X1568Y21517D01*
X1569Y21528D01*
X1571Y21539D01*
X1574Y21549D01*
X1578Y21558D01*
X1583Y21566D01*
X1588Y21574D01*
X1594Y21581D01*
X1600Y21587D01*
X1607Y21593D01*
X1615Y21599D01*
X1623Y21604D01*
X1640Y21613D01*
X1659Y21620D01*
X1679Y21627D01*
X1699Y21633D01*
X1741Y21643D01*
X1770Y21649D01*
X1794Y21655D01*
X1813Y21661D01*
X1826Y21666D01*
X1836Y21671D01*
X1845Y21677D01*
X1852Y21683D01*
X1858Y21690D01*
X1863Y21697D01*
X1867Y21705D01*
X1869Y21715D01*
X1870Y21725D01*
X1869Y21733D01*
X1868Y21742D01*
X1866Y21749D01*
X1862Y21756D01*
X1858Y21763D01*
X1853Y21769D01*
X1847Y21774D01*
X1841Y21779D01*
X1833Y21783D01*
X1824Y21787D01*
X1815Y21790D01*
X1805Y21793D01*
X1794Y21795D01*
X1782Y21796D01*
X1770Y21797D01*
X1756Y21797D01*
X1744Y21797D01*
X1733Y21796D01*
X1722Y21795D01*
X1712Y21793D01*
X1702Y21791D01*
X1693Y21788D01*
X1685Y21785D01*
X1678Y21781D01*
X1671Y21777D01*
X1665Y21771D01*
X1659Y21766D01*
X1654Y21759D01*
X1650Y21753D01*
X1646Y21745D01*
X1642Y21737D01*
X1639Y21728D01*
X1578Y21739D01*
X1583Y21753D01*
X1588Y21765D01*
X1594Y21777D01*
X1601Y21788D01*
X1609Y21798D01*
X1617Y21806D01*
X1626Y21814D01*
X1636Y21820D01*
X1647Y21826D01*
X1659Y21831D01*
X1672Y21835D01*
X1687Y21838D01*
X1702Y21841D01*
X1719Y21843D01*
X1737Y21844D01*
X1756Y21844D01*
X1776Y21844D01*
X1795Y21842D01*
X1813Y21840D01*
X1830Y21836D01*
X1846Y21832D01*
X1860Y21826D01*
X1873Y21820D01*
X1885Y21812D01*
X1896Y21804D01*
X1905Y21795D01*
X1913Y21785D01*
X1919Y21774D01*
X1924Y21762D01*
X1928Y21749D01*
X1930Y21736D01*
X1930Y21721D01*
X1930Y21709D01*
X1928Y21697D01*
X1925Y21686D01*
X1922Y21676D01*
X1917Y21666D01*
X1911Y21657D01*
X1904Y21649D01*
X1897Y21641D01*
X1888Y21634D01*
X1877Y21627D01*
X1866Y21620D01*
X1852Y21614D01*
X1836Y21608D01*
X1817Y21602D01*
X1795Y21596D01*
X1770Y21590D01*
X1712Y21577D01*
X1700Y21573D01*
X1688Y21570D01*
X1678Y21566D01*
X1668Y21561D01*
X1659Y21556D01*
X1652Y21551D01*
X1645Y21545D01*
X1639Y21538D01*
X1635Y21531D01*
X1631Y21522D01*
X1630Y21512D01*
X1629Y21502D01*
X1629Y21492D01*
X1631Y21483D01*
X1634Y21474D01*
X1637Y21466D01*
X1642Y21459D01*
X1647Y21452D01*
X1654Y21446D01*
X1662Y21441D01*
X1670Y21436D01*
X1680Y21432D01*
X1690Y21428D01*
X1701Y21425D01*
X1713Y21423D01*
X1726Y21421D01*
X1740Y21420D01*
X1755Y21420D01*
X1769Y21420D01*
X1782Y21421D01*
X1795Y21423D01*
X1807Y21425D01*
X1818Y21428D01*
X1829Y21431D01*
X1838Y21435D01*
X1847Y21439D01*
X1855Y21445D01*
X1863Y21451D01*
X1869Y21457D01*
X1875Y21464D01*
X1880Y21472D01*
X1885Y21481D01*
X1889Y21490D01*
X1892Y21500D01*
X1952Y21488D01*
X1948Y21474D01*
X1943Y21461D01*
X1937Y21449D01*
X1930Y21437D01*
X1921Y21427D01*
X1912Y21417D01*
X1901Y21408D01*
X1890Y21401D01*
X1877Y21394D01*
X1863Y21388D01*
X1848Y21383D01*
X1832Y21379D01*
X1815Y21376D01*
X1797Y21373D01*
X1778Y21372D01*
X1757Y21371D01*
G37*
G36*
X1942Y19245D02*
X1920Y19246D01*
X1900Y19248D01*
X1880Y19250D01*
X1862Y19254D01*
X1845Y19259D01*
X1829Y19265D01*
X1815Y19272D01*
X1802Y19280D01*
X1790Y19290D01*
X1780Y19300D01*
X1772Y19311D01*
X1765Y19322D01*
X1759Y19335D01*
X1755Y19349D01*
X1753Y19363D01*
X1752Y19379D01*
X1753Y19391D01*
X1754Y19402D01*
X1756Y19413D01*
X1759Y19423D01*
X1763Y19432D01*
X1768Y19440D01*
X1773Y19448D01*
X1779Y19455D01*
X1785Y19461D01*
X1792Y19468D01*
X1800Y19473D01*
X1808Y19478D01*
X1825Y19487D01*
X1844Y19494D01*
X1864Y19501D01*
X1884Y19507D01*
X1927Y19517D01*
X1956Y19523D01*
X1979Y19529D01*
X1998Y19535D01*
X2011Y19540D01*
X2021Y19545D01*
X2030Y19551D01*
X2037Y19557D01*
X2043Y19564D01*
X2048Y19571D01*
X2052Y19579D01*
X2054Y19589D01*
X2055Y19599D01*
X2054Y19607D01*
X2053Y19616D01*
X2051Y19623D01*
X2047Y19630D01*
X2043Y19637D01*
X2038Y19643D01*
X2032Y19648D01*
X2026Y19653D01*
X2018Y19657D01*
X2010Y19661D01*
X2000Y19664D01*
X1990Y19667D01*
X1979Y19669D01*
X1967Y19670D01*
X1955Y19671D01*
X1942Y19671D01*
X1929Y19671D01*
X1918Y19670D01*
X1907Y19669D01*
X1897Y19667D01*
X1887Y19665D01*
X1878Y19662D01*
X1870Y19659D01*
X1863Y19655D01*
X1856Y19651D01*
X1850Y19645D01*
X1844Y19640D01*
X1839Y19634D01*
X1835Y19627D01*
X1831Y19619D01*
X1827Y19611D01*
X1824Y19602D01*
X1763Y19613D01*
X1768Y19627D01*
X1773Y19640D01*
X1779Y19651D01*
X1786Y19662D01*
X1794Y19672D01*
X1802Y19680D01*
X1811Y19688D01*
X1821Y19694D01*
X1832Y19700D01*
X1844Y19705D01*
X1857Y19709D01*
X1872Y19712D01*
X1887Y19715D01*
X1904Y19717D01*
X1922Y19718D01*
X1941Y19718D01*
X1961Y19718D01*
X1980Y19716D01*
X1998Y19714D01*
X2015Y19710D01*
X2031Y19706D01*
X2045Y19700D01*
X2058Y19694D01*
X2070Y19686D01*
X2081Y19678D01*
X2090Y19669D01*
X2098Y19659D01*
X2104Y19648D01*
X2109Y19636D01*
X2113Y19623D01*
X2115Y19610D01*
X2115Y19595D01*
X2115Y19583D01*
X2113Y19571D01*
X2111Y19560D01*
X2107Y19550D01*
X2102Y19540D01*
X2096Y19531D01*
X2089Y19523D01*
X2082Y19515D01*
X2073Y19508D01*
X2062Y19501D01*
X2051Y19494D01*
X2037Y19488D01*
X2021Y19482D01*
X2002Y19476D01*
X1980Y19470D01*
X1955Y19464D01*
X1897Y19451D01*
X1885Y19447D01*
X1873Y19444D01*
X1863Y19440D01*
X1853Y19435D01*
X1844Y19430D01*
X1837Y19425D01*
X1830Y19419D01*
X1824Y19412D01*
X1820Y19405D01*
X1817Y19396D01*
X1815Y19386D01*
X1814Y19376D01*
X1814Y19366D01*
X1816Y19357D01*
X1819Y19348D01*
X1822Y19340D01*
X1827Y19333D01*
X1832Y19326D01*
X1839Y19320D01*
X1847Y19315D01*
X1855Y19310D01*
X1865Y19306D01*
X1875Y19302D01*
X1886Y19299D01*
X1898Y19297D01*
X1911Y19295D01*
X1925Y19294D01*
X1940Y19294D01*
X1954Y19294D01*
X1968Y19295D01*
X1980Y19297D01*
X1992Y19299D01*
X2003Y19302D01*
X2014Y19305D01*
X2023Y19309D01*
X2032Y19313D01*
X2040Y19319D01*
X2048Y19325D01*
X2054Y19331D01*
X2060Y19338D01*
X2065Y19346D01*
X2070Y19355D01*
X2074Y19364D01*
X2077Y19374D01*
X2137Y19362D01*
X2133Y19348D01*
X2128Y19335D01*
X2122Y19323D01*
X2115Y19311D01*
X2106Y19301D01*
X2097Y19291D01*
X2086Y19282D01*
X2075Y19275D01*
X2062Y19268D01*
X2048Y19262D01*
X2033Y19257D01*
X2017Y19253D01*
X2000Y19250D01*
X1982Y19247D01*
X1963Y19246D01*
X1942Y19245D01*
G37*
G36*
X2276Y19954D02*
X2255Y19955D01*
X2234Y19956D01*
X2214Y19959D01*
X2196Y19963D01*
X2179Y19968D01*
X2164Y19974D01*
X2149Y19981D01*
X2136Y19989D01*
X2125Y19998D01*
X2115Y20008D01*
X2106Y20019D01*
X2099Y20031D01*
X2094Y20044D01*
X2090Y20058D01*
X2087Y20072D01*
X2087Y20088D01*
X2087Y20100D01*
X2088Y20111D01*
X2091Y20122D01*
X2094Y20131D01*
X2097Y20140D01*
X2102Y20149D01*
X2107Y20156D01*
X2113Y20164D01*
X2120Y20170D01*
X2127Y20176D01*
X2134Y20182D01*
X2142Y20187D01*
X2160Y20196D01*
X2178Y20203D01*
X2198Y20210D01*
X2219Y20215D01*
X2261Y20225D01*
X2290Y20232D01*
X2314Y20238D01*
X2332Y20244D01*
X2345Y20249D01*
X2355Y20254D01*
X2364Y20260D01*
X2372Y20266D01*
X2378Y20272D01*
X2383Y20280D01*
X2386Y20288D01*
X2388Y20297D01*
X2389Y20307D01*
X2389Y20316D01*
X2387Y20324D01*
X2385Y20332D01*
X2382Y20339D01*
X2378Y20346D01*
X2373Y20352D01*
X2367Y20357D01*
X2360Y20362D01*
X2352Y20366D01*
X2344Y20370D01*
X2335Y20373D01*
X2324Y20376D01*
X2314Y20378D01*
X2302Y20379D01*
X2289Y20380D01*
X2276Y20380D01*
X2264Y20380D01*
X2252Y20379D01*
X2241Y20378D01*
X2231Y20376D01*
X2222Y20374D01*
X2213Y20371D01*
X2205Y20368D01*
X2197Y20364D01*
X2190Y20359D01*
X2184Y20354D01*
X2178Y20348D01*
X2173Y20342D01*
X2169Y20335D01*
X2165Y20328D01*
X2162Y20319D01*
X2159Y20311D01*
X2097Y20321D01*
X2102Y20335D01*
X2107Y20348D01*
X2113Y20360D01*
X2120Y20371D01*
X2128Y20380D01*
X2136Y20389D01*
X2145Y20397D01*
X2155Y20403D01*
X2166Y20409D01*
X2178Y20414D01*
X2192Y20418D01*
X2206Y20421D01*
X2222Y20424D01*
X2238Y20426D01*
X2256Y20427D01*
X2275Y20427D01*
X2296Y20427D01*
X2315Y20425D01*
X2333Y20423D01*
X2350Y20419D01*
X2365Y20415D01*
X2379Y20409D01*
X2393Y20403D01*
X2405Y20395D01*
X2415Y20387D01*
X2424Y20377D01*
X2432Y20367D01*
X2438Y20356D01*
X2443Y20345D01*
X2447Y20332D01*
X2449Y20318D01*
X2450Y20304D01*
X2449Y20292D01*
X2448Y20280D01*
X2445Y20269D01*
X2441Y20258D01*
X2436Y20249D01*
X2430Y20240D01*
X2424Y20231D01*
X2416Y20224D01*
X2407Y20216D01*
X2397Y20210D01*
X2385Y20203D01*
X2372Y20197D01*
X2356Y20191D01*
X2337Y20185D01*
X2314Y20179D01*
X2289Y20173D01*
X2232Y20159D01*
X2219Y20156D01*
X2208Y20152D01*
X2197Y20148D01*
X2187Y20144D01*
X2179Y20139D01*
X2171Y20134D01*
X2164Y20128D01*
X2159Y20121D01*
X2154Y20113D01*
X2151Y20105D01*
X2149Y20095D01*
X2148Y20084D01*
X2149Y20075D01*
X2150Y20065D01*
X2153Y20057D01*
X2156Y20049D01*
X2161Y20042D01*
X2167Y20035D01*
X2173Y20029D01*
X2181Y20023D01*
X2190Y20019D01*
X2199Y20014D01*
X2210Y20011D01*
X2221Y20008D01*
X2233Y20006D01*
X2246Y20004D01*
X2260Y20003D01*
X2274Y20003D01*
X2288Y20003D01*
X2302Y20004D01*
X2315Y20005D01*
X2326Y20008D01*
X2338Y20010D01*
X2348Y20014D01*
X2358Y20018D01*
X2367Y20022D01*
X2375Y20027D01*
X2382Y20033D01*
X2389Y20040D01*
X2395Y20047D01*
X2400Y20055D01*
X2404Y20064D01*
X2408Y20073D01*
X2411Y20083D01*
X2471Y20071D01*
X2467Y20057D01*
X2462Y20044D01*
X2456Y20031D01*
X2449Y20020D01*
X2441Y20009D01*
X2431Y20000D01*
X2421Y19991D01*
X2409Y19983D01*
X2396Y19976D01*
X2383Y19971D01*
X2368Y19966D01*
X2352Y19961D01*
X2335Y19958D01*
X2316Y19956D01*
X2297Y19955D01*
X2276Y19954D01*
G37*
G36*
X1621Y20669D02*
X1544Y20669D01*
X1766Y20929D01*
X1570Y21129D01*
X1644Y21129D01*
X1865Y20899D01*
X1865Y21129D01*
X1927Y21129D01*
X1927Y20669D01*
X1865Y20669D01*
X1865Y20845D01*
X1805Y20891D01*
X1621Y20669D01*
G37*
G36*
X2206Y21371D02*
X2190Y21372D01*
X2174Y21373D01*
X2158Y21376D01*
X2143Y21379D01*
X2128Y21384D01*
X2114Y21389D01*
X2100Y21395D01*
X2087Y21402D01*
X2075Y21411D01*
X2063Y21420D01*
X2052Y21430D01*
X2042Y21441D01*
X2032Y21452D01*
X2023Y21465D01*
X2015Y21478D01*
X2007Y21493D01*
X2058Y21518D01*
X2065Y21507D01*
X2071Y21496D01*
X2078Y21486D01*
X2086Y21476D01*
X2093Y21468D01*
X2102Y21460D01*
X2110Y21453D01*
X2119Y21447D01*
X2128Y21441D01*
X2138Y21436D01*
X2148Y21432D01*
X2158Y21429D01*
X2169Y21426D01*
X2180Y21424D01*
X2192Y21423D01*
X2204Y21423D01*
X2222Y21423D01*
X2239Y21426D01*
X2256Y21430D01*
X2271Y21435D01*
X2286Y21443D01*
X2299Y21452D01*
X2312Y21462D01*
X2323Y21474D01*
X2333Y21487D01*
X2342Y21502D01*
X2350Y21517D01*
X2356Y21534D01*
X2361Y21551D01*
X2365Y21570D01*
X2367Y21589D01*
X2367Y21610D01*
X2367Y21631D01*
X2365Y21650D01*
X2361Y21669D01*
X2357Y21686D01*
X2351Y21703D01*
X2343Y21718D01*
X2335Y21732D01*
X2325Y21744D01*
X2314Y21756D01*
X2302Y21766D01*
X2288Y21774D01*
X2274Y21781D01*
X2259Y21787D01*
X2242Y21790D01*
X2225Y21793D01*
X2206Y21794D01*
X2194Y21793D01*
X2183Y21792D01*
X2172Y21791D01*
X2161Y21788D01*
X2151Y21785D01*
X2141Y21782D01*
X2131Y21777D01*
X2122Y21772D01*
X2114Y21767D01*
X2106Y21761D01*
X2098Y21754D01*
X2092Y21746D01*
X2085Y21738D01*
X2080Y21730D01*
X2075Y21721D01*
X2071Y21711D01*
X2012Y21731D01*
X2018Y21744D01*
X2025Y21757D01*
X2033Y21769D01*
X2041Y21780D01*
X2051Y21790D01*
X2061Y21800D01*
X2072Y21808D01*
X2084Y21816D01*
X2097Y21822D01*
X2110Y21828D01*
X2124Y21833D01*
X2139Y21837D01*
X2155Y21840D01*
X2172Y21843D01*
X2189Y21844D01*
X2207Y21844D01*
X2220Y21844D01*
X2232Y21843D01*
X2245Y21842D01*
X2256Y21841D01*
X2268Y21838D01*
X2279Y21836D01*
X2300Y21829D01*
X2320Y21820D01*
X2339Y21809D01*
X2356Y21797D01*
X2371Y21782D01*
X2385Y21766D01*
X2397Y21748D01*
X2407Y21729D01*
X2416Y21708D01*
X2422Y21686D01*
X2427Y21662D01*
X2430Y21637D01*
X2431Y21610D01*
X2430Y21592D01*
X2429Y21574D01*
X2427Y21558D01*
X2424Y21541D01*
X2420Y21526D01*
X2416Y21511D01*
X2410Y21497D01*
X2404Y21483D01*
X2397Y21470D01*
X2389Y21458D01*
X2381Y21446D01*
X2371Y21435D01*
X2361Y21425D01*
X2351Y21416D01*
X2339Y21408D01*
X2327Y21400D01*
X2314Y21394D01*
X2300Y21388D01*
X2286Y21383D01*
X2271Y21379D01*
X2256Y21375D01*
X2240Y21373D01*
X2224Y21372D01*
X2206Y21371D01*
G37*
G36*
X2578Y20663D02*
X2561Y20663D01*
X2545Y20665D01*
X2529Y20667D01*
X2514Y20671D01*
X2500Y20675D01*
X2485Y20680D01*
X2472Y20686D01*
X2459Y20694D01*
X2446Y20702D01*
X2435Y20711D01*
X2423Y20721D01*
X2413Y20732D01*
X2404Y20744D01*
X2395Y20756D01*
X2386Y20770D01*
X2379Y20784D01*
X2430Y20810D01*
X2436Y20798D01*
X2443Y20787D01*
X2450Y20777D01*
X2457Y20768D01*
X2465Y20759D01*
X2473Y20751D01*
X2482Y20744D01*
X2490Y20738D01*
X2500Y20732D01*
X2509Y20727D01*
X2519Y20723D01*
X2530Y20720D01*
X2541Y20717D01*
X2552Y20715D01*
X2563Y20714D01*
X2575Y20714D01*
X2593Y20715D01*
X2611Y20717D01*
X2627Y20721D01*
X2643Y20727D01*
X2657Y20734D01*
X2671Y20743D01*
X2683Y20753D01*
X2695Y20765D01*
X2705Y20779D01*
X2714Y20793D01*
X2722Y20809D01*
X2728Y20825D01*
X2733Y20843D01*
X2736Y20861D01*
X2738Y20881D01*
X2739Y20901D01*
X2738Y20922D01*
X2736Y20942D01*
X2733Y20960D01*
X2728Y20978D01*
X2722Y20994D01*
X2715Y21009D01*
X2706Y21023D01*
X2696Y21036D01*
X2685Y21047D01*
X2673Y21057D01*
X2660Y21066D01*
X2646Y21073D01*
X2630Y21078D01*
X2614Y21082D01*
X2596Y21084D01*
X2578Y21085D01*
X2566Y21085D01*
X2554Y21084D01*
X2543Y21082D01*
X2532Y21080D01*
X2522Y21077D01*
X2512Y21073D01*
X2503Y21069D01*
X2494Y21064D01*
X2485Y21058D01*
X2477Y21052D01*
X2470Y21045D01*
X2463Y21038D01*
X2457Y21030D01*
X2451Y21021D01*
X2447Y21012D01*
X2442Y21002D01*
X2383Y21022D01*
X2389Y21036D01*
X2396Y21048D01*
X2404Y21060D01*
X2413Y21071D01*
X2422Y21082D01*
X2433Y21091D01*
X2444Y21099D01*
X2456Y21107D01*
X2468Y21114D01*
X2482Y21120D01*
X2496Y21125D01*
X2511Y21129D01*
X2527Y21132D01*
X2543Y21134D01*
X2560Y21135D01*
X2578Y21136D01*
X2591Y21136D01*
X2604Y21135D01*
X2616Y21134D01*
X2628Y21132D01*
X2639Y21130D01*
X2651Y21127D01*
X2672Y21120D01*
X2692Y21111D01*
X2710Y21101D01*
X2727Y21088D01*
X2743Y21073D01*
X2757Y21057D01*
X2769Y21039D01*
X2779Y21020D01*
X2787Y20999D01*
X2794Y20977D01*
X2798Y20953D01*
X2801Y20928D01*
X2802Y20901D01*
X2802Y20883D01*
X2800Y20866D01*
X2798Y20849D01*
X2795Y20833D01*
X2792Y20817D01*
X2787Y20802D01*
X2782Y20788D01*
X2776Y20774D01*
X2768Y20761D01*
X2761Y20749D01*
X2752Y20737D01*
X2743Y20727D01*
X2733Y20717D01*
X2722Y20708D01*
X2710Y20699D01*
X2698Y20692D01*
X2685Y20685D01*
X2672Y20679D01*
X2658Y20674D01*
X2643Y20670D01*
X2627Y20667D01*
X2612Y20665D01*
X2595Y20663D01*
X2578Y20663D01*
G37*
G36*
X3206Y21371D02*
X3188Y21372D01*
X3171Y21374D01*
X3154Y21376D01*
X3139Y21380D01*
X3126Y21385D01*
X3113Y21391D01*
X3101Y21398D01*
X3090Y21406D01*
X3081Y21416D01*
X3073Y21426D01*
X3066Y21437D01*
X3060Y21448D01*
X3056Y21461D01*
X3052Y21475D01*
X3051Y21489D01*
X3050Y21505D01*
X3050Y21516D01*
X3052Y21526D01*
X3054Y21536D01*
X3057Y21545D01*
X3061Y21554D01*
X3066Y21562D01*
X3072Y21570D01*
X3079Y21578D01*
X3086Y21585D01*
X3094Y21591D01*
X3103Y21596D01*
X3113Y21601D01*
X3123Y21605D01*
X3135Y21608D01*
X3146Y21611D01*
X3159Y21612D01*
X3159Y21614D01*
X3148Y21617D01*
X3137Y21620D01*
X3127Y21624D01*
X3118Y21628D01*
X3109Y21633D01*
X3101Y21638D01*
X3094Y21645D01*
X3087Y21651D01*
X3082Y21658D01*
X3077Y21666D01*
X3072Y21674D01*
X3069Y21683D01*
X3066Y21692D01*
X3064Y21702D01*
X3063Y21712D01*
X3063Y21723D01*
X3063Y21737D01*
X3065Y21750D01*
X3068Y21762D01*
X3072Y21774D01*
X3078Y21785D01*
X3084Y21795D01*
X3092Y21804D01*
X3101Y21812D01*
X3111Y21820D01*
X3122Y21826D01*
X3134Y21832D01*
X3147Y21836D01*
X3161Y21840D01*
X3176Y21842D01*
X3192Y21844D01*
X3208Y21844D01*
X3224Y21844D01*
X3239Y21842D01*
X3253Y21840D01*
X3266Y21837D01*
X3279Y21832D01*
X3290Y21827D01*
X3302Y21820D01*
X3312Y21813D01*
X3322Y21804D01*
X3330Y21795D01*
X3338Y21786D01*
X3344Y21775D01*
X3349Y21764D01*
X3353Y21751D01*
X3357Y21738D01*
X3359Y21725D01*
X3300Y21720D01*
X3299Y21729D01*
X3297Y21737D01*
X3294Y21745D01*
X3291Y21752D01*
X3287Y21759D01*
X3283Y21765D01*
X3278Y21771D01*
X3272Y21776D01*
X3266Y21781D01*
X3259Y21785D01*
X3252Y21788D01*
X3244Y21791D01*
X3236Y21793D01*
X3228Y21795D01*
X3219Y21796D01*
X3209Y21796D01*
X3199Y21796D01*
X3189Y21795D01*
X3180Y21793D01*
X3172Y21791D01*
X3164Y21788D01*
X3157Y21784D01*
X3150Y21780D01*
X3145Y21775D01*
X3140Y21769D01*
X3135Y21763D01*
X3131Y21757D01*
X3128Y21750D01*
X3126Y21742D01*
X3124Y21734D01*
X3123Y21726D01*
X3123Y21717D01*
X3123Y21708D01*
X3125Y21699D01*
X3127Y21691D01*
X3130Y21683D01*
X3133Y21676D01*
X3138Y21670D01*
X3143Y21664D01*
X3150Y21658D01*
X3157Y21653D01*
X3164Y21649D01*
X3173Y21646D01*
X3182Y21643D01*
X3191Y21640D01*
X3202Y21639D01*
X3213Y21638D01*
X3224Y21637D01*
X3256Y21637D01*
X3256Y21586D01*
X3223Y21586D01*
X3210Y21586D01*
X3198Y21585D01*
X3186Y21583D01*
X3175Y21581D01*
X3165Y21578D01*
X3156Y21575D01*
X3147Y21570D01*
X3140Y21565D01*
X3133Y21560D01*
X3127Y21554D01*
X3122Y21547D01*
X3118Y21540D01*
X3115Y21533D01*
X3113Y21525D01*
X3111Y21516D01*
X3111Y21507D01*
X3111Y21496D01*
X3113Y21487D01*
X3115Y21477D01*
X3117Y21469D01*
X3121Y21461D01*
X3125Y21454D01*
X3130Y21448D01*
X3136Y21442D01*
X3143Y21437D01*
X3150Y21432D01*
X3158Y21429D01*
X3166Y21425D01*
X3175Y21423D01*
X3185Y21421D01*
X3195Y21420D01*
X3206Y21420D01*
X3217Y21420D01*
X3227Y21421D01*
X3236Y21423D01*
X3245Y21425D01*
X3254Y21428D01*
X3261Y21431D01*
X3269Y21436D01*
X3275Y21440D01*
X3281Y21446D01*
X3286Y21452D01*
X3291Y21459D01*
X3295Y21466D01*
X3299Y21474D01*
X3302Y21482D01*
X3304Y21492D01*
X3306Y21502D01*
X3367Y21496D01*
X3364Y21481D01*
X3361Y21467D01*
X3356Y21454D01*
X3350Y21442D01*
X3344Y21431D01*
X3336Y21421D01*
X3327Y21411D01*
X3317Y21403D01*
X3306Y21396D01*
X3295Y21389D01*
X3282Y21384D01*
X3269Y21379D01*
X3254Y21376D01*
X3239Y21373D01*
X3223Y21372D01*
X3206Y21371D01*
G37*
G36*
X3354Y18537D02*
X3336Y18537D01*
X3319Y18539D01*
X3303Y18542D01*
X3288Y18546D01*
X3274Y18550D01*
X3261Y18556D01*
X3249Y18564D01*
X3238Y18572D01*
X3229Y18581D01*
X3221Y18591D01*
X3214Y18602D01*
X3208Y18614D01*
X3204Y18627D01*
X3201Y18640D01*
X3199Y18655D01*
X3198Y18670D01*
X3198Y18681D01*
X3200Y18691D01*
X3202Y18701D01*
X3205Y18710D01*
X3209Y18719D01*
X3214Y18728D01*
X3220Y18736D01*
X3227Y18743D01*
X3234Y18750D01*
X3243Y18756D01*
X3251Y18762D01*
X3261Y18766D01*
X3272Y18770D01*
X3283Y18774D01*
X3294Y18776D01*
X3307Y18778D01*
X3307Y18779D01*
X3296Y18782D01*
X3285Y18785D01*
X3275Y18789D01*
X3266Y18793D01*
X3257Y18798D01*
X3249Y18804D01*
X3242Y18810D01*
X3235Y18817D01*
X3230Y18824D01*
X3225Y18831D01*
X3220Y18839D01*
X3217Y18848D01*
X3214Y18857D01*
X3212Y18867D01*
X3211Y18877D01*
X3211Y18888D01*
X3211Y18902D01*
X3213Y18915D01*
X3216Y18928D01*
X3220Y18939D01*
X3226Y18950D01*
X3232Y18960D01*
X3240Y18969D01*
X3249Y18978D01*
X3259Y18985D01*
X3270Y18992D01*
X3282Y18997D01*
X3295Y19002D01*
X3309Y19005D01*
X3324Y19008D01*
X3340Y19009D01*
X3357Y19010D01*
X3372Y19009D01*
X3387Y19008D01*
X3401Y19005D01*
X3414Y19002D01*
X3427Y18997D01*
X3439Y18992D01*
X3450Y18986D01*
X3460Y18978D01*
X3470Y18970D01*
X3478Y18961D01*
X3486Y18951D01*
X3492Y18940D01*
X3497Y18929D01*
X3502Y18917D01*
X3505Y18904D01*
X3507Y18890D01*
X3448Y18885D01*
X3447Y18894D01*
X3445Y18903D01*
X3442Y18910D01*
X3439Y18918D01*
X3435Y18924D01*
X3431Y18931D01*
X3426Y18936D01*
X3420Y18942D01*
X3414Y18946D01*
X3407Y18950D01*
X3400Y18954D01*
X3392Y18957D01*
X3384Y18959D01*
X3376Y18960D01*
X3367Y18961D01*
X3357Y18961D01*
X3347Y18961D01*
X3337Y18960D01*
X3328Y18958D01*
X3320Y18956D01*
X3312Y18953D01*
X3305Y18949D01*
X3299Y18945D01*
X3293Y18940D01*
X3288Y18935D01*
X3283Y18928D01*
X3280Y18922D01*
X3277Y18915D01*
X3274Y18907D01*
X3272Y18899D01*
X3271Y18891D01*
X3271Y18882D01*
X3272Y18873D01*
X3273Y18864D01*
X3275Y18856D01*
X3278Y18849D01*
X3281Y18842D01*
X3286Y18835D01*
X3291Y18829D01*
X3298Y18824D01*
X3305Y18819D01*
X3312Y18814D01*
X3321Y18811D01*
X3330Y18808D01*
X3339Y18806D01*
X3350Y18804D01*
X3361Y18803D01*
X3373Y18803D01*
X3405Y18803D01*
X3405Y18752D01*
X3371Y18752D01*
X3358Y18751D01*
X3346Y18750D01*
X3334Y18749D01*
X3323Y18746D01*
X3313Y18744D01*
X3304Y18740D01*
X3296Y18736D01*
X3288Y18731D01*
X3281Y18725D01*
X3275Y18719D01*
X3270Y18713D01*
X3266Y18706D01*
X3263Y18698D01*
X3261Y18690D01*
X3259Y18681D01*
X3259Y18672D01*
X3259Y18662D01*
X3261Y18652D01*
X3263Y18643D01*
X3265Y18634D01*
X3269Y18627D01*
X3273Y18619D01*
X3278Y18613D01*
X3284Y18607D01*
X3291Y18602D01*
X3298Y18598D01*
X3306Y18594D01*
X3314Y18591D01*
X3323Y18588D01*
X3333Y18587D01*
X3343Y18586D01*
X3354Y18585D01*
X3365Y18586D01*
X3375Y18587D01*
X3384Y18588D01*
X3393Y18590D01*
X3402Y18593D01*
X3409Y18597D01*
X3417Y18601D01*
X3423Y18606D01*
X3429Y18611D01*
X3435Y18617D01*
X3439Y18624D01*
X3443Y18631D01*
X3447Y18639D01*
X3450Y18648D01*
X3452Y18657D01*
X3454Y18667D01*
X3515Y18661D01*
X3512Y18646D01*
X3509Y18632D01*
X3504Y18619D01*
X3498Y18607D01*
X3492Y18596D01*
X3484Y18586D01*
X3475Y18577D01*
X3465Y18568D01*
X3455Y18561D01*
X3443Y18554D01*
X3430Y18549D01*
X3417Y18545D01*
X3402Y18541D01*
X3387Y18539D01*
X3371Y18537D01*
X3354Y18537D01*
G37*
G36*
X3767Y19252D02*
X3463Y19252D01*
X3463Y19302D01*
X3703Y19302D01*
X3697Y19313D01*
X3690Y19325D01*
X3681Y19337D01*
X3671Y19349D01*
X3659Y19362D01*
X3645Y19375D01*
X3629Y19390D01*
X3611Y19405D01*
X3580Y19431D01*
X3554Y19453D01*
X3534Y19471D01*
X3519Y19487D01*
X3508Y19500D01*
X3498Y19513D01*
X3489Y19526D01*
X3483Y19539D01*
X3477Y19553D01*
X3473Y19566D01*
X3471Y19579D01*
X3470Y19593D01*
X3471Y19607D01*
X3473Y19621D01*
X3476Y19634D01*
X3480Y19646D01*
X3485Y19657D01*
X3491Y19668D01*
X3499Y19677D01*
X3508Y19686D01*
X3518Y19693D01*
X3528Y19700D01*
X3540Y19706D01*
X3553Y19710D01*
X3567Y19714D01*
X3582Y19716D01*
X3598Y19718D01*
X3615Y19718D01*
X3630Y19718D01*
X3645Y19716D01*
X3659Y19714D01*
X3672Y19710D01*
X3685Y19706D01*
X3696Y19700D01*
X3708Y19693D01*
X3718Y19686D01*
X3728Y19677D01*
X3736Y19668D01*
X3744Y19658D01*
X3750Y19648D01*
X3755Y19636D01*
X3760Y19624D01*
X3763Y19611D01*
X3765Y19598D01*
X3705Y19593D01*
X3703Y19601D01*
X3701Y19610D01*
X3699Y19618D01*
X3696Y19625D01*
X3692Y19632D01*
X3687Y19639D01*
X3682Y19644D01*
X3676Y19650D01*
X3670Y19655D01*
X3663Y19659D01*
X3656Y19662D01*
X3649Y19665D01*
X3641Y19667D01*
X3632Y19669D01*
X3624Y19670D01*
X3615Y19670D01*
X3605Y19670D01*
X3596Y19669D01*
X3587Y19667D01*
X3579Y19665D01*
X3572Y19662D01*
X3565Y19658D01*
X3559Y19654D01*
X3553Y19649D01*
X3548Y19644D01*
X3543Y19638D01*
X3539Y19631D01*
X3536Y19624D01*
X3534Y19617D01*
X3532Y19608D01*
X3531Y19600D01*
X3531Y19591D01*
X3531Y19577D01*
X3534Y19564D01*
X3538Y19552D01*
X3544Y19540D01*
X3551Y19529D01*
X3558Y19519D01*
X3567Y19508D01*
X3577Y19498D01*
X3599Y19478D01*
X3624Y19457D01*
X3650Y19436D01*
X3676Y19414D01*
X3690Y19401D01*
X3702Y19389D01*
X3715Y19375D01*
X3727Y19361D01*
X3738Y19346D01*
X3749Y19329D01*
X3759Y19312D01*
X3767Y19293D01*
X3767Y19252D01*
G37*
G36*
X1772Y18543D02*
X1710Y18543D01*
X1710Y18952D01*
X1552Y18952D01*
X1552Y19003D01*
X1929Y19003D01*
X1929Y18952D01*
X1772Y18952D01*
X1772Y18543D01*
G37*
G36*
X3713Y20669D02*
X3425Y20669D01*
X3425Y20719D01*
X3537Y20719D01*
X3537Y21129D01*
X3591Y21129D01*
X3699Y21054D01*
X3699Y20999D01*
X3596Y21073D01*
X3596Y20719D01*
X3713Y20719D01*
X3713Y20669D01*
G37*
G36*
X2299Y20669D02*
X2004Y20669D01*
X2004Y20720D01*
X2237Y20720D01*
X2237Y21129D01*
X2299Y21129D01*
X2299Y20669D01*
G37*
G36*
X1660Y19252D02*
X1598Y19252D01*
X1598Y19712D01*
X1660Y19712D01*
X1660Y19252D01*
G37*
G36*
X2551Y18543D02*
X2489Y18543D01*
X2489Y19003D01*
X2551Y19003D01*
X2551Y18543D01*
G37*
G36*
X2626Y19961D02*
X2563Y19961D01*
X2563Y20420D01*
X2626Y20420D01*
X2626Y19961D01*
G37*
G36*
X21691Y8536D02*
X21664Y8536D01*
X21639Y8538D01*
X21614Y8541D01*
X21590Y8546D01*
X21567Y8551D01*
X21545Y8558D01*
X21524Y8566D01*
X21503Y8576D01*
X21483Y8586D01*
X21465Y8598D01*
X21448Y8611D01*
X21432Y8625D01*
X21417Y8640D01*
X21404Y8656D01*
X21391Y8673D01*
X21380Y8692D01*
X21370Y8711D01*
X21361Y8732D01*
X21354Y8753D01*
X21348Y8775D01*
X21344Y8798D01*
X21340Y8822D01*
X21338Y8847D01*
X21338Y8873D01*
X21338Y8898D01*
X21340Y8923D01*
X21344Y8947D01*
X21348Y8970D01*
X21354Y8992D01*
X21362Y9013D01*
X21370Y9033D01*
X21381Y9053D01*
X21392Y9071D01*
X21404Y9089D01*
X21418Y9105D01*
X21433Y9120D01*
X21449Y9134D01*
X21466Y9147D01*
X21484Y9159D01*
X21504Y9170D01*
X21524Y9180D01*
X21545Y9188D01*
X21568Y9195D01*
X21591Y9201D01*
X21614Y9205D01*
X21639Y9208D01*
X21664Y9210D01*
X21691Y9211D01*
X21717Y9210D01*
X21742Y9208D01*
X21767Y9205D01*
X21791Y9201D01*
X21814Y9195D01*
X21835Y9188D01*
X21856Y9180D01*
X21877Y9171D01*
X21896Y9160D01*
X21914Y9148D01*
X21930Y9135D01*
X21946Y9121D01*
X21960Y9106D01*
X21974Y9090D01*
X21986Y9072D01*
X21997Y9054D01*
X22006Y9034D01*
X22015Y9014D01*
X22022Y8993D01*
X22028Y8971D01*
X22032Y8948D01*
X22035Y8924D01*
X22037Y8899D01*
X22038Y8874D01*
X22038Y8854D01*
X22036Y8835D01*
X22035Y8816D01*
X22032Y8798D01*
X22029Y8781D01*
X22025Y8764D01*
X22020Y8748D01*
X22015Y8732D01*
X22009Y8717D01*
X22002Y8702D01*
X21994Y8688D01*
X21986Y8674D01*
X21977Y8661D01*
X21967Y8648D01*
X21957Y8636D01*
X21946Y8625D01*
X21934Y8614D01*
X21922Y8604D01*
X21909Y8595D01*
X21895Y8586D01*
X21881Y8578D01*
X21867Y8571D01*
X21852Y8564D01*
X21836Y8558D01*
X21820Y8553D01*
X21803Y8548D01*
X21786Y8544D01*
X21768Y8541D01*
X21749Y8539D01*
X21730Y8537D01*
X21711Y8536D01*
X21691Y8536D01*
G37*
%LPC*%
G36*
X21691Y8629D02*
X21707Y8630D01*
X21722Y8630D01*
X21737Y8632D01*
X21752Y8633D01*
X21766Y8636D01*
X21779Y8638D01*
X21792Y8642D01*
X21805Y8645D01*
X21818Y8650D01*
X21829Y8654D01*
X21841Y8659D01*
X21852Y8665D01*
X21862Y8671D01*
X21872Y8678D01*
X21882Y8685D01*
X21891Y8693D01*
X21900Y8701D01*
X21908Y8710D01*
X21915Y8719D01*
X21922Y8728D01*
X21929Y8738D01*
X21935Y8748D01*
X21940Y8759D01*
X21945Y8770D01*
X21949Y8782D01*
X21953Y8794D01*
X21956Y8806D01*
X21958Y8819D01*
X21960Y8832D01*
X21961Y8845D01*
X21962Y8859D01*
X21963Y8874D01*
X21962Y8888D01*
X21961Y8902D01*
X21960Y8915D01*
X21958Y8928D01*
X21956Y8941D01*
X21952Y8953D01*
X21949Y8965D01*
X21944Y8977D01*
X21940Y8988D01*
X21934Y8998D01*
X21928Y9008D01*
X21922Y9018D01*
X21915Y9028D01*
X21907Y9036D01*
X21899Y9045D01*
X21890Y9053D01*
X21881Y9061D01*
X21871Y9068D01*
X21861Y9075D01*
X21850Y9081D01*
X21840Y9087D01*
X21828Y9092D01*
X21816Y9097D01*
X21804Y9101D01*
X21791Y9105D01*
X21778Y9108D01*
X21765Y9110D01*
X21751Y9113D01*
X21736Y9114D01*
X21722Y9116D01*
X21706Y9116D01*
X21691Y9117D01*
X21674Y9116D01*
X21658Y9116D01*
X21643Y9114D01*
X21628Y9113D01*
X21614Y9111D01*
X21599Y9108D01*
X21586Y9105D01*
X21573Y9101D01*
X21560Y9097D01*
X21548Y9092D01*
X21536Y9087D01*
X21525Y9081D01*
X21515Y9075D01*
X21504Y9068D01*
X21494Y9061D01*
X21485Y9054D01*
X21476Y9046D01*
X21468Y9037D01*
X21460Y9028D01*
X21453Y9019D01*
X21447Y9009D01*
X21441Y8999D01*
X21435Y8988D01*
X21431Y8977D01*
X21426Y8965D01*
X21423Y8953D01*
X21420Y8941D01*
X21417Y8928D01*
X21415Y8915D01*
X21414Y8901D01*
X21413Y8887D01*
X21412Y8873D01*
X21413Y8859D01*
X21414Y8845D01*
X21415Y8832D01*
X21417Y8819D01*
X21420Y8806D01*
X21423Y8794D01*
X21427Y8782D01*
X21431Y8771D01*
X21436Y8760D01*
X21442Y8749D01*
X21448Y8739D01*
X21455Y8729D01*
X21462Y8720D01*
X21470Y8711D01*
X21478Y8702D01*
X21488Y8694D01*
X21497Y8686D01*
X21507Y8679D01*
X21518Y8672D01*
X21528Y8666D01*
X21540Y8660D01*
X21551Y8655D01*
X21563Y8650D01*
X21576Y8645D01*
X21589Y8642D01*
X21602Y8638D01*
X21616Y8636D01*
X21630Y8633D01*
X21645Y8632D01*
X21659Y8630D01*
X21675Y8630D01*
X21691Y8629D01*
G37*
%LPD*%
G36*
X22028Y7910D02*
X21347Y7910D01*
X21347Y8187D01*
X21348Y8215D01*
X21350Y8242D01*
X21354Y8268D01*
X21360Y8292D01*
X21367Y8314D01*
X21376Y8334D01*
X21386Y8353D01*
X21398Y8371D01*
X21411Y8386D01*
X21425Y8400D01*
X21441Y8411D01*
X21458Y8420D01*
X21477Y8428D01*
X21486Y8430D01*
X21496Y8433D01*
X21506Y8435D01*
X21517Y8436D01*
X21528Y8437D01*
X21539Y8437D01*
X21556Y8436D01*
X21572Y8434D01*
X21587Y8431D01*
X21601Y8426D01*
X21615Y8420D01*
X21628Y8412D01*
X21640Y8403D01*
X21652Y8393D01*
X21657Y8387D01*
X21662Y8381D01*
X21672Y8369D01*
X21680Y8355D01*
X21688Y8340D01*
X21694Y8324D01*
X21699Y8306D01*
X21703Y8288D01*
X21706Y8268D01*
X21710Y8283D01*
X21715Y8297D01*
X21720Y8310D01*
X21727Y8323D01*
X21734Y8334D01*
X21742Y8345D01*
X21746Y8349D01*
X21751Y8355D01*
X21761Y8364D01*
X21772Y8371D01*
X21783Y8378D01*
X21795Y8384D01*
X21807Y8389D01*
X21820Y8393D01*
X21834Y8395D01*
X21848Y8397D01*
X21863Y8397D01*
X21873Y8397D01*
X21883Y8396D01*
X21901Y8394D01*
X21919Y8389D01*
X21935Y8382D01*
X21950Y8374D01*
X21963Y8364D01*
X21976Y8351D01*
X21986Y8337D01*
X21996Y8322D01*
X22005Y8304D01*
X22012Y8284D01*
X22017Y8263D01*
X22022Y8239D01*
X22025Y8214D01*
X22027Y8187D01*
X22028Y8158D01*
X22028Y7910D01*
G37*
%LPC*%
G36*
X21667Y8003D02*
X21667Y8175D01*
X21666Y8195D01*
X21665Y8214D01*
X21662Y8232D01*
X21659Y8249D01*
X21655Y8264D01*
X21650Y8278D01*
X21643Y8290D01*
X21636Y8301D01*
X21628Y8311D01*
X21620Y8320D01*
X21610Y8327D01*
X21599Y8333D01*
X21587Y8338D01*
X21574Y8341D01*
X21561Y8343D01*
X21546Y8344D01*
X21531Y8343D01*
X21517Y8341D01*
X21504Y8338D01*
X21492Y8334D01*
X21480Y8329D01*
X21470Y8322D01*
X21461Y8314D01*
X21453Y8305D01*
X21445Y8295D01*
X21439Y8283D01*
X21433Y8270D01*
X21429Y8255D01*
X21426Y8239D01*
X21423Y8221D01*
X21422Y8202D01*
X21421Y8182D01*
X21421Y8003D01*
X21667Y8003D01*
G37*
G36*
X21954Y8003D02*
X21954Y8158D01*
X21954Y8175D01*
X21952Y8191D01*
X21951Y8207D01*
X21948Y8221D01*
X21945Y8234D01*
X21941Y8246D01*
X21936Y8257D01*
X21930Y8267D01*
X21924Y8276D01*
X21916Y8283D01*
X21908Y8290D01*
X21899Y8295D01*
X21888Y8299D01*
X21877Y8302D01*
X21865Y8304D01*
X21851Y8305D01*
X21838Y8304D01*
X21825Y8302D01*
X21813Y8299D01*
X21801Y8295D01*
X21791Y8290D01*
X21782Y8284D01*
X21774Y8277D01*
X21766Y8268D01*
X21760Y8258D01*
X21754Y8248D01*
X21749Y8236D01*
X21745Y8222D01*
X21742Y8208D01*
X21740Y8192D01*
X21739Y8176D01*
X21738Y8158D01*
X21738Y8003D01*
X21954Y8003D01*
G37*
%LPD*%
G36*
X21870Y14106D02*
X21853Y14107D01*
X21830Y14108D01*
X21763Y14109D01*
X21142Y14109D01*
X21142Y14196D01*
X21346Y14196D01*
X21406Y14196D01*
X21422Y14195D01*
X21428Y14194D01*
X21428Y14197D01*
X21417Y14202D01*
X21407Y14208D01*
X21398Y14215D01*
X21389Y14222D01*
X21381Y14230D01*
X21373Y14239D01*
X21366Y14248D01*
X21360Y14258D01*
X21355Y14268D01*
X21350Y14279D01*
X21346Y14291D01*
X21343Y14303D01*
X21341Y14316D01*
X21339Y14330D01*
X21338Y14344D01*
X21338Y14359D01*
X21338Y14371D01*
X21339Y14382D01*
X21340Y14393D01*
X21342Y14404D01*
X21344Y14414D01*
X21347Y14424D01*
X21351Y14434D01*
X21355Y14443D01*
X21359Y14452D01*
X21364Y14460D01*
X21370Y14468D01*
X21376Y14476D01*
X21390Y14490D01*
X21406Y14503D01*
X21424Y14514D01*
X21444Y14524D01*
X21467Y14532D01*
X21491Y14539D01*
X21518Y14544D01*
X21547Y14548D01*
X21578Y14550D01*
X21611Y14551D01*
X21644Y14550D01*
X21676Y14548D01*
X21705Y14544D01*
X21731Y14539D01*
X21755Y14532D01*
X21777Y14524D01*
X21797Y14514D01*
X21814Y14503D01*
X21829Y14490D01*
X21843Y14476D01*
X21854Y14460D01*
X21859Y14452D01*
X21863Y14443D01*
X21867Y14434D01*
X21870Y14424D01*
X21873Y14414D01*
X21875Y14404D01*
X21877Y14393D01*
X21878Y14382D01*
X21879Y14371D01*
X21879Y14359D01*
X21879Y14344D01*
X21878Y14329D01*
X21876Y14315D01*
X21873Y14303D01*
X21870Y14290D01*
X21866Y14279D01*
X21862Y14268D01*
X21857Y14258D01*
X21851Y14249D01*
X21844Y14240D01*
X21836Y14232D01*
X21828Y14224D01*
X21818Y14216D01*
X21808Y14210D01*
X21797Y14203D01*
X21786Y14197D01*
X21786Y14195D01*
X21820Y14194D01*
X21856Y14192D01*
X21870Y14190D01*
X21870Y14106D01*
G37*
%LPC*%
G36*
X21602Y14196D02*
X21620Y14196D01*
X21637Y14197D01*
X21654Y14198D01*
X21669Y14200D01*
X21684Y14202D01*
X21697Y14205D01*
X21710Y14208D01*
X21722Y14211D01*
X21733Y14215D01*
X21744Y14220D01*
X21753Y14225D01*
X21762Y14230D01*
X21770Y14236D01*
X21778Y14242D01*
X21784Y14249D01*
X21790Y14256D01*
X21795Y14263D01*
X21800Y14272D01*
X21803Y14281D01*
X21806Y14291D01*
X21809Y14301D01*
X21811Y14312D01*
X21812Y14324D01*
X21812Y14337D01*
X21811Y14352D01*
X21809Y14367D01*
X21805Y14380D01*
X21800Y14392D01*
X21794Y14403D01*
X21786Y14413D01*
X21776Y14422D01*
X21765Y14430D01*
X21752Y14437D01*
X21738Y14443D01*
X21721Y14448D01*
X21703Y14452D01*
X21682Y14456D01*
X21660Y14458D01*
X21635Y14459D01*
X21609Y14460D01*
X21582Y14459D01*
X21557Y14458D01*
X21534Y14456D01*
X21513Y14452D01*
X21494Y14448D01*
X21477Y14443D01*
X21462Y14437D01*
X21449Y14430D01*
X21438Y14422D01*
X21429Y14413D01*
X21420Y14403D01*
X21414Y14392D01*
X21409Y14379D01*
X21405Y14366D01*
X21403Y14351D01*
X21402Y14336D01*
X21403Y14318D01*
X21405Y14301D01*
X21409Y14286D01*
X21414Y14272D01*
X21421Y14259D01*
X21429Y14248D01*
X21439Y14238D01*
X21451Y14229D01*
X21464Y14221D01*
X21478Y14214D01*
X21495Y14209D01*
X21513Y14204D01*
X21533Y14201D01*
X21554Y14198D01*
X21577Y14197D01*
X21602Y14196D01*
G37*
%LPD*%
G36*
X21606Y12984D02*
X21573Y12985D01*
X21543Y12987D01*
X21514Y12991D01*
X21488Y12996D01*
X21464Y13002D01*
X21442Y13010D01*
X21422Y13020D01*
X21404Y13031D01*
X21389Y13043D01*
X21382Y13050D01*
X21375Y13057D01*
X21369Y13065D01*
X21364Y13073D01*
X21359Y13081D01*
X21354Y13090D01*
X21350Y13100D01*
X21347Y13109D01*
X21344Y13120D01*
X21342Y13130D01*
X21340Y13141D01*
X21339Y13152D01*
X21338Y13164D01*
X21338Y13176D01*
X21338Y13191D01*
X21339Y13205D01*
X21341Y13218D01*
X21343Y13230D01*
X21346Y13243D01*
X21350Y13254D01*
X21354Y13265D01*
X21359Y13275D01*
X21365Y13285D01*
X21372Y13294D01*
X21380Y13303D01*
X21388Y13311D01*
X21398Y13319D01*
X21408Y13326D01*
X21419Y13333D01*
X21431Y13339D01*
X21431Y13341D01*
X21409Y13341D01*
X21383Y13343D01*
X21360Y13344D01*
X21347Y13346D01*
X21347Y13429D01*
X21364Y13428D01*
X21387Y13427D01*
X21455Y13426D01*
X22064Y13426D01*
X22064Y13339D01*
X21847Y13339D01*
X21789Y13340D01*
X21789Y13339D01*
X21800Y13333D01*
X21811Y13326D01*
X21821Y13319D01*
X21830Y13311D01*
X21838Y13303D01*
X21845Y13294D01*
X21852Y13285D01*
X21858Y13275D01*
X21863Y13265D01*
X21867Y13254D01*
X21871Y13243D01*
X21874Y13231D01*
X21876Y13218D01*
X21878Y13205D01*
X21879Y13191D01*
X21880Y13176D01*
X21879Y13164D01*
X21878Y13153D01*
X21877Y13142D01*
X21875Y13131D01*
X21873Y13121D01*
X21870Y13111D01*
X21866Y13101D01*
X21862Y13092D01*
X21858Y13083D01*
X21853Y13075D01*
X21847Y13067D01*
X21841Y13059D01*
X21827Y13045D01*
X21811Y13032D01*
X21793Y13021D01*
X21773Y13011D01*
X21750Y13003D01*
X21726Y12996D01*
X21699Y12991D01*
X21670Y12987D01*
X21639Y12985D01*
X21606Y12984D01*
G37*
%LPC*%
G36*
X21609Y13075D02*
X21635Y13076D01*
X21660Y13077D01*
X21682Y13079D01*
X21703Y13083D01*
X21722Y13087D01*
X21739Y13092D01*
X21754Y13098D01*
X21767Y13105D01*
X21778Y13112D01*
X21788Y13121D01*
X21796Y13132D01*
X21803Y13143D01*
X21808Y13155D01*
X21812Y13169D01*
X21815Y13184D01*
X21815Y13199D01*
X21815Y13217D01*
X21812Y13233D01*
X21808Y13249D01*
X21803Y13263D01*
X21796Y13275D01*
X21788Y13287D01*
X21778Y13297D01*
X21767Y13306D01*
X21754Y13314D01*
X21739Y13320D01*
X21723Y13326D01*
X21705Y13331D01*
X21685Y13334D01*
X21663Y13337D01*
X21640Y13339D01*
X21615Y13339D01*
X21589Y13339D01*
X21565Y13337D01*
X21542Y13334D01*
X21521Y13331D01*
X21502Y13326D01*
X21485Y13320D01*
X21470Y13314D01*
X21456Y13306D01*
X21454Y13305D01*
X21444Y13297D01*
X21434Y13287D01*
X21425Y13275D01*
X21418Y13262D01*
X21412Y13248D01*
X21408Y13233D01*
X21406Y13216D01*
X21405Y13199D01*
X21405Y13183D01*
X21408Y13168D01*
X21411Y13155D01*
X21417Y13142D01*
X21423Y13131D01*
X21431Y13121D01*
X21441Y13112D01*
X21452Y13104D01*
X21465Y13098D01*
X21480Y13092D01*
X21496Y13087D01*
X21515Y13083D01*
X21536Y13079D01*
X21558Y13077D01*
X21583Y13076D01*
X21609Y13075D01*
G37*
%LPD*%
G36*
X22028Y6921D02*
X21347Y6921D01*
X21347Y7014D01*
X21612Y7014D01*
X21612Y7214D01*
X21613Y7240D01*
X21616Y7265D01*
X21620Y7288D01*
X21627Y7310D01*
X21635Y7331D01*
X21644Y7350D01*
X21656Y7368D01*
X21669Y7385D01*
X21684Y7400D01*
X21700Y7412D01*
X21718Y7423D01*
X21736Y7432D01*
X21756Y7439D01*
X21777Y7444D01*
X21788Y7446D01*
X21799Y7447D01*
X21811Y7448D01*
X21823Y7448D01*
X21835Y7448D01*
X21847Y7447D01*
X21858Y7446D01*
X21869Y7444D01*
X21880Y7442D01*
X21890Y7439D01*
X21910Y7432D01*
X21928Y7423D01*
X21945Y7412D01*
X21960Y7400D01*
X21974Y7385D01*
X21987Y7368D01*
X21998Y7350D01*
X22007Y7331D01*
X22014Y7309D01*
X22020Y7286D01*
X22024Y7262D01*
X22027Y7236D01*
X22028Y7208D01*
X22028Y6921D01*
G37*
%LPC*%
G36*
X21954Y7014D02*
X21954Y7197D01*
X21953Y7216D01*
X21952Y7234D01*
X21949Y7250D01*
X21946Y7266D01*
X21941Y7280D01*
X21935Y7293D01*
X21929Y7305D01*
X21921Y7315D01*
X21912Y7325D01*
X21902Y7333D01*
X21892Y7340D01*
X21880Y7345D01*
X21867Y7349D01*
X21853Y7353D01*
X21838Y7354D01*
X21822Y7355D01*
X21805Y7354D01*
X21790Y7353D01*
X21776Y7350D01*
X21762Y7345D01*
X21750Y7340D01*
X21739Y7333D01*
X21729Y7325D01*
X21720Y7316D01*
X21712Y7306D01*
X21705Y7295D01*
X21699Y7282D01*
X21694Y7268D01*
X21690Y7253D01*
X21687Y7237D01*
X21686Y7219D01*
X21685Y7200D01*
X21685Y7014D01*
X21954Y7014D01*
G37*
%LPD*%
G36*
X22028Y10274D02*
X21347Y10274D01*
X21347Y10366D01*
X21612Y10366D01*
X21612Y10566D01*
X21613Y10592D01*
X21616Y10617D01*
X21620Y10641D01*
X21627Y10663D01*
X21635Y10684D01*
X21644Y10703D01*
X21656Y10721D01*
X21669Y10737D01*
X21684Y10752D01*
X21700Y10765D01*
X21718Y10776D01*
X21736Y10785D01*
X21756Y10792D01*
X21777Y10796D01*
X21788Y10798D01*
X21799Y10799D01*
X21811Y10800D01*
X21823Y10800D01*
X21835Y10800D01*
X21847Y10799D01*
X21858Y10798D01*
X21869Y10796D01*
X21880Y10794D01*
X21890Y10792D01*
X21910Y10785D01*
X21928Y10776D01*
X21945Y10765D01*
X21960Y10752D01*
X21974Y10738D01*
X21987Y10721D01*
X21998Y10703D01*
X22007Y10683D01*
X22014Y10662D01*
X22020Y10639D01*
X22024Y10614D01*
X22027Y10588D01*
X22028Y10560D01*
X22028Y10274D01*
G37*
%LPC*%
G36*
X21954Y10366D02*
X21954Y10549D01*
X21953Y10568D01*
X21952Y10586D01*
X21949Y10603D01*
X21946Y10619D01*
X21941Y10633D01*
X21935Y10646D01*
X21929Y10658D01*
X21921Y10668D01*
X21912Y10677D01*
X21902Y10685D01*
X21892Y10692D01*
X21880Y10698D01*
X21867Y10702D01*
X21853Y10705D01*
X21838Y10707D01*
X21822Y10708D01*
X21805Y10707D01*
X21790Y10705D01*
X21776Y10702D01*
X21762Y10698D01*
X21750Y10693D01*
X21739Y10686D01*
X21729Y10678D01*
X21720Y10669D01*
X21712Y10659D01*
X21705Y10647D01*
X21699Y10635D01*
X21694Y10621D01*
X21690Y10606D01*
X21687Y10589D01*
X21686Y10572D01*
X21685Y10553D01*
X21685Y10366D01*
X21954Y10366D01*
G37*
%LPD*%
G36*
X21609Y10894D02*
X21577Y10895D01*
X21547Y10897D01*
X21519Y10902D01*
X21506Y10905D01*
X21493Y10908D01*
X21480Y10912D01*
X21468Y10917D01*
X21457Y10921D01*
X21446Y10927D01*
X21436Y10932D01*
X21426Y10939D01*
X21416Y10945D01*
X21407Y10952D01*
X21399Y10960D01*
X21391Y10968D01*
X21384Y10976D01*
X21377Y10985D01*
X21371Y10994D01*
X21365Y11004D01*
X21360Y11014D01*
X21355Y11025D01*
X21351Y11036D01*
X21347Y11047D01*
X21344Y11059D01*
X21342Y11071D01*
X21340Y11084D01*
X21339Y11097D01*
X21338Y11111D01*
X21338Y11125D01*
X21338Y11139D01*
X21339Y11153D01*
X21340Y11166D01*
X21342Y11179D01*
X21344Y11192D01*
X21347Y11204D01*
X21350Y11215D01*
X21354Y11226D01*
X21359Y11237D01*
X21364Y11247D01*
X21369Y11257D01*
X21375Y11267D01*
X21382Y11276D01*
X21389Y11284D01*
X21397Y11293D01*
X21405Y11300D01*
X21413Y11308D01*
X21423Y11315D01*
X21432Y11321D01*
X21443Y11327D01*
X21454Y11332D01*
X21465Y11337D01*
X21477Y11342D01*
X21489Y11346D01*
X21502Y11349D01*
X21516Y11352D01*
X21530Y11355D01*
X21545Y11357D01*
X21560Y11359D01*
X21576Y11360D01*
X21592Y11361D01*
X21609Y11361D01*
X21643Y11360D01*
X21674Y11357D01*
X21703Y11353D01*
X21716Y11350D01*
X21729Y11347D01*
X21742Y11343D01*
X21754Y11339D01*
X21765Y11334D01*
X21776Y11329D01*
X21786Y11324D01*
X21796Y11318D01*
X21805Y11311D01*
X21814Y11304D01*
X21822Y11297D01*
X21829Y11289D01*
X21836Y11281D01*
X21842Y11272D01*
X21848Y11263D01*
X21854Y11253D01*
X21859Y11243D01*
X21863Y11232D01*
X21867Y11221D01*
X21870Y11209D01*
X21873Y11197D01*
X21875Y11184D01*
X21877Y11171D01*
X21878Y11157D01*
X21879Y11143D01*
X21880Y11128D01*
X21879Y11114D01*
X21878Y11100D01*
X21877Y11086D01*
X21875Y11073D01*
X21873Y11061D01*
X21870Y11048D01*
X21867Y11037D01*
X21863Y11026D01*
X21858Y11015D01*
X21853Y11004D01*
X21848Y10995D01*
X21841Y10985D01*
X21835Y10976D01*
X21828Y10968D01*
X21820Y10960D01*
X21812Y10952D01*
X21803Y10945D01*
X21794Y10939D01*
X21784Y10932D01*
X21774Y10927D01*
X21763Y10921D01*
X21752Y10917D01*
X21740Y10912D01*
X21727Y10908D01*
X21714Y10905D01*
X21701Y10902D01*
X21687Y10899D01*
X21672Y10897D01*
X21657Y10896D01*
X21642Y10895D01*
X21609Y10894D01*
G37*
%LPC*%
G36*
X21609Y10985D02*
X21635Y10986D01*
X21659Y10987D01*
X21681Y10990D01*
X21701Y10994D01*
X21720Y10998D01*
X21737Y11004D01*
X21752Y11011D01*
X21765Y11019D01*
X21777Y11028D01*
X21787Y11039D01*
X21796Y11051D01*
X21803Y11064D01*
X21808Y11078D01*
X21812Y11094D01*
X21814Y11111D01*
X21815Y11129D01*
X21814Y11148D01*
X21812Y11165D01*
X21808Y11180D01*
X21803Y11194D01*
X21796Y11207D01*
X21788Y11219D01*
X21778Y11229D01*
X21766Y11237D01*
X21753Y11245D01*
X21738Y11251D01*
X21721Y11257D01*
X21702Y11262D01*
X21682Y11265D01*
X21659Y11268D01*
X21635Y11269D01*
X21609Y11270D01*
X21583Y11269D01*
X21559Y11267D01*
X21537Y11265D01*
X21516Y11261D01*
X21498Y11256D01*
X21481Y11251D01*
X21465Y11244D01*
X21452Y11236D01*
X21440Y11227D01*
X21430Y11216D01*
X21421Y11205D01*
X21414Y11191D01*
X21409Y11177D01*
X21405Y11160D01*
X21403Y11143D01*
X21402Y11124D01*
X21403Y11107D01*
X21405Y11091D01*
X21409Y11076D01*
X21415Y11062D01*
X21422Y11049D01*
X21431Y11038D01*
X21442Y11028D01*
X21454Y11019D01*
X21468Y11011D01*
X21483Y11004D01*
X21500Y10998D01*
X21519Y10993D01*
X21539Y10990D01*
X21561Y10987D01*
X21584Y10986D01*
X21609Y10985D01*
G37*
%LPD*%
G36*
X21347Y12285D02*
X21347Y12381D01*
X21546Y12459D01*
X21546Y12769D01*
X21347Y12847D01*
X21347Y12941D01*
X22028Y12668D01*
X22028Y12563D01*
X21347Y12285D01*
G37*
%LPC*%
G36*
X21618Y12487D02*
X21842Y12574D01*
X21899Y12595D01*
X21945Y12610D01*
X21958Y12614D01*
X21918Y12627D01*
X21878Y12640D01*
X21843Y12654D01*
X21618Y12741D01*
X21618Y12487D01*
G37*
%LPD*%
G36*
X21493Y13535D02*
X21475Y13535D01*
X21459Y13537D01*
X21443Y13540D01*
X21428Y13544D01*
X21415Y13550D01*
X21402Y13557D01*
X21390Y13565D01*
X21379Y13574D01*
X21369Y13585D01*
X21361Y13596D01*
X21354Y13609D01*
X21348Y13623D01*
X21343Y13639D01*
X21340Y13656D01*
X21338Y13673D01*
X21338Y13692D01*
X21338Y13708D01*
X21339Y13723D01*
X21341Y13737D01*
X21344Y13751D01*
X21347Y13764D01*
X21352Y13777D01*
X21357Y13789D01*
X21362Y13800D01*
X21369Y13811D01*
X21377Y13821D01*
X21386Y13832D01*
X21396Y13841D01*
X21407Y13851D01*
X21419Y13860D01*
X21433Y13869D01*
X21447Y13877D01*
X21447Y13880D01*
X21434Y13881D01*
X21422Y13883D01*
X21411Y13885D01*
X21400Y13888D01*
X21391Y13891D01*
X21382Y13895D01*
X21375Y13900D01*
X21368Y13905D01*
X21362Y13911D01*
X21357Y13918D01*
X21352Y13925D01*
X21349Y13934D01*
X21346Y13943D01*
X21344Y13953D01*
X21343Y13964D01*
X21342Y13975D01*
X21343Y13993D01*
X21344Y14009D01*
X21347Y14026D01*
X21350Y14043D01*
X21404Y14043D01*
X21402Y14028D01*
X21401Y14014D01*
X21401Y14007D01*
X21402Y14001D01*
X21404Y13995D01*
X21406Y13990D01*
X21408Y13986D01*
X21412Y13982D01*
X21416Y13978D01*
X21420Y13975D01*
X21431Y13971D01*
X21445Y13968D01*
X21460Y13966D01*
X21479Y13965D01*
X21704Y13965D01*
X21724Y13965D01*
X21744Y13962D01*
X21762Y13958D01*
X21779Y13953D01*
X21795Y13946D01*
X21809Y13937D01*
X21822Y13927D01*
X21834Y13916D01*
X21845Y13902D01*
X21854Y13888D01*
X21862Y13871D01*
X21868Y13854D01*
X21873Y13834D01*
X21877Y13814D01*
X21879Y13791D01*
X21880Y13767D01*
X21879Y13745D01*
X21877Y13723D01*
X21875Y13703D01*
X21871Y13684D01*
X21866Y13666D01*
X21860Y13650D01*
X21853Y13635D01*
X21844Y13621D01*
X21835Y13609D01*
X21824Y13598D01*
X21813Y13588D01*
X21800Y13579D01*
X21786Y13572D01*
X21772Y13566D01*
X21756Y13561D01*
X21738Y13558D01*
X21730Y13648D01*
X21741Y13650D01*
X21751Y13652D01*
X21760Y13655D01*
X21768Y13659D01*
X21775Y13663D01*
X21782Y13668D01*
X21788Y13674D01*
X21794Y13680D01*
X21798Y13688D01*
X21802Y13696D01*
X21806Y13705D01*
X21808Y13715D01*
X21811Y13726D01*
X21812Y13738D01*
X21813Y13751D01*
X21813Y13765D01*
X21813Y13779D01*
X21812Y13792D01*
X21809Y13804D01*
X21806Y13816D01*
X21803Y13826D01*
X21798Y13835D01*
X21792Y13843D01*
X21786Y13850D01*
X21778Y13857D01*
X21770Y13862D01*
X21760Y13867D01*
X21749Y13871D01*
X21737Y13874D01*
X21724Y13876D01*
X21710Y13877D01*
X21695Y13877D01*
X21666Y13877D01*
X21664Y13760D01*
X21663Y13731D01*
X21660Y13705D01*
X21656Y13680D01*
X21651Y13658D01*
X21645Y13637D01*
X21637Y13619D01*
X21628Y13602D01*
X21618Y13588D01*
X21606Y13575D01*
X21594Y13565D01*
X21580Y13555D01*
X21565Y13548D01*
X21549Y13542D01*
X21531Y13538D01*
X21513Y13535D01*
X21493Y13535D01*
G37*
%LPC*%
G36*
X21492Y13624D02*
X21501Y13624D01*
X21510Y13625D01*
X21519Y13626D01*
X21527Y13628D01*
X21535Y13630D01*
X21542Y13633D01*
X21549Y13637D01*
X21555Y13641D01*
X21566Y13650D01*
X21576Y13661D01*
X21584Y13674D01*
X21591Y13689D01*
X21593Y13698D01*
X21596Y13707D01*
X21600Y13728D01*
X21602Y13753D01*
X21603Y13782D01*
X21605Y13877D01*
X21562Y13877D01*
X21552Y13877D01*
X21542Y13876D01*
X21532Y13874D01*
X21523Y13872D01*
X21513Y13869D01*
X21503Y13865D01*
X21494Y13861D01*
X21484Y13856D01*
X21475Y13850D01*
X21466Y13844D01*
X21458Y13838D01*
X21450Y13831D01*
X21443Y13823D01*
X21436Y13815D01*
X21430Y13806D01*
X21425Y13797D01*
X21419Y13788D01*
X21415Y13778D01*
X21411Y13768D01*
X21408Y13757D01*
X21406Y13747D01*
X21404Y13735D01*
X21403Y13724D01*
X21403Y13712D01*
X21403Y13702D01*
X21404Y13692D01*
X21406Y13683D01*
X21409Y13675D01*
X21412Y13667D01*
X21416Y13659D01*
X21421Y13653D01*
X21426Y13647D01*
X21432Y13641D01*
X21439Y13637D01*
X21446Y13633D01*
X21454Y13630D01*
X21462Y13627D01*
X21472Y13625D01*
X21481Y13624D01*
X21492Y13624D01*
G37*
%LPD*%
G36*
X22028Y5602D02*
X21347Y5602D01*
X21347Y6139D01*
X21423Y6139D01*
X21423Y5695D01*
X21660Y5695D01*
X21660Y6090D01*
X21734Y6090D01*
X21734Y5695D01*
X21952Y5695D01*
X21952Y6119D01*
X22028Y6119D01*
X22028Y5602D01*
G37*
G36*
X22028Y11485D02*
X21347Y11485D01*
X21347Y12021D01*
X21423Y12021D01*
X21423Y11577D01*
X21660Y11577D01*
X21660Y11972D01*
X21734Y11972D01*
X21734Y11577D01*
X21952Y11577D01*
X21952Y12001D01*
X22028Y12001D01*
X22028Y11485D01*
G37*
G36*
X21612Y14910D02*
X21595Y14910D01*
X21579Y14911D01*
X21563Y14912D01*
X21548Y14914D01*
X21533Y14916D01*
X21519Y14919D01*
X21506Y14922D01*
X21493Y14925D01*
X21480Y14929D01*
X21468Y14934D01*
X21456Y14939D01*
X21445Y14944D01*
X21435Y14950D01*
X21425Y14956D01*
X21416Y14963D01*
X21407Y14971D01*
X21398Y14978D01*
X21390Y14987D01*
X21383Y14995D01*
X21376Y15004D01*
X21370Y15014D01*
X21365Y15024D01*
X21359Y15034D01*
X21355Y15045D01*
X21351Y15056D01*
X21347Y15068D01*
X21344Y15080D01*
X21342Y15093D01*
X21340Y15106D01*
X21339Y15119D01*
X21338Y15133D01*
X21338Y15147D01*
X21338Y15167D01*
X21340Y15187D01*
X21342Y15205D01*
X21345Y15223D01*
X21350Y15239D01*
X21355Y15255D01*
X21361Y15270D01*
X21368Y15283D01*
X21377Y15296D01*
X21386Y15308D01*
X21396Y15319D01*
X21407Y15329D01*
X21419Y15338D01*
X21432Y15347D01*
X21446Y15354D01*
X21461Y15360D01*
X21483Y15284D01*
X21474Y15280D01*
X21466Y15276D01*
X21459Y15272D01*
X21451Y15266D01*
X21444Y15260D01*
X21438Y15253D01*
X21431Y15246D01*
X21425Y15238D01*
X21420Y15229D01*
X21416Y15219D01*
X21412Y15209D01*
X21408Y15198D01*
X21406Y15186D01*
X21404Y15174D01*
X21403Y15161D01*
X21403Y15147D01*
X21404Y15130D01*
X21406Y15114D01*
X21410Y15098D01*
X21415Y15084D01*
X21422Y15071D01*
X21430Y15059D01*
X21440Y15048D01*
X21452Y15038D01*
X21464Y15030D01*
X21479Y15022D01*
X21494Y15016D01*
X21511Y15011D01*
X21529Y15007D01*
X21548Y15004D01*
X21568Y15002D01*
X21590Y15001D01*
X21590Y15374D01*
X21602Y15374D01*
X21635Y15373D01*
X21667Y15371D01*
X21682Y15369D01*
X21696Y15366D01*
X21710Y15363D01*
X21723Y15360D01*
X21736Y15356D01*
X21748Y15352D01*
X21760Y15347D01*
X21771Y15342D01*
X21782Y15336D01*
X21792Y15330D01*
X21801Y15324D01*
X21810Y15317D01*
X21818Y15309D01*
X21826Y15301D01*
X21834Y15293D01*
X21840Y15284D01*
X21847Y15275D01*
X21852Y15265D01*
X21858Y15255D01*
X21862Y15245D01*
X21866Y15234D01*
X21870Y15222D01*
X21873Y15210D01*
X21875Y15198D01*
X21877Y15185D01*
X21878Y15172D01*
X21879Y15158D01*
X21880Y15144D01*
X21879Y15130D01*
X21878Y15116D01*
X21877Y15103D01*
X21875Y15091D01*
X21873Y15078D01*
X21870Y15067D01*
X21866Y15055D01*
X21862Y15044D01*
X21858Y15034D01*
X21853Y15023D01*
X21847Y15014D01*
X21841Y15004D01*
X21834Y14995D01*
X21827Y14987D01*
X21819Y14978D01*
X21810Y14971D01*
X21802Y14963D01*
X21792Y14956D01*
X21782Y14950D01*
X21772Y14944D01*
X21761Y14939D01*
X21750Y14934D01*
X21738Y14929D01*
X21726Y14925D01*
X21714Y14922D01*
X21701Y14919D01*
X21687Y14916D01*
X21673Y14914D01*
X21658Y14912D01*
X21643Y14911D01*
X21628Y14910D01*
X21612Y14910D01*
G37*
%LPC*%
G36*
X21657Y15002D02*
X21675Y15004D01*
X21692Y15006D01*
X21708Y15009D01*
X21723Y15014D01*
X21737Y15019D01*
X21750Y15026D01*
X21762Y15033D01*
X21773Y15042D01*
X21783Y15052D01*
X21791Y15062D01*
X21799Y15074D01*
X21805Y15086D01*
X21809Y15099D01*
X21813Y15112D01*
X21815Y15127D01*
X21815Y15142D01*
X21815Y15158D01*
X21813Y15173D01*
X21810Y15187D01*
X21806Y15200D01*
X21800Y15212D01*
X21794Y15223D01*
X21786Y15233D01*
X21777Y15242D01*
X21767Y15251D01*
X21756Y15258D01*
X21743Y15265D01*
X21728Y15270D01*
X21713Y15275D01*
X21695Y15279D01*
X21677Y15282D01*
X21657Y15284D01*
X21657Y15002D01*
G37*
%LPD*%
G36*
X21510Y6226D02*
X21490Y6231D01*
X21470Y6239D01*
X21452Y6248D01*
X21435Y6259D01*
X21419Y6271D01*
X21405Y6285D01*
X21392Y6300D01*
X21381Y6318D01*
X21371Y6336D01*
X21362Y6357D01*
X21354Y6379D01*
X21348Y6403D01*
X21344Y6428D01*
X21340Y6455D01*
X21338Y6484D01*
X21338Y6514D01*
X21338Y6546D01*
X21341Y6577D01*
X21345Y6606D01*
X21351Y6633D01*
X21358Y6658D01*
X21367Y6681D01*
X21377Y6702D01*
X21389Y6721D01*
X21403Y6739D01*
X21418Y6754D01*
X21426Y6760D01*
X21434Y6766D01*
X21443Y6772D01*
X21452Y6777D01*
X21461Y6781D01*
X21470Y6785D01*
X21480Y6788D01*
X21491Y6790D01*
X21501Y6792D01*
X21512Y6794D01*
X21524Y6795D01*
X21535Y6795D01*
X21553Y6794D01*
X21570Y6792D01*
X21585Y6789D01*
X21600Y6785D01*
X21613Y6779D01*
X21626Y6772D01*
X21637Y6765D01*
X21648Y6756D01*
X21657Y6746D01*
X21666Y6736D01*
X21675Y6725D01*
X21682Y6713D01*
X21695Y6687D01*
X21706Y6659D01*
X21716Y6630D01*
X21724Y6600D01*
X21739Y6537D01*
X21749Y6494D01*
X21758Y6459D01*
X21766Y6432D01*
X21774Y6412D01*
X21781Y6397D01*
X21790Y6384D01*
X21799Y6373D01*
X21809Y6364D01*
X21820Y6357D01*
X21826Y6354D01*
X21832Y6352D01*
X21839Y6350D01*
X21846Y6348D01*
X21853Y6348D01*
X21861Y6347D01*
X21874Y6348D01*
X21886Y6350D01*
X21897Y6353D01*
X21908Y6358D01*
X21917Y6364D01*
X21926Y6372D01*
X21934Y6380D01*
X21941Y6390D01*
X21948Y6402D01*
X21953Y6414D01*
X21958Y6428D01*
X21962Y6443D01*
X21965Y6459D01*
X21967Y6477D01*
X21968Y6495D01*
X21968Y6515D01*
X21968Y6533D01*
X21967Y6550D01*
X21965Y6566D01*
X21962Y6581D01*
X21959Y6595D01*
X21955Y6608D01*
X21950Y6620D01*
X21944Y6631D01*
X21937Y6641D01*
X21930Y6651D01*
X21922Y6659D01*
X21912Y6667D01*
X21902Y6673D01*
X21891Y6679D01*
X21879Y6684D01*
X21865Y6688D01*
X21881Y6779D01*
X21902Y6772D01*
X21921Y6765D01*
X21939Y6756D01*
X21954Y6745D01*
X21969Y6734D01*
X21982Y6722D01*
X21993Y6708D01*
X22002Y6693D01*
X22011Y6677D01*
X22018Y6659D01*
X22024Y6639D01*
X22029Y6618D01*
X22033Y6595D01*
X22036Y6570D01*
X22037Y6544D01*
X22038Y6516D01*
X22037Y6486D01*
X22035Y6457D01*
X22031Y6431D01*
X22026Y6406D01*
X22019Y6383D01*
X22011Y6361D01*
X22002Y6342D01*
X21991Y6324D01*
X21978Y6309D01*
X21964Y6295D01*
X21949Y6284D01*
X21933Y6274D01*
X21916Y6267D01*
X21907Y6264D01*
X21897Y6262D01*
X21887Y6260D01*
X21877Y6259D01*
X21867Y6258D01*
X21856Y6258D01*
X21837Y6258D01*
X21820Y6261D01*
X21803Y6265D01*
X21788Y6270D01*
X21774Y6277D01*
X21761Y6286D01*
X21748Y6296D01*
X21737Y6307D01*
X21726Y6320D01*
X21716Y6336D01*
X21706Y6353D01*
X21697Y6373D01*
X21688Y6397D01*
X21679Y6425D01*
X21670Y6458D01*
X21661Y6496D01*
X21641Y6580D01*
X21637Y6599D01*
X21631Y6616D01*
X21625Y6631D01*
X21619Y6646D01*
X21611Y6659D01*
X21603Y6670D01*
X21594Y6680D01*
X21584Y6689D01*
X21573Y6695D01*
X21560Y6700D01*
X21554Y6702D01*
X21546Y6703D01*
X21538Y6704D01*
X21530Y6704D01*
X21516Y6703D01*
X21502Y6701D01*
X21490Y6697D01*
X21478Y6692D01*
X21467Y6685D01*
X21457Y6676D01*
X21448Y6667D01*
X21440Y6655D01*
X21433Y6642D01*
X21427Y6628D01*
X21422Y6613D01*
X21417Y6597D01*
X21414Y6579D01*
X21411Y6559D01*
X21410Y6539D01*
X21410Y6517D01*
X21410Y6496D01*
X21411Y6476D01*
X21414Y6458D01*
X21417Y6440D01*
X21421Y6423D01*
X21426Y6408D01*
X21432Y6394D01*
X21438Y6381D01*
X21446Y6369D01*
X21455Y6358D01*
X21464Y6348D01*
X21475Y6339D01*
X21487Y6331D01*
X21500Y6325D01*
X21514Y6319D01*
X21528Y6315D01*
X21510Y6226D01*
G37*
G36*
X21347Y9281D02*
X21347Y9383D01*
X21645Y9592D01*
X21347Y9796D01*
X21347Y9898D01*
X21704Y9645D01*
X22028Y9878D01*
X22028Y9776D01*
X21761Y9592D01*
X22028Y9403D01*
X22028Y9301D01*
X21701Y9540D01*
X21347Y9281D01*
G37*
G36*
X20359Y6890D02*
X20297Y6890D01*
X20297Y7341D01*
X20371Y7341D01*
X20371Y6986D01*
X20388Y6994D01*
X20406Y7005D01*
X20423Y7018D01*
X20441Y7033D01*
X20460Y7051D01*
X20480Y7071D01*
X20501Y7095D01*
X20523Y7121D01*
X20562Y7168D01*
X20595Y7206D01*
X20622Y7236D01*
X20645Y7258D01*
X20664Y7275D01*
X20684Y7289D01*
X20703Y7302D01*
X20723Y7312D01*
X20742Y7320D01*
X20762Y7325D01*
X20772Y7327D01*
X20782Y7329D01*
X20792Y7330D01*
X20801Y7330D01*
X20823Y7329D01*
X20844Y7326D01*
X20863Y7322D01*
X20881Y7316D01*
X20897Y7308D01*
X20913Y7299D01*
X20927Y7288D01*
X20939Y7275D01*
X20951Y7260D01*
X20961Y7244D01*
X20969Y7226D01*
X20976Y7207D01*
X20981Y7187D01*
X20985Y7165D01*
X20987Y7141D01*
X20988Y7116D01*
X20987Y7094D01*
X20985Y7072D01*
X20981Y7051D01*
X20976Y7031D01*
X20969Y7013D01*
X20961Y6995D01*
X20951Y6979D01*
X20940Y6963D01*
X20927Y6949D01*
X20913Y6936D01*
X20899Y6925D01*
X20883Y6916D01*
X20866Y6908D01*
X20848Y6902D01*
X20830Y6897D01*
X20810Y6894D01*
X20801Y6983D01*
X20815Y6985D01*
X20827Y6988D01*
X20839Y6992D01*
X20850Y6996D01*
X20860Y7002D01*
X20870Y7009D01*
X20878Y7016D01*
X20886Y7025D01*
X20893Y7034D01*
X20899Y7044D01*
X20905Y7055D01*
X20909Y7066D01*
X20912Y7078D01*
X20915Y7090D01*
X20916Y7103D01*
X20916Y7116D01*
X20916Y7131D01*
X20915Y7144D01*
X20912Y7157D01*
X20909Y7168D01*
X20904Y7179D01*
X20899Y7190D01*
X20893Y7199D01*
X20886Y7208D01*
X20877Y7215D01*
X20869Y7222D01*
X20859Y7228D01*
X20848Y7232D01*
X20837Y7236D01*
X20825Y7239D01*
X20812Y7240D01*
X20799Y7241D01*
X20788Y7240D01*
X20778Y7239D01*
X20769Y7238D01*
X20759Y7236D01*
X20750Y7233D01*
X20741Y7230D01*
X20733Y7226D01*
X20724Y7221D01*
X20708Y7211D01*
X20692Y7199D01*
X20677Y7186D01*
X20661Y7172D01*
X20631Y7139D01*
X20602Y7102D01*
X20570Y7064D01*
X20537Y7025D01*
X20519Y7005D01*
X20499Y6986D01*
X20479Y6968D01*
X20458Y6950D01*
X20436Y6933D01*
X20412Y6917D01*
X20386Y6903D01*
X20359Y6890D01*
G37*
G36*
X20371Y6091D02*
X20297Y6091D01*
X20297Y6518D01*
X20371Y6518D01*
X20371Y6352D01*
X20978Y6352D01*
X20978Y6272D01*
X20867Y6111D01*
X20785Y6111D01*
X20895Y6265D01*
X20371Y6265D01*
X20371Y6091D01*
G37*
G36*
X20820Y5525D02*
X20297Y5714D01*
X20297Y5817D01*
X20820Y6012D01*
X20820Y5920D01*
X20479Y5801D01*
X20422Y5783D01*
X20365Y5766D01*
X20442Y5744D01*
X20480Y5732D01*
X20820Y5617D01*
X20820Y5525D01*
G37*
G36*
X21870Y14609D02*
X21807Y14609D01*
X21807Y14669D01*
X21458Y14669D01*
X21444Y14669D01*
X21430Y14671D01*
X21418Y14673D01*
X21406Y14675D01*
X21395Y14679D01*
X21386Y14684D01*
X21377Y14689D01*
X21369Y14695D01*
X21362Y14702D01*
X21356Y14710D01*
X21351Y14718D01*
X21347Y14728D01*
X21344Y14738D01*
X21341Y14749D01*
X21340Y14761D01*
X21340Y14773D01*
X21340Y14796D01*
X21342Y14818D01*
X21346Y14840D01*
X21351Y14861D01*
X21415Y14861D01*
X21410Y14832D01*
X21409Y14821D01*
X21409Y14811D01*
X21409Y14804D01*
X21410Y14797D01*
X21411Y14791D01*
X21412Y14785D01*
X21415Y14780D01*
X21417Y14776D01*
X21420Y14772D01*
X21424Y14768D01*
X21428Y14765D01*
X21433Y14763D01*
X21438Y14761D01*
X21445Y14759D01*
X21459Y14757D01*
X21477Y14756D01*
X21807Y14756D01*
X21807Y14852D01*
X21870Y14852D01*
X21870Y14756D01*
X21987Y14756D01*
X21987Y14698D01*
X21870Y14672D01*
X21870Y14609D01*
G37*
G36*
X21870Y15484D02*
X21806Y15486D01*
X21748Y15487D01*
X21347Y15487D01*
X21347Y15573D01*
X21620Y15573D01*
X21641Y15574D01*
X21661Y15575D01*
X21679Y15577D01*
X21697Y15581D01*
X21713Y15585D01*
X21727Y15589D01*
X21741Y15595D01*
X21753Y15602D01*
X21764Y15609D01*
X21774Y15618D01*
X21782Y15627D01*
X21788Y15637D01*
X21793Y15648D01*
X21797Y15659D01*
X21799Y15671D01*
X21800Y15685D01*
X21800Y15698D01*
X21799Y15711D01*
X21797Y15721D01*
X21795Y15731D01*
X21875Y15731D01*
X21877Y15722D01*
X21878Y15713D01*
X21879Y15704D01*
X21880Y15696D01*
X21879Y15684D01*
X21878Y15672D01*
X21876Y15662D01*
X21873Y15652D01*
X21870Y15643D01*
X21866Y15634D01*
X21861Y15626D01*
X21855Y15619D01*
X21848Y15613D01*
X21840Y15606D01*
X21830Y15600D01*
X21820Y15594D01*
X21807Y15588D01*
X21794Y15582D01*
X21779Y15577D01*
X21763Y15572D01*
X21763Y15570D01*
X21799Y15569D01*
X21870Y15566D01*
X21870Y15484D01*
G37*
G36*
X21649Y7544D02*
X21571Y7544D01*
X21571Y7785D01*
X21649Y7785D01*
X21649Y7544D01*
G37*
G36*
X20403Y6656D02*
X20297Y6656D01*
X20297Y6750D01*
X20403Y6750D01*
X20403Y6656D01*
G37*
D10*
X20276Y13583D02*
X15583Y18275D01*
X15583Y18276D01*
X10895Y13588D01*
X10895Y13583D01*
X15583Y8895D01*
X15583Y8894D01*
X16860Y10172D01*
X20271Y13583D01*
X20276Y13583D01*
X17717Y13583D02*
X15583Y15716D01*
X15583Y15722D01*
X13444Y13583D01*
X13444Y13583D01*
X15580Y11447D01*
X15583Y11447D01*
X15583Y11449D01*
X17717Y13583D01*
X15583Y15722D02*
X16860Y16999D01*
X15583Y11449D02*
X16860Y10172D01*
X13444Y13583D02*
X10895Y13583D01*
M02*
