M48
;GenerationSoftware,Autodesk,EAGLE,9.7.0*%
;CreationDate,2025-01-23T22:45:04Z*%
FMAT,2
ICI,OFF
INCH,TZ,00.0000
T9C0.0100
T8C0.0276
T7C0.0335
T6C0.0350
T5C0.0402
T4C0.0630
T3C0.0787
T2C0.0925
T1C0.1280
%
G90
M72
T1
X3408Y6243
X7908Y6243
T2
X12146Y25230
X15748Y25230
T3
X17244Y25197
X5394Y25197
T4
X2557Y7444
X8758Y7444
T5
X8305Y5243
X8305Y4444
X3010Y5243
X3010Y4444
T6
X7408Y9743
X3408Y9743
X3908Y8743
X4408Y9743
X4908Y8743
X5408Y9743
X5908Y8743
X7908Y8743
T7
X17339Y11701
X15339Y11701
T8
X9921Y24738
X10709Y25722
X11102Y26510
X10709Y24738
X11102Y23951
X11496Y25722
X11496Y24738
X7559Y25722
X12677Y23951
X13071Y25722
X13465Y26510
X13071Y24738
X13465Y23951
X13858Y25722
X14252Y26510
X13858Y24738
X14252Y23951
X14646Y25722
X14646Y24738
X15039Y23951
X10315Y23951
X7953Y26510
X7559Y24738
X7953Y23951
X8346Y25722
X8740Y26510
X8346Y24738
X8740Y23951
X12677Y26510
X9134Y25722
X9528Y26510
X9134Y24738
X9528Y23951
X9921Y25722
X10315Y26510
X15039Y26510
T9
X20079Y21850
X21732Y21850
X17835Y23780
X866Y14449
X827Y15827
X827Y17244
X17126Y10280
X12523Y10945
X12523Y12795
X4134Y12992
X3071Y12717
X1378Y12402
X564Y12402
X9449Y19488
X9449Y11811
X1457Y10000
X3937Y17286
X4331Y17520
X1912Y18841
X2165Y19094
X2480Y19409
X2756Y19685
X2756Y20079
X15354Y18110
X14685Y16575
X18110Y18037
X15353Y17519
X17368Y19094
X19764Y16535
X21654Y15354
X18110Y17520
X7165Y17953
X7165Y17244
X9843Y6693
X6063Y18976
X7047Y18976
X8543Y18031
X10433Y19291
X10472Y18189
X10472Y17283
X10512Y16417
X8661Y15079
X10197Y15079
X8661Y13465
X7205Y13465
X5591Y13425
X4213Y13858
X5433Y14843
X2717Y13898
X1457Y11102
X1457Y9055
X1142Y7520
X1142Y6654
X1142Y5827
X1142Y4843
X10315Y7461
X13110Y7461
X11732Y7461
X13110Y6063
X13110Y4508
X11732Y6063
X11732Y4508
X19488Y8031
X21496Y8031
X19488Y6358
X21496Y6358
X19488Y4606
X21496Y4606
X11417Y22441
X13583Y22441
X19449Y19488
X15551Y22441
X13583Y20669
X13583Y18898
X11811Y18898
X11811Y20669
X19803Y17205
X19094Y16929
X18740Y15079
X18740Y14134
X21811Y17047
X21811Y16063
X15118Y10512
X19016Y10551
X12992Y14409
X11220Y12756
X11220Y10945
X19449Y18268
X17874Y21339
M30